M48
; DRILL file {KiCad 8.0.6-8.0.6-0~ubuntu24.04.1} date 2025-03-25T09:49:35-0400
; FORMAT={-:-/ absolute / inch / decimal}
; #@! TF.CreationDate,2025-03-25T09:49:35-04:00
; #@! TF.GenerationSoftware,Kicad,Pcbnew,8.0.6-8.0.6-0~ubuntu24.04.1
; #@! TF.FileFunction,Plated,1,2,PTH
FMAT,2
INCH
; #@! TA.AperFunction,Plated,PTH,ComponentDrill
T1C0.0394
%
G90
G05
T1
X2.6575Y-2.3764
X2.6575Y-2.4764
X2.6575Y-2.5764
X2.6575Y-2.6764
X2.6575Y-2.7764
X2.6575Y-2.8764
X2.6575Y-2.9764
X2.6575Y-3.0764
X2.6575Y-3.1764
X2.6575Y-3.2764
X2.6575Y-3.3764
X2.6575Y-3.4764
X2.6575Y-3.5764
X2.6575Y-3.6764
X2.6575Y-3.7764
X2.6575Y-3.8764
X2.6575Y-3.9764
X2.6575Y-4.0764
X3.5591Y-2.3748
X3.5591Y-2.4748
X3.5591Y-2.5748
X3.5591Y-2.6748
X3.5591Y-2.7748
X3.5591Y-2.8748
X3.5591Y-2.9748
X3.5591Y-3.0748
X3.5591Y-3.1748
X3.5591Y-3.2748
X3.5591Y-3.3748
X3.5591Y-3.4748
X3.5591Y-3.5748
X3.5591Y-3.6748
X3.5591Y-3.7748
X3.5591Y-3.8748
X3.5591Y-3.9748
X3.5591Y-4.0748
X3.9634Y-2.3953
X3.9634Y-2.4953
X3.9634Y-2.5953
X3.9634Y-2.6953
X3.9634Y-2.7953
X3.9634Y-2.8953
X3.9634Y-2.9953
X3.9634Y-3.0953
X3.9634Y-3.1953
X3.9634Y-3.2953
X3.9634Y-3.3953
X3.9634Y-3.4953
X4.7634Y-2.3953
X4.7634Y-2.4953
X4.7634Y-2.5953
X4.7634Y-2.6953
X4.7634Y-2.7953
X4.7634Y-2.8953
X4.7634Y-2.9953
X4.7634Y-3.0953
X4.7634Y-3.1953
X4.7634Y-3.2953
X4.7634Y-3.3953
X4.7634Y-3.4953
X4.7634Y-3.5953
X4.7634Y-3.6953
X4.7634Y-3.7953
X4.7634Y-3.8953
M30
