%TF.GenerationSoftware,KiCad,Pcbnew,8.0.6-8.0.6-0~ubuntu24.04.1*%
%TF.CreationDate,2025-03-25T09:48:37-04:00*%
%TF.ProjectId,mesh-base,6d657368-2d62-4617-9365-2e6b69636164,rev?*%
%TF.SameCoordinates,Original*%
%TF.FileFunction,Legend,Top*%
%TF.FilePolarity,Positive*%
%FSLAX46Y46*%
G04 Gerber Fmt 4.6, Leading zero omitted, Abs format (unit mm)*
G04 Created by KiCad (PCBNEW 8.0.6-8.0.6-0~ubuntu24.04.1) date 2025-03-25 09:48:37*
%MOMM*%
%LPD*%
G01*
G04 APERTURE LIST*
%ADD10C,0.300000*%
%ADD11C,0.150000*%
%ADD12C,0.120000*%
G04 APERTURE END LIST*
D10*
X72411653Y-50300828D02*
X72697368Y-51300828D01*
X72697368Y-51300828D02*
X72983082Y-50586542D01*
X72983082Y-50586542D02*
X73268796Y-51300828D01*
X73268796Y-51300828D02*
X73554510Y-50300828D01*
X74768797Y-51300828D02*
X74768797Y-50515114D01*
X74768797Y-50515114D02*
X74697368Y-50372257D01*
X74697368Y-50372257D02*
X74554511Y-50300828D01*
X74554511Y-50300828D02*
X74268797Y-50300828D01*
X74268797Y-50300828D02*
X74125939Y-50372257D01*
X74768797Y-51229400D02*
X74625939Y-51300828D01*
X74625939Y-51300828D02*
X74268797Y-51300828D01*
X74268797Y-51300828D02*
X74125939Y-51229400D01*
X74125939Y-51229400D02*
X74054511Y-51086542D01*
X74054511Y-51086542D02*
X74054511Y-50943685D01*
X74054511Y-50943685D02*
X74125939Y-50800828D01*
X74125939Y-50800828D02*
X74268797Y-50729400D01*
X74268797Y-50729400D02*
X74625939Y-50729400D01*
X74625939Y-50729400D02*
X74768797Y-50657971D01*
X75268797Y-50300828D02*
X75840225Y-50300828D01*
X75483082Y-49800828D02*
X75483082Y-51086542D01*
X75483082Y-51086542D02*
X75554511Y-51229400D01*
X75554511Y-51229400D02*
X75697368Y-51300828D01*
X75697368Y-51300828D02*
X75840225Y-51300828D01*
X76911654Y-51229400D02*
X76768797Y-51300828D01*
X76768797Y-51300828D02*
X76483083Y-51300828D01*
X76483083Y-51300828D02*
X76340225Y-51229400D01*
X76340225Y-51229400D02*
X76268797Y-51086542D01*
X76268797Y-51086542D02*
X76268797Y-50515114D01*
X76268797Y-50515114D02*
X76340225Y-50372257D01*
X76340225Y-50372257D02*
X76483083Y-50300828D01*
X76483083Y-50300828D02*
X76768797Y-50300828D01*
X76768797Y-50300828D02*
X76911654Y-50372257D01*
X76911654Y-50372257D02*
X76983083Y-50515114D01*
X76983083Y-50515114D02*
X76983083Y-50657971D01*
X76983083Y-50657971D02*
X76268797Y-50800828D01*
X77625939Y-51300828D02*
X77625939Y-50300828D01*
X77625939Y-50586542D02*
X77697368Y-50443685D01*
X77697368Y-50443685D02*
X77768797Y-50372257D01*
X77768797Y-50372257D02*
X77911654Y-50300828D01*
X77911654Y-50300828D02*
X78054511Y-50300828D01*
X78554510Y-51300828D02*
X78554510Y-49800828D01*
X78554510Y-50372257D02*
X78697368Y-50300828D01*
X78697368Y-50300828D02*
X78983082Y-50300828D01*
X78983082Y-50300828D02*
X79125939Y-50372257D01*
X79125939Y-50372257D02*
X79197368Y-50443685D01*
X79197368Y-50443685D02*
X79268796Y-50586542D01*
X79268796Y-50586542D02*
X79268796Y-51015114D01*
X79268796Y-51015114D02*
X79197368Y-51157971D01*
X79197368Y-51157971D02*
X79125939Y-51229400D01*
X79125939Y-51229400D02*
X78983082Y-51300828D01*
X78983082Y-51300828D02*
X78697368Y-51300828D01*
X78697368Y-51300828D02*
X78554510Y-51229400D01*
X80483082Y-51229400D02*
X80340225Y-51300828D01*
X80340225Y-51300828D02*
X80054511Y-51300828D01*
X80054511Y-51300828D02*
X79911653Y-51229400D01*
X79911653Y-51229400D02*
X79840225Y-51086542D01*
X79840225Y-51086542D02*
X79840225Y-50515114D01*
X79840225Y-50515114D02*
X79911653Y-50372257D01*
X79911653Y-50372257D02*
X80054511Y-50300828D01*
X80054511Y-50300828D02*
X80340225Y-50300828D01*
X80340225Y-50300828D02*
X80483082Y-50372257D01*
X80483082Y-50372257D02*
X80554511Y-50515114D01*
X80554511Y-50515114D02*
X80554511Y-50657971D01*
X80554511Y-50657971D02*
X79840225Y-50800828D01*
X81840225Y-51300828D02*
X81840225Y-50515114D01*
X81840225Y-50515114D02*
X81768796Y-50372257D01*
X81768796Y-50372257D02*
X81625939Y-50300828D01*
X81625939Y-50300828D02*
X81340225Y-50300828D01*
X81340225Y-50300828D02*
X81197367Y-50372257D01*
X81840225Y-51229400D02*
X81697367Y-51300828D01*
X81697367Y-51300828D02*
X81340225Y-51300828D01*
X81340225Y-51300828D02*
X81197367Y-51229400D01*
X81197367Y-51229400D02*
X81125939Y-51086542D01*
X81125939Y-51086542D02*
X81125939Y-50943685D01*
X81125939Y-50943685D02*
X81197367Y-50800828D01*
X81197367Y-50800828D02*
X81340225Y-50729400D01*
X81340225Y-50729400D02*
X81697367Y-50729400D01*
X81697367Y-50729400D02*
X81840225Y-50657971D01*
X82554510Y-51300828D02*
X82554510Y-50300828D01*
X82554510Y-50586542D02*
X82625939Y-50443685D01*
X82625939Y-50443685D02*
X82697368Y-50372257D01*
X82697368Y-50372257D02*
X82840225Y-50300828D01*
X82840225Y-50300828D02*
X82983082Y-50300828D01*
X83268796Y-50300828D02*
X83840224Y-50300828D01*
X83483081Y-51300828D02*
X83483081Y-50015114D01*
X83483081Y-50015114D02*
X83554510Y-49872257D01*
X83554510Y-49872257D02*
X83697367Y-49800828D01*
X83697367Y-49800828D02*
X83840224Y-49800828D01*
X84340224Y-51300828D02*
X84340224Y-50300828D01*
X84340224Y-49800828D02*
X84268796Y-49872257D01*
X84268796Y-49872257D02*
X84340224Y-49943685D01*
X84340224Y-49943685D02*
X84411653Y-49872257D01*
X84411653Y-49872257D02*
X84340224Y-49800828D01*
X84340224Y-49800828D02*
X84340224Y-49943685D01*
X85625939Y-51229400D02*
X85483082Y-51300828D01*
X85483082Y-51300828D02*
X85197368Y-51300828D01*
X85197368Y-51300828D02*
X85054510Y-51229400D01*
X85054510Y-51229400D02*
X84983082Y-51086542D01*
X84983082Y-51086542D02*
X84983082Y-50515114D01*
X84983082Y-50515114D02*
X85054510Y-50372257D01*
X85054510Y-50372257D02*
X85197368Y-50300828D01*
X85197368Y-50300828D02*
X85483082Y-50300828D01*
X85483082Y-50300828D02*
X85625939Y-50372257D01*
X85625939Y-50372257D02*
X85697368Y-50515114D01*
X85697368Y-50515114D02*
X85697368Y-50657971D01*
X85697368Y-50657971D02*
X84983082Y-50800828D01*
X86554510Y-51300828D02*
X86411653Y-51229400D01*
X86411653Y-51229400D02*
X86340224Y-51086542D01*
X86340224Y-51086542D02*
X86340224Y-49800828D01*
X87768796Y-51300828D02*
X87768796Y-49800828D01*
X87768796Y-51229400D02*
X87625938Y-51300828D01*
X87625938Y-51300828D02*
X87340224Y-51300828D01*
X87340224Y-51300828D02*
X87197367Y-51229400D01*
X87197367Y-51229400D02*
X87125938Y-51157971D01*
X87125938Y-51157971D02*
X87054510Y-51015114D01*
X87054510Y-51015114D02*
X87054510Y-50586542D01*
X87054510Y-50586542D02*
X87125938Y-50443685D01*
X87125938Y-50443685D02*
X87197367Y-50372257D01*
X87197367Y-50372257D02*
X87340224Y-50300828D01*
X87340224Y-50300828D02*
X87625938Y-50300828D01*
X87625938Y-50300828D02*
X87768796Y-50372257D01*
X88411653Y-51229400D02*
X88554510Y-51300828D01*
X88554510Y-51300828D02*
X88840224Y-51300828D01*
X88840224Y-51300828D02*
X88983081Y-51229400D01*
X88983081Y-51229400D02*
X89054510Y-51086542D01*
X89054510Y-51086542D02*
X89054510Y-51015114D01*
X89054510Y-51015114D02*
X88983081Y-50872257D01*
X88983081Y-50872257D02*
X88840224Y-50800828D01*
X88840224Y-50800828D02*
X88625939Y-50800828D01*
X88625939Y-50800828D02*
X88483081Y-50729400D01*
X88483081Y-50729400D02*
X88411653Y-50586542D01*
X88411653Y-50586542D02*
X88411653Y-50515114D01*
X88411653Y-50515114D02*
X88483081Y-50372257D01*
X88483081Y-50372257D02*
X88625939Y-50300828D01*
X88625939Y-50300828D02*
X88840224Y-50300828D01*
X88840224Y-50300828D02*
X88983081Y-50372257D01*
X90340225Y-51229400D02*
X90197367Y-51300828D01*
X90197367Y-51300828D02*
X89911653Y-51300828D01*
X89911653Y-51300828D02*
X89768796Y-51229400D01*
X89768796Y-51229400D02*
X89697367Y-51157971D01*
X89697367Y-51157971D02*
X89625939Y-51015114D01*
X89625939Y-51015114D02*
X89625939Y-50586542D01*
X89625939Y-50586542D02*
X89697367Y-50443685D01*
X89697367Y-50443685D02*
X89768796Y-50372257D01*
X89768796Y-50372257D02*
X89911653Y-50300828D01*
X89911653Y-50300828D02*
X90197367Y-50300828D01*
X90197367Y-50300828D02*
X90340225Y-50372257D01*
X90983081Y-51300828D02*
X90983081Y-49800828D01*
X91625939Y-51300828D02*
X91625939Y-50515114D01*
X91625939Y-50515114D02*
X91554510Y-50372257D01*
X91554510Y-50372257D02*
X91411653Y-50300828D01*
X91411653Y-50300828D02*
X91197367Y-50300828D01*
X91197367Y-50300828D02*
X91054510Y-50372257D01*
X91054510Y-50372257D02*
X90983081Y-50443685D01*
X92554510Y-51300828D02*
X92411653Y-51229400D01*
X92411653Y-51229400D02*
X92340224Y-51157971D01*
X92340224Y-51157971D02*
X92268796Y-51015114D01*
X92268796Y-51015114D02*
X92268796Y-50586542D01*
X92268796Y-50586542D02*
X92340224Y-50443685D01*
X92340224Y-50443685D02*
X92411653Y-50372257D01*
X92411653Y-50372257D02*
X92554510Y-50300828D01*
X92554510Y-50300828D02*
X92768796Y-50300828D01*
X92768796Y-50300828D02*
X92911653Y-50372257D01*
X92911653Y-50372257D02*
X92983082Y-50443685D01*
X92983082Y-50443685D02*
X93054510Y-50586542D01*
X93054510Y-50586542D02*
X93054510Y-51015114D01*
X93054510Y-51015114D02*
X92983082Y-51157971D01*
X92983082Y-51157971D02*
X92911653Y-51229400D01*
X92911653Y-51229400D02*
X92768796Y-51300828D01*
X92768796Y-51300828D02*
X92554510Y-51300828D01*
X93911653Y-51300828D02*
X93768796Y-51229400D01*
X93768796Y-51229400D02*
X93697367Y-51157971D01*
X93697367Y-51157971D02*
X93625939Y-51015114D01*
X93625939Y-51015114D02*
X93625939Y-50586542D01*
X93625939Y-50586542D02*
X93697367Y-50443685D01*
X93697367Y-50443685D02*
X93768796Y-50372257D01*
X93768796Y-50372257D02*
X93911653Y-50300828D01*
X93911653Y-50300828D02*
X94125939Y-50300828D01*
X94125939Y-50300828D02*
X94268796Y-50372257D01*
X94268796Y-50372257D02*
X94340225Y-50443685D01*
X94340225Y-50443685D02*
X94411653Y-50586542D01*
X94411653Y-50586542D02*
X94411653Y-51015114D01*
X94411653Y-51015114D02*
X94340225Y-51157971D01*
X94340225Y-51157971D02*
X94268796Y-51229400D01*
X94268796Y-51229400D02*
X94125939Y-51300828D01*
X94125939Y-51300828D02*
X93911653Y-51300828D01*
X95268796Y-51300828D02*
X95125939Y-51229400D01*
X95125939Y-51229400D02*
X95054510Y-51086542D01*
X95054510Y-51086542D02*
X95054510Y-49800828D01*
X95840224Y-51157971D02*
X95911653Y-51229400D01*
X95911653Y-51229400D02*
X95840224Y-51300828D01*
X95840224Y-51300828D02*
X95768796Y-51229400D01*
X95768796Y-51229400D02*
X95840224Y-51157971D01*
X95840224Y-51157971D02*
X95840224Y-51300828D01*
X96768796Y-51300828D02*
X96625939Y-51229400D01*
X96625939Y-51229400D02*
X96554510Y-51157971D01*
X96554510Y-51157971D02*
X96483082Y-51015114D01*
X96483082Y-51015114D02*
X96483082Y-50586542D01*
X96483082Y-50586542D02*
X96554510Y-50443685D01*
X96554510Y-50443685D02*
X96625939Y-50372257D01*
X96625939Y-50372257D02*
X96768796Y-50300828D01*
X96768796Y-50300828D02*
X96983082Y-50300828D01*
X96983082Y-50300828D02*
X97125939Y-50372257D01*
X97125939Y-50372257D02*
X97197368Y-50443685D01*
X97197368Y-50443685D02*
X97268796Y-50586542D01*
X97268796Y-50586542D02*
X97268796Y-51015114D01*
X97268796Y-51015114D02*
X97197368Y-51157971D01*
X97197368Y-51157971D02*
X97125939Y-51229400D01*
X97125939Y-51229400D02*
X96983082Y-51300828D01*
X96983082Y-51300828D02*
X96768796Y-51300828D01*
X97911653Y-51300828D02*
X97911653Y-50300828D01*
X97911653Y-50586542D02*
X97983082Y-50443685D01*
X97983082Y-50443685D02*
X98054511Y-50372257D01*
X98054511Y-50372257D02*
X98197368Y-50300828D01*
X98197368Y-50300828D02*
X98340225Y-50300828D01*
X99483082Y-50300828D02*
X99483082Y-51515114D01*
X99483082Y-51515114D02*
X99411653Y-51657971D01*
X99411653Y-51657971D02*
X99340224Y-51729400D01*
X99340224Y-51729400D02*
X99197367Y-51800828D01*
X99197367Y-51800828D02*
X98983082Y-51800828D01*
X98983082Y-51800828D02*
X98840224Y-51729400D01*
X99483082Y-51229400D02*
X99340224Y-51300828D01*
X99340224Y-51300828D02*
X99054510Y-51300828D01*
X99054510Y-51300828D02*
X98911653Y-51229400D01*
X98911653Y-51229400D02*
X98840224Y-51157971D01*
X98840224Y-51157971D02*
X98768796Y-51015114D01*
X98768796Y-51015114D02*
X98768796Y-50586542D01*
X98768796Y-50586542D02*
X98840224Y-50443685D01*
X98840224Y-50443685D02*
X98911653Y-50372257D01*
X98911653Y-50372257D02*
X99054510Y-50300828D01*
X99054510Y-50300828D02*
X99340224Y-50300828D01*
X99340224Y-50300828D02*
X99483082Y-50372257D01*
X101268796Y-49729400D02*
X99983082Y-51657971D01*
X101768796Y-51300828D02*
X101768796Y-50300828D01*
X101768796Y-50443685D02*
X101840225Y-50372257D01*
X101840225Y-50372257D02*
X101983082Y-50300828D01*
X101983082Y-50300828D02*
X102197368Y-50300828D01*
X102197368Y-50300828D02*
X102340225Y-50372257D01*
X102340225Y-50372257D02*
X102411654Y-50515114D01*
X102411654Y-50515114D02*
X102411654Y-51300828D01*
X102411654Y-50515114D02*
X102483082Y-50372257D01*
X102483082Y-50372257D02*
X102625939Y-50300828D01*
X102625939Y-50300828D02*
X102840225Y-50300828D01*
X102840225Y-50300828D02*
X102983082Y-50372257D01*
X102983082Y-50372257D02*
X103054511Y-50515114D01*
X103054511Y-50515114D02*
X103054511Y-51300828D01*
X104340225Y-51229400D02*
X104197368Y-51300828D01*
X104197368Y-51300828D02*
X103911654Y-51300828D01*
X103911654Y-51300828D02*
X103768796Y-51229400D01*
X103768796Y-51229400D02*
X103697368Y-51086542D01*
X103697368Y-51086542D02*
X103697368Y-50515114D01*
X103697368Y-50515114D02*
X103768796Y-50372257D01*
X103768796Y-50372257D02*
X103911654Y-50300828D01*
X103911654Y-50300828D02*
X104197368Y-50300828D01*
X104197368Y-50300828D02*
X104340225Y-50372257D01*
X104340225Y-50372257D02*
X104411654Y-50515114D01*
X104411654Y-50515114D02*
X104411654Y-50657971D01*
X104411654Y-50657971D02*
X103697368Y-50800828D01*
X104983082Y-51229400D02*
X105125939Y-51300828D01*
X105125939Y-51300828D02*
X105411653Y-51300828D01*
X105411653Y-51300828D02*
X105554510Y-51229400D01*
X105554510Y-51229400D02*
X105625939Y-51086542D01*
X105625939Y-51086542D02*
X105625939Y-51015114D01*
X105625939Y-51015114D02*
X105554510Y-50872257D01*
X105554510Y-50872257D02*
X105411653Y-50800828D01*
X105411653Y-50800828D02*
X105197368Y-50800828D01*
X105197368Y-50800828D02*
X105054510Y-50729400D01*
X105054510Y-50729400D02*
X104983082Y-50586542D01*
X104983082Y-50586542D02*
X104983082Y-50515114D01*
X104983082Y-50515114D02*
X105054510Y-50372257D01*
X105054510Y-50372257D02*
X105197368Y-50300828D01*
X105197368Y-50300828D02*
X105411653Y-50300828D01*
X105411653Y-50300828D02*
X105554510Y-50372257D01*
X106268796Y-51300828D02*
X106268796Y-49800828D01*
X106911654Y-51300828D02*
X106911654Y-50515114D01*
X106911654Y-50515114D02*
X106840225Y-50372257D01*
X106840225Y-50372257D02*
X106697368Y-50300828D01*
X106697368Y-50300828D02*
X106483082Y-50300828D01*
X106483082Y-50300828D02*
X106340225Y-50372257D01*
X106340225Y-50372257D02*
X106268796Y-50443685D01*
X107625939Y-50729400D02*
X108768797Y-50729400D01*
X110125940Y-51300828D02*
X110125940Y-49800828D01*
X110125940Y-51229400D02*
X109983082Y-51300828D01*
X109983082Y-51300828D02*
X109697368Y-51300828D01*
X109697368Y-51300828D02*
X109554511Y-51229400D01*
X109554511Y-51229400D02*
X109483082Y-51157971D01*
X109483082Y-51157971D02*
X109411654Y-51015114D01*
X109411654Y-51015114D02*
X109411654Y-50586542D01*
X109411654Y-50586542D02*
X109483082Y-50443685D01*
X109483082Y-50443685D02*
X109554511Y-50372257D01*
X109554511Y-50372257D02*
X109697368Y-50300828D01*
X109697368Y-50300828D02*
X109983082Y-50300828D01*
X109983082Y-50300828D02*
X110125940Y-50372257D01*
X111411654Y-51229400D02*
X111268797Y-51300828D01*
X111268797Y-51300828D02*
X110983083Y-51300828D01*
X110983083Y-51300828D02*
X110840225Y-51229400D01*
X110840225Y-51229400D02*
X110768797Y-51086542D01*
X110768797Y-51086542D02*
X110768797Y-50515114D01*
X110768797Y-50515114D02*
X110840225Y-50372257D01*
X110840225Y-50372257D02*
X110983083Y-50300828D01*
X110983083Y-50300828D02*
X111268797Y-50300828D01*
X111268797Y-50300828D02*
X111411654Y-50372257D01*
X111411654Y-50372257D02*
X111483083Y-50515114D01*
X111483083Y-50515114D02*
X111483083Y-50657971D01*
X111483083Y-50657971D02*
X110768797Y-50800828D01*
X112125939Y-50300828D02*
X112125939Y-51800828D01*
X112125939Y-50372257D02*
X112268797Y-50300828D01*
X112268797Y-50300828D02*
X112554511Y-50300828D01*
X112554511Y-50300828D02*
X112697368Y-50372257D01*
X112697368Y-50372257D02*
X112768797Y-50443685D01*
X112768797Y-50443685D02*
X112840225Y-50586542D01*
X112840225Y-50586542D02*
X112840225Y-51015114D01*
X112840225Y-51015114D02*
X112768797Y-51157971D01*
X112768797Y-51157971D02*
X112697368Y-51229400D01*
X112697368Y-51229400D02*
X112554511Y-51300828D01*
X112554511Y-51300828D02*
X112268797Y-51300828D01*
X112268797Y-51300828D02*
X112125939Y-51229400D01*
X113268797Y-50300828D02*
X113840225Y-50300828D01*
X113483082Y-49800828D02*
X113483082Y-51086542D01*
X113483082Y-51086542D02*
X113554511Y-51229400D01*
X113554511Y-51229400D02*
X113697368Y-51300828D01*
X113697368Y-51300828D02*
X113840225Y-51300828D01*
X114340225Y-51300828D02*
X114340225Y-49800828D01*
X114983083Y-51300828D02*
X114983083Y-50515114D01*
X114983083Y-50515114D02*
X114911654Y-50372257D01*
X114911654Y-50372257D02*
X114768797Y-50300828D01*
X114768797Y-50300828D02*
X114554511Y-50300828D01*
X114554511Y-50300828D02*
X114411654Y-50372257D01*
X114411654Y-50372257D02*
X114340225Y-50443685D01*
X126800828Y-92945489D02*
X125800828Y-92945489D01*
X125943685Y-92945489D02*
X125872257Y-92874060D01*
X125872257Y-92874060D02*
X125800828Y-92731203D01*
X125800828Y-92731203D02*
X125800828Y-92516917D01*
X125800828Y-92516917D02*
X125872257Y-92374060D01*
X125872257Y-92374060D02*
X126015114Y-92302632D01*
X126015114Y-92302632D02*
X126800828Y-92302632D01*
X126015114Y-92302632D02*
X125872257Y-92231203D01*
X125872257Y-92231203D02*
X125800828Y-92088346D01*
X125800828Y-92088346D02*
X125800828Y-91874060D01*
X125800828Y-91874060D02*
X125872257Y-91731203D01*
X125872257Y-91731203D02*
X126015114Y-91659774D01*
X126015114Y-91659774D02*
X126800828Y-91659774D01*
X126729400Y-90374060D02*
X126800828Y-90516917D01*
X126800828Y-90516917D02*
X126800828Y-90802632D01*
X126800828Y-90802632D02*
X126729400Y-90945489D01*
X126729400Y-90945489D02*
X126586542Y-91016917D01*
X126586542Y-91016917D02*
X126015114Y-91016917D01*
X126015114Y-91016917D02*
X125872257Y-90945489D01*
X125872257Y-90945489D02*
X125800828Y-90802632D01*
X125800828Y-90802632D02*
X125800828Y-90516917D01*
X125800828Y-90516917D02*
X125872257Y-90374060D01*
X125872257Y-90374060D02*
X126015114Y-90302632D01*
X126015114Y-90302632D02*
X126157971Y-90302632D01*
X126157971Y-90302632D02*
X126300828Y-91016917D01*
X126729400Y-89731203D02*
X126800828Y-89588346D01*
X126800828Y-89588346D02*
X126800828Y-89302632D01*
X126800828Y-89302632D02*
X126729400Y-89159775D01*
X126729400Y-89159775D02*
X126586542Y-89088346D01*
X126586542Y-89088346D02*
X126515114Y-89088346D01*
X126515114Y-89088346D02*
X126372257Y-89159775D01*
X126372257Y-89159775D02*
X126300828Y-89302632D01*
X126300828Y-89302632D02*
X126300828Y-89516918D01*
X126300828Y-89516918D02*
X126229400Y-89659775D01*
X126229400Y-89659775D02*
X126086542Y-89731203D01*
X126086542Y-89731203D02*
X126015114Y-89731203D01*
X126015114Y-89731203D02*
X125872257Y-89659775D01*
X125872257Y-89659775D02*
X125800828Y-89516918D01*
X125800828Y-89516918D02*
X125800828Y-89302632D01*
X125800828Y-89302632D02*
X125872257Y-89159775D01*
X126800828Y-88445489D02*
X125300828Y-88445489D01*
X126800828Y-87802632D02*
X126015114Y-87802632D01*
X126015114Y-87802632D02*
X125872257Y-87874060D01*
X125872257Y-87874060D02*
X125800828Y-88016917D01*
X125800828Y-88016917D02*
X125800828Y-88231203D01*
X125800828Y-88231203D02*
X125872257Y-88374060D01*
X125872257Y-88374060D02*
X125943685Y-88445489D01*
X126229400Y-87088346D02*
X126229400Y-85945489D01*
X126800828Y-85231203D02*
X125300828Y-85231203D01*
X125872257Y-85231203D02*
X125800828Y-85088346D01*
X125800828Y-85088346D02*
X125800828Y-84802631D01*
X125800828Y-84802631D02*
X125872257Y-84659774D01*
X125872257Y-84659774D02*
X125943685Y-84588346D01*
X125943685Y-84588346D02*
X126086542Y-84516917D01*
X126086542Y-84516917D02*
X126515114Y-84516917D01*
X126515114Y-84516917D02*
X126657971Y-84588346D01*
X126657971Y-84588346D02*
X126729400Y-84659774D01*
X126729400Y-84659774D02*
X126800828Y-84802631D01*
X126800828Y-84802631D02*
X126800828Y-85088346D01*
X126800828Y-85088346D02*
X126729400Y-85231203D01*
X126800828Y-83231203D02*
X126015114Y-83231203D01*
X126015114Y-83231203D02*
X125872257Y-83302631D01*
X125872257Y-83302631D02*
X125800828Y-83445488D01*
X125800828Y-83445488D02*
X125800828Y-83731203D01*
X125800828Y-83731203D02*
X125872257Y-83874060D01*
X126729400Y-83231203D02*
X126800828Y-83374060D01*
X126800828Y-83374060D02*
X126800828Y-83731203D01*
X126800828Y-83731203D02*
X126729400Y-83874060D01*
X126729400Y-83874060D02*
X126586542Y-83945488D01*
X126586542Y-83945488D02*
X126443685Y-83945488D01*
X126443685Y-83945488D02*
X126300828Y-83874060D01*
X126300828Y-83874060D02*
X126229400Y-83731203D01*
X126229400Y-83731203D02*
X126229400Y-83374060D01*
X126229400Y-83374060D02*
X126157971Y-83231203D01*
X126729400Y-82588345D02*
X126800828Y-82445488D01*
X126800828Y-82445488D02*
X126800828Y-82159774D01*
X126800828Y-82159774D02*
X126729400Y-82016917D01*
X126729400Y-82016917D02*
X126586542Y-81945488D01*
X126586542Y-81945488D02*
X126515114Y-81945488D01*
X126515114Y-81945488D02*
X126372257Y-82016917D01*
X126372257Y-82016917D02*
X126300828Y-82159774D01*
X126300828Y-82159774D02*
X126300828Y-82374060D01*
X126300828Y-82374060D02*
X126229400Y-82516917D01*
X126229400Y-82516917D02*
X126086542Y-82588345D01*
X126086542Y-82588345D02*
X126015114Y-82588345D01*
X126015114Y-82588345D02*
X125872257Y-82516917D01*
X125872257Y-82516917D02*
X125800828Y-82374060D01*
X125800828Y-82374060D02*
X125800828Y-82159774D01*
X125800828Y-82159774D02*
X125872257Y-82016917D01*
X126729400Y-80731202D02*
X126800828Y-80874059D01*
X126800828Y-80874059D02*
X126800828Y-81159774D01*
X126800828Y-81159774D02*
X126729400Y-81302631D01*
X126729400Y-81302631D02*
X126586542Y-81374059D01*
X126586542Y-81374059D02*
X126015114Y-81374059D01*
X126015114Y-81374059D02*
X125872257Y-81302631D01*
X125872257Y-81302631D02*
X125800828Y-81159774D01*
X125800828Y-81159774D02*
X125800828Y-80874059D01*
X125800828Y-80874059D02*
X125872257Y-80731202D01*
X125872257Y-80731202D02*
X126015114Y-80659774D01*
X126015114Y-80659774D02*
X126157971Y-80659774D01*
X126157971Y-80659774D02*
X126300828Y-81374059D01*
X126229400Y-80016917D02*
X126229400Y-78874060D01*
X125800828Y-78302631D02*
X126800828Y-77945488D01*
X126800828Y-77945488D02*
X125800828Y-77588345D01*
X125300828Y-76731202D02*
X125300828Y-76588345D01*
X125300828Y-76588345D02*
X125372257Y-76445488D01*
X125372257Y-76445488D02*
X125443685Y-76374060D01*
X125443685Y-76374060D02*
X125586542Y-76302631D01*
X125586542Y-76302631D02*
X125872257Y-76231202D01*
X125872257Y-76231202D02*
X126229400Y-76231202D01*
X126229400Y-76231202D02*
X126515114Y-76302631D01*
X126515114Y-76302631D02*
X126657971Y-76374060D01*
X126657971Y-76374060D02*
X126729400Y-76445488D01*
X126729400Y-76445488D02*
X126800828Y-76588345D01*
X126800828Y-76588345D02*
X126800828Y-76731202D01*
X126800828Y-76731202D02*
X126729400Y-76874060D01*
X126729400Y-76874060D02*
X126657971Y-76945488D01*
X126657971Y-76945488D02*
X126515114Y-77016917D01*
X126515114Y-77016917D02*
X126229400Y-77088345D01*
X126229400Y-77088345D02*
X125872257Y-77088345D01*
X125872257Y-77088345D02*
X125586542Y-77016917D01*
X125586542Y-77016917D02*
X125443685Y-76945488D01*
X125443685Y-76945488D02*
X125372257Y-76874060D01*
X125372257Y-76874060D02*
X125300828Y-76731202D01*
X126657971Y-75588346D02*
X126729400Y-75516917D01*
X126729400Y-75516917D02*
X126800828Y-75588346D01*
X126800828Y-75588346D02*
X126729400Y-75659774D01*
X126729400Y-75659774D02*
X126657971Y-75588346D01*
X126657971Y-75588346D02*
X126800828Y-75588346D01*
X125443685Y-74945488D02*
X125372257Y-74874060D01*
X125372257Y-74874060D02*
X125300828Y-74731203D01*
X125300828Y-74731203D02*
X125300828Y-74374060D01*
X125300828Y-74374060D02*
X125372257Y-74231203D01*
X125372257Y-74231203D02*
X125443685Y-74159774D01*
X125443685Y-74159774D02*
X125586542Y-74088345D01*
X125586542Y-74088345D02*
X125729400Y-74088345D01*
X125729400Y-74088345D02*
X125943685Y-74159774D01*
X125943685Y-74159774D02*
X126800828Y-75016917D01*
X126800828Y-75016917D02*
X126800828Y-74088345D01*
X111515114Y-87945489D02*
X111515114Y-88445489D01*
X112300828Y-88445489D02*
X110800828Y-88445489D01*
X110800828Y-88445489D02*
X110800828Y-87731203D01*
X112229400Y-86588346D02*
X112300828Y-86731203D01*
X112300828Y-86731203D02*
X112300828Y-87016918D01*
X112300828Y-87016918D02*
X112229400Y-87159775D01*
X112229400Y-87159775D02*
X112086542Y-87231203D01*
X112086542Y-87231203D02*
X111515114Y-87231203D01*
X111515114Y-87231203D02*
X111372257Y-87159775D01*
X111372257Y-87159775D02*
X111300828Y-87016918D01*
X111300828Y-87016918D02*
X111300828Y-86731203D01*
X111300828Y-86731203D02*
X111372257Y-86588346D01*
X111372257Y-86588346D02*
X111515114Y-86516918D01*
X111515114Y-86516918D02*
X111657971Y-86516918D01*
X111657971Y-86516918D02*
X111800828Y-87231203D01*
X112300828Y-85231204D02*
X111515114Y-85231204D01*
X111515114Y-85231204D02*
X111372257Y-85302632D01*
X111372257Y-85302632D02*
X111300828Y-85445489D01*
X111300828Y-85445489D02*
X111300828Y-85731204D01*
X111300828Y-85731204D02*
X111372257Y-85874061D01*
X112229400Y-85231204D02*
X112300828Y-85374061D01*
X112300828Y-85374061D02*
X112300828Y-85731204D01*
X112300828Y-85731204D02*
X112229400Y-85874061D01*
X112229400Y-85874061D02*
X112086542Y-85945489D01*
X112086542Y-85945489D02*
X111943685Y-85945489D01*
X111943685Y-85945489D02*
X111800828Y-85874061D01*
X111800828Y-85874061D02*
X111729400Y-85731204D01*
X111729400Y-85731204D02*
X111729400Y-85374061D01*
X111729400Y-85374061D02*
X111657971Y-85231204D01*
X111300828Y-84731203D02*
X111300828Y-84159775D01*
X110800828Y-84516918D02*
X112086542Y-84516918D01*
X112086542Y-84516918D02*
X112229400Y-84445489D01*
X112229400Y-84445489D02*
X112300828Y-84302632D01*
X112300828Y-84302632D02*
X112300828Y-84159775D01*
X112300828Y-83659775D02*
X110800828Y-83659775D01*
X112300828Y-83016918D02*
X111515114Y-83016918D01*
X111515114Y-83016918D02*
X111372257Y-83088346D01*
X111372257Y-83088346D02*
X111300828Y-83231203D01*
X111300828Y-83231203D02*
X111300828Y-83445489D01*
X111300828Y-83445489D02*
X111372257Y-83588346D01*
X111372257Y-83588346D02*
X111443685Y-83659775D01*
X112229400Y-81731203D02*
X112300828Y-81874060D01*
X112300828Y-81874060D02*
X112300828Y-82159775D01*
X112300828Y-82159775D02*
X112229400Y-82302632D01*
X112229400Y-82302632D02*
X112086542Y-82374060D01*
X112086542Y-82374060D02*
X111515114Y-82374060D01*
X111515114Y-82374060D02*
X111372257Y-82302632D01*
X111372257Y-82302632D02*
X111300828Y-82159775D01*
X111300828Y-82159775D02*
X111300828Y-81874060D01*
X111300828Y-81874060D02*
X111372257Y-81731203D01*
X111372257Y-81731203D02*
X111515114Y-81659775D01*
X111515114Y-81659775D02*
X111657971Y-81659775D01*
X111657971Y-81659775D02*
X111800828Y-82374060D01*
X112300828Y-81016918D02*
X111300828Y-81016918D01*
X111586542Y-81016918D02*
X111443685Y-80945489D01*
X111443685Y-80945489D02*
X111372257Y-80874061D01*
X111372257Y-80874061D02*
X111300828Y-80731203D01*
X111300828Y-80731203D02*
X111300828Y-80588346D01*
X111300828Y-79088347D02*
X112300828Y-78802633D01*
X112300828Y-78802633D02*
X111586542Y-78516918D01*
X111586542Y-78516918D02*
X112300828Y-78231204D01*
X112300828Y-78231204D02*
X111300828Y-77945490D01*
X110729400Y-76302632D02*
X112657971Y-77588346D01*
X110800828Y-74802632D02*
X112300828Y-74445489D01*
X112300828Y-74445489D02*
X111229400Y-74159775D01*
X111229400Y-74159775D02*
X112300828Y-73874060D01*
X112300828Y-73874060D02*
X110800828Y-73516918D01*
X112300828Y-72945489D02*
X111300828Y-72945489D01*
X110800828Y-72945489D02*
X110872257Y-73016917D01*
X110872257Y-73016917D02*
X110943685Y-72945489D01*
X110943685Y-72945489D02*
X110872257Y-72874060D01*
X110872257Y-72874060D02*
X110800828Y-72945489D01*
X110800828Y-72945489D02*
X110943685Y-72945489D01*
X111515114Y-71731203D02*
X111515114Y-72231203D01*
X112300828Y-72231203D02*
X110800828Y-72231203D01*
X110800828Y-72231203D02*
X110800828Y-71516917D01*
X112300828Y-70945489D02*
X111300828Y-70945489D01*
X110800828Y-70945489D02*
X110872257Y-71016917D01*
X110872257Y-71016917D02*
X110943685Y-70945489D01*
X110943685Y-70945489D02*
X110872257Y-70874060D01*
X110872257Y-70874060D02*
X110800828Y-70945489D01*
X110800828Y-70945489D02*
X110943685Y-70945489D01*
X79300828Y-91945489D02*
X77800828Y-91945489D01*
X78515114Y-91945489D02*
X78515114Y-91088346D01*
X79300828Y-91088346D02*
X77800828Y-91088346D01*
X79229400Y-89802631D02*
X79300828Y-89945488D01*
X79300828Y-89945488D02*
X79300828Y-90231203D01*
X79300828Y-90231203D02*
X79229400Y-90374060D01*
X79229400Y-90374060D02*
X79086542Y-90445488D01*
X79086542Y-90445488D02*
X78515114Y-90445488D01*
X78515114Y-90445488D02*
X78372257Y-90374060D01*
X78372257Y-90374060D02*
X78300828Y-90231203D01*
X78300828Y-90231203D02*
X78300828Y-89945488D01*
X78300828Y-89945488D02*
X78372257Y-89802631D01*
X78372257Y-89802631D02*
X78515114Y-89731203D01*
X78515114Y-89731203D02*
X78657971Y-89731203D01*
X78657971Y-89731203D02*
X78800828Y-90445488D01*
X79300828Y-88874060D02*
X79229400Y-89016917D01*
X79229400Y-89016917D02*
X79086542Y-89088346D01*
X79086542Y-89088346D02*
X77800828Y-89088346D01*
X78300828Y-88516917D02*
X78300828Y-87945489D01*
X77800828Y-88302632D02*
X79086542Y-88302632D01*
X79086542Y-88302632D02*
X79229400Y-88231203D01*
X79229400Y-88231203D02*
X79300828Y-88088346D01*
X79300828Y-88088346D02*
X79300828Y-87945489D01*
X79229400Y-86874060D02*
X79300828Y-87016917D01*
X79300828Y-87016917D02*
X79300828Y-87302632D01*
X79300828Y-87302632D02*
X79229400Y-87445489D01*
X79229400Y-87445489D02*
X79086542Y-87516917D01*
X79086542Y-87516917D02*
X78515114Y-87516917D01*
X78515114Y-87516917D02*
X78372257Y-87445489D01*
X78372257Y-87445489D02*
X78300828Y-87302632D01*
X78300828Y-87302632D02*
X78300828Y-87016917D01*
X78300828Y-87016917D02*
X78372257Y-86874060D01*
X78372257Y-86874060D02*
X78515114Y-86802632D01*
X78515114Y-86802632D02*
X78657971Y-86802632D01*
X78657971Y-86802632D02*
X78800828Y-87516917D01*
X79229400Y-85516918D02*
X79300828Y-85659775D01*
X79300828Y-85659775D02*
X79300828Y-85945489D01*
X79300828Y-85945489D02*
X79229400Y-86088346D01*
X79229400Y-86088346D02*
X79157971Y-86159775D01*
X79157971Y-86159775D02*
X79015114Y-86231203D01*
X79015114Y-86231203D02*
X78586542Y-86231203D01*
X78586542Y-86231203D02*
X78443685Y-86159775D01*
X78443685Y-86159775D02*
X78372257Y-86088346D01*
X78372257Y-86088346D02*
X78300828Y-85945489D01*
X78300828Y-85945489D02*
X78300828Y-85659775D01*
X78300828Y-85659775D02*
X78372257Y-85516918D01*
X77800828Y-83874061D02*
X79300828Y-83516918D01*
X79300828Y-83516918D02*
X78229400Y-83231204D01*
X78229400Y-83231204D02*
X79300828Y-82945489D01*
X79300828Y-82945489D02*
X77800828Y-82588347D01*
X79300828Y-82016918D02*
X78300828Y-82016918D01*
X77800828Y-82016918D02*
X77872257Y-82088346D01*
X77872257Y-82088346D02*
X77943685Y-82016918D01*
X77943685Y-82016918D02*
X77872257Y-81945489D01*
X77872257Y-81945489D02*
X77800828Y-82016918D01*
X77800828Y-82016918D02*
X77943685Y-82016918D01*
X78300828Y-81516917D02*
X78300828Y-80945489D01*
X79300828Y-81302632D02*
X78015114Y-81302632D01*
X78015114Y-81302632D02*
X77872257Y-81231203D01*
X77872257Y-81231203D02*
X77800828Y-81088346D01*
X77800828Y-81088346D02*
X77800828Y-80945489D01*
X79300828Y-80445489D02*
X78300828Y-80445489D01*
X77800828Y-80445489D02*
X77872257Y-80516917D01*
X77872257Y-80516917D02*
X77943685Y-80445489D01*
X77943685Y-80445489D02*
X77872257Y-80374060D01*
X77872257Y-80374060D02*
X77800828Y-80445489D01*
X77800828Y-80445489D02*
X77943685Y-80445489D01*
X79300828Y-77874060D02*
X79300828Y-78588346D01*
X79300828Y-78588346D02*
X77800828Y-78588346D01*
X79300828Y-77159774D02*
X79229400Y-77302631D01*
X79229400Y-77302631D02*
X79157971Y-77374060D01*
X79157971Y-77374060D02*
X79015114Y-77445488D01*
X79015114Y-77445488D02*
X78586542Y-77445488D01*
X78586542Y-77445488D02*
X78443685Y-77374060D01*
X78443685Y-77374060D02*
X78372257Y-77302631D01*
X78372257Y-77302631D02*
X78300828Y-77159774D01*
X78300828Y-77159774D02*
X78300828Y-76945488D01*
X78300828Y-76945488D02*
X78372257Y-76802631D01*
X78372257Y-76802631D02*
X78443685Y-76731203D01*
X78443685Y-76731203D02*
X78586542Y-76659774D01*
X78586542Y-76659774D02*
X79015114Y-76659774D01*
X79015114Y-76659774D02*
X79157971Y-76731203D01*
X79157971Y-76731203D02*
X79229400Y-76802631D01*
X79229400Y-76802631D02*
X79300828Y-76945488D01*
X79300828Y-76945488D02*
X79300828Y-77159774D01*
X79300828Y-76016917D02*
X78300828Y-76016917D01*
X78586542Y-76016917D02*
X78443685Y-75945488D01*
X78443685Y-75945488D02*
X78372257Y-75874060D01*
X78372257Y-75874060D02*
X78300828Y-75731202D01*
X78300828Y-75731202D02*
X78300828Y-75588345D01*
X79300828Y-74445489D02*
X78515114Y-74445489D01*
X78515114Y-74445489D02*
X78372257Y-74516917D01*
X78372257Y-74516917D02*
X78300828Y-74659774D01*
X78300828Y-74659774D02*
X78300828Y-74945489D01*
X78300828Y-74945489D02*
X78372257Y-75088346D01*
X79229400Y-74445489D02*
X79300828Y-74588346D01*
X79300828Y-74588346D02*
X79300828Y-74945489D01*
X79300828Y-74945489D02*
X79229400Y-75088346D01*
X79229400Y-75088346D02*
X79086542Y-75159774D01*
X79086542Y-75159774D02*
X78943685Y-75159774D01*
X78943685Y-75159774D02*
X78800828Y-75088346D01*
X78800828Y-75088346D02*
X78729400Y-74945489D01*
X78729400Y-74945489D02*
X78729400Y-74588346D01*
X78729400Y-74588346D02*
X78657971Y-74445489D01*
X77800828Y-72731203D02*
X77800828Y-71802631D01*
X77800828Y-71802631D02*
X78372257Y-72302631D01*
X78372257Y-72302631D02*
X78372257Y-72088346D01*
X78372257Y-72088346D02*
X78443685Y-71945489D01*
X78443685Y-71945489D02*
X78515114Y-71874060D01*
X78515114Y-71874060D02*
X78657971Y-71802631D01*
X78657971Y-71802631D02*
X79015114Y-71802631D01*
X79015114Y-71802631D02*
X79157971Y-71874060D01*
X79157971Y-71874060D02*
X79229400Y-71945489D01*
X79229400Y-71945489D02*
X79300828Y-72088346D01*
X79300828Y-72088346D02*
X79300828Y-72516917D01*
X79300828Y-72516917D02*
X79229400Y-72659774D01*
X79229400Y-72659774D02*
X79157971Y-72731203D01*
X77943685Y-71231203D02*
X77872257Y-71159775D01*
X77872257Y-71159775D02*
X77800828Y-71016918D01*
X77800828Y-71016918D02*
X77800828Y-70659775D01*
X77800828Y-70659775D02*
X77872257Y-70516918D01*
X77872257Y-70516918D02*
X77943685Y-70445489D01*
X77943685Y-70445489D02*
X78086542Y-70374060D01*
X78086542Y-70374060D02*
X78229400Y-70374060D01*
X78229400Y-70374060D02*
X78443685Y-70445489D01*
X78443685Y-70445489D02*
X79300828Y-71302632D01*
X79300828Y-71302632D02*
X79300828Y-70374060D01*
X77800828Y-68802632D02*
X79300828Y-68302632D01*
X79300828Y-68302632D02*
X77800828Y-67802632D01*
X77800828Y-67445490D02*
X77800828Y-66516918D01*
X77800828Y-66516918D02*
X78372257Y-67016918D01*
X78372257Y-67016918D02*
X78372257Y-66802633D01*
X78372257Y-66802633D02*
X78443685Y-66659776D01*
X78443685Y-66659776D02*
X78515114Y-66588347D01*
X78515114Y-66588347D02*
X78657971Y-66516918D01*
X78657971Y-66516918D02*
X79015114Y-66516918D01*
X79015114Y-66516918D02*
X79157971Y-66588347D01*
X79157971Y-66588347D02*
X79229400Y-66659776D01*
X79229400Y-66659776D02*
X79300828Y-66802633D01*
X79300828Y-66802633D02*
X79300828Y-67231204D01*
X79300828Y-67231204D02*
X79229400Y-67374061D01*
X79229400Y-67374061D02*
X79157971Y-67445490D01*
X108983082Y-104372257D02*
X108911653Y-104300828D01*
X108911653Y-104300828D02*
X108768796Y-104086542D01*
X108768796Y-104086542D02*
X108697368Y-103943685D01*
X108697368Y-103943685D02*
X108625939Y-103729400D01*
X108625939Y-103729400D02*
X108554510Y-103372257D01*
X108554510Y-103372257D02*
X108554510Y-103086542D01*
X108554510Y-103086542D02*
X108625939Y-102729400D01*
X108625939Y-102729400D02*
X108697368Y-102515114D01*
X108697368Y-102515114D02*
X108768796Y-102372257D01*
X108768796Y-102372257D02*
X108911653Y-102157971D01*
X108911653Y-102157971D02*
X108983082Y-102086542D01*
X109554510Y-102300828D02*
X109554510Y-103515114D01*
X109554510Y-103515114D02*
X109625939Y-103657971D01*
X109625939Y-103657971D02*
X109697368Y-103729400D01*
X109697368Y-103729400D02*
X109840225Y-103800828D01*
X109840225Y-103800828D02*
X110125939Y-103800828D01*
X110125939Y-103800828D02*
X110268796Y-103729400D01*
X110268796Y-103729400D02*
X110340225Y-103657971D01*
X110340225Y-103657971D02*
X110411653Y-103515114D01*
X110411653Y-103515114D02*
X110411653Y-102300828D01*
X111054511Y-103729400D02*
X111268797Y-103800828D01*
X111268797Y-103800828D02*
X111625939Y-103800828D01*
X111625939Y-103800828D02*
X111768797Y-103729400D01*
X111768797Y-103729400D02*
X111840225Y-103657971D01*
X111840225Y-103657971D02*
X111911654Y-103515114D01*
X111911654Y-103515114D02*
X111911654Y-103372257D01*
X111911654Y-103372257D02*
X111840225Y-103229400D01*
X111840225Y-103229400D02*
X111768797Y-103157971D01*
X111768797Y-103157971D02*
X111625939Y-103086542D01*
X111625939Y-103086542D02*
X111340225Y-103015114D01*
X111340225Y-103015114D02*
X111197368Y-102943685D01*
X111197368Y-102943685D02*
X111125939Y-102872257D01*
X111125939Y-102872257D02*
X111054511Y-102729400D01*
X111054511Y-102729400D02*
X111054511Y-102586542D01*
X111054511Y-102586542D02*
X111125939Y-102443685D01*
X111125939Y-102443685D02*
X111197368Y-102372257D01*
X111197368Y-102372257D02*
X111340225Y-102300828D01*
X111340225Y-102300828D02*
X111697368Y-102300828D01*
X111697368Y-102300828D02*
X111911654Y-102372257D01*
X113054510Y-103015114D02*
X113268796Y-103086542D01*
X113268796Y-103086542D02*
X113340225Y-103157971D01*
X113340225Y-103157971D02*
X113411653Y-103300828D01*
X113411653Y-103300828D02*
X113411653Y-103515114D01*
X113411653Y-103515114D02*
X113340225Y-103657971D01*
X113340225Y-103657971D02*
X113268796Y-103729400D01*
X113268796Y-103729400D02*
X113125939Y-103800828D01*
X113125939Y-103800828D02*
X112554510Y-103800828D01*
X112554510Y-103800828D02*
X112554510Y-102300828D01*
X112554510Y-102300828D02*
X113054510Y-102300828D01*
X113054510Y-102300828D02*
X113197368Y-102372257D01*
X113197368Y-102372257D02*
X113268796Y-102443685D01*
X113268796Y-102443685D02*
X113340225Y-102586542D01*
X113340225Y-102586542D02*
X113340225Y-102729400D01*
X113340225Y-102729400D02*
X113268796Y-102872257D01*
X113268796Y-102872257D02*
X113197368Y-102943685D01*
X113197368Y-102943685D02*
X113054510Y-103015114D01*
X113054510Y-103015114D02*
X112554510Y-103015114D01*
X113911653Y-104372257D02*
X113983082Y-104300828D01*
X113983082Y-104300828D02*
X114125939Y-104086542D01*
X114125939Y-104086542D02*
X114197368Y-103943685D01*
X114197368Y-103943685D02*
X114268796Y-103729400D01*
X114268796Y-103729400D02*
X114340225Y-103372257D01*
X114340225Y-103372257D02*
X114340225Y-103086542D01*
X114340225Y-103086542D02*
X114268796Y-102729400D01*
X114268796Y-102729400D02*
X114197368Y-102515114D01*
X114197368Y-102515114D02*
X114125939Y-102372257D01*
X114125939Y-102372257D02*
X113983082Y-102157971D01*
X113983082Y-102157971D02*
X113911653Y-102086542D01*
X75983082Y-104372257D02*
X75911653Y-104300828D01*
X75911653Y-104300828D02*
X75768796Y-104086542D01*
X75768796Y-104086542D02*
X75697368Y-103943685D01*
X75697368Y-103943685D02*
X75625939Y-103729400D01*
X75625939Y-103729400D02*
X75554510Y-103372257D01*
X75554510Y-103372257D02*
X75554510Y-103086542D01*
X75554510Y-103086542D02*
X75625939Y-102729400D01*
X75625939Y-102729400D02*
X75697368Y-102515114D01*
X75697368Y-102515114D02*
X75768796Y-102372257D01*
X75768796Y-102372257D02*
X75911653Y-102157971D01*
X75911653Y-102157971D02*
X75983082Y-102086542D01*
X76554510Y-102300828D02*
X76554510Y-103515114D01*
X76554510Y-103515114D02*
X76625939Y-103657971D01*
X76625939Y-103657971D02*
X76697368Y-103729400D01*
X76697368Y-103729400D02*
X76840225Y-103800828D01*
X76840225Y-103800828D02*
X77125939Y-103800828D01*
X77125939Y-103800828D02*
X77268796Y-103729400D01*
X77268796Y-103729400D02*
X77340225Y-103657971D01*
X77340225Y-103657971D02*
X77411653Y-103515114D01*
X77411653Y-103515114D02*
X77411653Y-102300828D01*
X78054511Y-103729400D02*
X78268797Y-103800828D01*
X78268797Y-103800828D02*
X78625939Y-103800828D01*
X78625939Y-103800828D02*
X78768797Y-103729400D01*
X78768797Y-103729400D02*
X78840225Y-103657971D01*
X78840225Y-103657971D02*
X78911654Y-103515114D01*
X78911654Y-103515114D02*
X78911654Y-103372257D01*
X78911654Y-103372257D02*
X78840225Y-103229400D01*
X78840225Y-103229400D02*
X78768797Y-103157971D01*
X78768797Y-103157971D02*
X78625939Y-103086542D01*
X78625939Y-103086542D02*
X78340225Y-103015114D01*
X78340225Y-103015114D02*
X78197368Y-102943685D01*
X78197368Y-102943685D02*
X78125939Y-102872257D01*
X78125939Y-102872257D02*
X78054511Y-102729400D01*
X78054511Y-102729400D02*
X78054511Y-102586542D01*
X78054511Y-102586542D02*
X78125939Y-102443685D01*
X78125939Y-102443685D02*
X78197368Y-102372257D01*
X78197368Y-102372257D02*
X78340225Y-102300828D01*
X78340225Y-102300828D02*
X78697368Y-102300828D01*
X78697368Y-102300828D02*
X78911654Y-102372257D01*
X80054510Y-103015114D02*
X80268796Y-103086542D01*
X80268796Y-103086542D02*
X80340225Y-103157971D01*
X80340225Y-103157971D02*
X80411653Y-103300828D01*
X80411653Y-103300828D02*
X80411653Y-103515114D01*
X80411653Y-103515114D02*
X80340225Y-103657971D01*
X80340225Y-103657971D02*
X80268796Y-103729400D01*
X80268796Y-103729400D02*
X80125939Y-103800828D01*
X80125939Y-103800828D02*
X79554510Y-103800828D01*
X79554510Y-103800828D02*
X79554510Y-102300828D01*
X79554510Y-102300828D02*
X80054510Y-102300828D01*
X80054510Y-102300828D02*
X80197368Y-102372257D01*
X80197368Y-102372257D02*
X80268796Y-102443685D01*
X80268796Y-102443685D02*
X80340225Y-102586542D01*
X80340225Y-102586542D02*
X80340225Y-102729400D01*
X80340225Y-102729400D02*
X80268796Y-102872257D01*
X80268796Y-102872257D02*
X80197368Y-102943685D01*
X80197368Y-102943685D02*
X80054510Y-103015114D01*
X80054510Y-103015114D02*
X79554510Y-103015114D01*
X80911653Y-104372257D02*
X80983082Y-104300828D01*
X80983082Y-104300828D02*
X81125939Y-104086542D01*
X81125939Y-104086542D02*
X81197368Y-103943685D01*
X81197368Y-103943685D02*
X81268796Y-103729400D01*
X81268796Y-103729400D02*
X81340225Y-103372257D01*
X81340225Y-103372257D02*
X81340225Y-103086542D01*
X81340225Y-103086542D02*
X81268796Y-102729400D01*
X81268796Y-102729400D02*
X81197368Y-102515114D01*
X81197368Y-102515114D02*
X81125939Y-102372257D01*
X81125939Y-102372257D02*
X80983082Y-102157971D01*
X80983082Y-102157971D02*
X80911653Y-102086542D01*
D11*
X90066666Y-105724819D02*
X90066666Y-106439104D01*
X90066666Y-106439104D02*
X90019047Y-106581961D01*
X90019047Y-106581961D02*
X89923809Y-106677200D01*
X89923809Y-106677200D02*
X89780952Y-106724819D01*
X89780952Y-106724819D02*
X89685714Y-106724819D01*
X90495238Y-105820057D02*
X90542857Y-105772438D01*
X90542857Y-105772438D02*
X90638095Y-105724819D01*
X90638095Y-105724819D02*
X90876190Y-105724819D01*
X90876190Y-105724819D02*
X90971428Y-105772438D01*
X90971428Y-105772438D02*
X91019047Y-105820057D01*
X91019047Y-105820057D02*
X91066666Y-105915295D01*
X91066666Y-105915295D02*
X91066666Y-106010533D01*
X91066666Y-106010533D02*
X91019047Y-106153390D01*
X91019047Y-106153390D02*
X90447619Y-106724819D01*
X90447619Y-106724819D02*
X91066666Y-106724819D01*
X67166666Y-105764819D02*
X67166666Y-106479104D01*
X67166666Y-106479104D02*
X67119047Y-106621961D01*
X67119047Y-106621961D02*
X67023809Y-106717200D01*
X67023809Y-106717200D02*
X66880952Y-106764819D01*
X66880952Y-106764819D02*
X66785714Y-106764819D01*
X68166666Y-106764819D02*
X67595238Y-106764819D01*
X67880952Y-106764819D02*
X67880952Y-105764819D01*
X67880952Y-105764819D02*
X67785714Y-105907676D01*
X67785714Y-105907676D02*
X67690476Y-106002914D01*
X67690476Y-106002914D02*
X67595238Y-106050533D01*
X110115714Y-106729104D02*
X110591904Y-106729104D01*
X110020476Y-107014819D02*
X110353809Y-106014819D01*
X110353809Y-106014819D02*
X110687142Y-107014819D01*
X111544285Y-107014819D02*
X110972857Y-107014819D01*
X111258571Y-107014819D02*
X111258571Y-106014819D01*
X111258571Y-106014819D02*
X111163333Y-106157676D01*
X111163333Y-106157676D02*
X111068095Y-106252914D01*
X111068095Y-106252914D02*
X110972857Y-106300533D01*
D12*
%TO.C,J2*%
X91730000Y-102230000D02*
X91730000Y-58990000D01*
X91730000Y-102230000D02*
X89070000Y-102230000D01*
X91730000Y-58990000D02*
X89070000Y-58990000D01*
X90400000Y-104830000D02*
X89070000Y-104830000D01*
X89070000Y-104830000D02*
X89070000Y-103500000D01*
X89070000Y-102230000D02*
X89070000Y-58990000D01*
%TO.C,J1*%
X68830000Y-102270000D02*
X68830000Y-59030000D01*
X68830000Y-102270000D02*
X66170000Y-102270000D01*
X68830000Y-59030000D02*
X66170000Y-59030000D01*
X67500000Y-104870000D02*
X66170000Y-104870000D01*
X66170000Y-104870000D02*
X66170000Y-103540000D01*
X66170000Y-102270000D02*
X66170000Y-59030000D01*
%TO.C,A1*%
X99290000Y-57030000D02*
G75*
G02*
X101940000Y-54380000I2650000J0D01*
G01*
X101940000Y-105400000D02*
G75*
G02*
X99290000Y-102750000I0J2650000D01*
G01*
X119720000Y-54380000D02*
G75*
G02*
X122370000Y-57030000I0J-2650000D01*
G01*
X122370000Y-102750000D02*
G75*
G02*
X119720000Y-105400000I-2650000J0D01*
G01*
X99290000Y-102750000D02*
X99290000Y-57030000D01*
X101940000Y-54380000D02*
X119720000Y-54380000D01*
X101940000Y-105400000D02*
X119720000Y-105400000D01*
X122370000Y-102750000D02*
X122370000Y-57030000D01*
X122690000Y-97940000D02*
X122690000Y-99940000D01*
%TD*%
M02*
