%TF.GenerationSoftware,KiCad,Pcbnew,8.0.6-8.0.6-0~ubuntu24.04.1*%
%TF.CreationDate,2025-03-25T09:16:12-04:00*%
%TF.ProjectId,mesh-depth,6d657368-2d64-4657-9074-682e6b696361,rev?*%
%TF.SameCoordinates,Original*%
%TF.FileFunction,Copper,L1,Top*%
%TF.FilePolarity,Positive*%
%FSLAX46Y46*%
G04 Gerber Fmt 4.6, Leading zero omitted, Abs format (unit mm)*
G04 Created by KiCad (PCBNEW 8.0.6-8.0.6-0~ubuntu24.04.1) date 2025-03-25 09:16:12*
%MOMM*%
%LPD*%
G01*
G04 APERTURE LIST*
G04 Aperture macros list*
%AMRoundRect*
0 Rectangle with rounded corners*
0 $1 Rounding radius*
0 $2 $3 $4 $5 $6 $7 $8 $9 X,Y pos of 4 corners*
0 Add a 4 corners polygon primitive as box body*
4,1,4,$2,$3,$4,$5,$6,$7,$8,$9,$2,$3,0*
0 Add four circle primitives for the rounded corners*
1,1,$1+$1,$2,$3*
1,1,$1+$1,$4,$5*
1,1,$1+$1,$6,$7*
1,1,$1+$1,$8,$9*
0 Add four rect primitives between the rounded corners*
20,1,$1+$1,$2,$3,$4,$5,0*
20,1,$1+$1,$4,$5,$6,$7,0*
20,1,$1+$1,$6,$7,$8,$9,0*
20,1,$1+$1,$8,$9,$2,$3,0*%
G04 Aperture macros list end*
%TA.AperFunction,ComponentPad*%
%ADD10R,2.600000X2.600000*%
%TD*%
%TA.AperFunction,ComponentPad*%
%ADD11C,2.600000*%
%TD*%
%TA.AperFunction,ComponentPad*%
%ADD12O,1.350000X1.350000*%
%TD*%
%TA.AperFunction,ComponentPad*%
%ADD13R,1.350000X1.350000*%
%TD*%
%TA.AperFunction,ComponentPad*%
%ADD14O,1.700000X1.700000*%
%TD*%
%TA.AperFunction,ComponentPad*%
%ADD15R,1.700000X1.700000*%
%TD*%
%TA.AperFunction,ComponentPad*%
%ADD16C,1.400000*%
%TD*%
%TA.AperFunction,ComponentPad*%
%ADD17O,1.400000X1.400000*%
%TD*%
%TA.AperFunction,ComponentPad*%
%ADD18R,1.800000X1.800000*%
%TD*%
%TA.AperFunction,ComponentPad*%
%ADD19C,1.800000*%
%TD*%
%TA.AperFunction,ComponentPad*%
%ADD20C,2.000000*%
%TD*%
%TA.AperFunction,SMDPad,CuDef*%
%ADD21RoundRect,0.237500X0.250000X0.237500X-0.250000X0.237500X-0.250000X-0.237500X0.250000X-0.237500X0*%
%TD*%
%TA.AperFunction,ComponentPad*%
%ADD22R,1.600000X1.600000*%
%TD*%
%TA.AperFunction,ComponentPad*%
%ADD23C,1.600000*%
%TD*%
%TA.AperFunction,SMDPad,CuDef*%
%ADD24RoundRect,0.237500X0.237500X-0.250000X0.237500X0.250000X-0.237500X0.250000X-0.237500X-0.250000X0*%
%TD*%
%TA.AperFunction,SMDPad,CuDef*%
%ADD25RoundRect,0.237500X-0.250000X-0.237500X0.250000X-0.237500X0.250000X0.237500X-0.250000X0.237500X0*%
%TD*%
%TA.AperFunction,SMDPad,CuDef*%
%ADD26RoundRect,0.237500X-0.237500X0.250000X-0.237500X-0.250000X0.237500X-0.250000X0.237500X0.250000X0*%
%TD*%
%TA.AperFunction,ComponentPad*%
%ADD27C,5.000000*%
%TD*%
%TA.AperFunction,ViaPad*%
%ADD28C,0.800000*%
%TD*%
%TA.AperFunction,Conductor*%
%ADD29C,0.700000*%
%TD*%
%TA.AperFunction,Conductor*%
%ADD30C,0.400000*%
%TD*%
%TA.AperFunction,Conductor*%
%ADD31C,0.250000*%
%TD*%
G04 APERTURE END LIST*
D10*
%TO.P,J2,1,Pin_1*%
%TO.N,MESH_BAT*%
X45600000Y-65400000D03*
D11*
%TO.P,J2,2,Pin_2*%
%TO.N,GND*%
X50600000Y-65400000D03*
%TD*%
D12*
%TO.P,U2,1,GND*%
%TO.N,GND*%
X74500000Y-3000000D03*
%TO.P,U2,2,VCC*%
%TO.N,+3V3*%
X72500000Y-3000000D03*
%TO.P,U2,3,SDA*%
%TO.N,SDA*%
X70500000Y-3000000D03*
D13*
%TO.P,U2,4,SCL*%
%TO.N,SCL*%
X68500000Y-3000000D03*
%TD*%
D14*
%TO.P,J10,1,Pin_1*%
%TO.N,+3V3*%
X83690000Y-10500000D03*
%TO.P,J10,2,Pin_2*%
%TO.N,GND*%
X86230000Y-10500000D03*
%TO.P,J10,3,Pin_3*%
%TO.N,SCL*%
X88770000Y-10500000D03*
D15*
%TO.P,J10,4,Pin_4*%
%TO.N,SDA*%
X91310000Y-10500000D03*
%TD*%
%TO.P,U1,1,VDD*%
%TO.N,MESH_BAT*%
X81050000Y-52800000D03*
D14*
%TO.P,U1,2,GND*%
%TO.N,GND*%
X81050000Y-50260000D03*
%TO.P,U1,3,DELAY*%
%TO.N,Net-(J3-Pin_2)*%
X81050000Y-47720000D03*
%TO.P,U1,4,DRIVE*%
%TO.N,V_TIMER*%
X81050000Y-45180000D03*
%TO.P,U1,5,DONE*%
%TO.N,DONE*%
X81050000Y-42640000D03*
%TD*%
D16*
%TO.P,R19,1*%
%TO.N,DONE*%
X59120000Y-56250000D03*
D17*
%TO.P,R19,2*%
%TO.N,GND*%
X51500000Y-56250000D03*
%TD*%
D18*
%TO.P,D1,1,K*%
%TO.N,GND*%
X5500000Y-35000000D03*
D19*
%TO.P,D1,2,A*%
%TO.N,Net-(D1-A)*%
X8040000Y-35000000D03*
%TD*%
D16*
%TO.P,R6,1*%
%TO.N,+3V3*%
X51500000Y-51500000D03*
D17*
%TO.P,R6,2*%
%TO.N,ONEWIRE*%
X59120000Y-51500000D03*
%TD*%
D20*
%TO.P,SW1,1,1*%
%TO.N,BUTTON*%
X86750000Y250000D03*
X93250000Y250000D03*
%TO.P,SW1,2,2*%
%TO.N,GND*%
X86750000Y-4250000D03*
X93250000Y-4250000D03*
%TD*%
D21*
%TO.P,R14,1*%
%TO.N,MESH_BAT*%
X56222500Y-47050000D03*
%TO.P,R14,2*%
%TO.N,BATT_MEASURE*%
X54397500Y-47050000D03*
%TD*%
D10*
%TO.P,J1,1,Pin_1*%
%TO.N,+3V3*%
X59000000Y-65250000D03*
D11*
%TO.P,J1,2,Pin_2*%
%TO.N,ONEWIRE*%
X64000000Y-65250000D03*
%TO.P,J1,3,Pin_3*%
%TO.N,GND*%
X69000000Y-65250000D03*
%TD*%
D22*
%TO.P,C2,1*%
%TO.N,V_TIMER*%
X6900000Y-42800000D03*
D23*
%TO.P,C2,2*%
%TO.N,GND*%
X6900000Y-40800000D03*
%TD*%
D21*
%TO.P,R20,1*%
%TO.N,DONE*%
X56182500Y-56250000D03*
%TO.P,R20,2*%
%TO.N,GND*%
X54357500Y-56250000D03*
%TD*%
D17*
%TO.P,R17,2*%
%TO.N,GND*%
X100620000Y-57000000D03*
D16*
%TO.P,R17,1*%
%TO.N,DEPTH_PULL*%
X93000000Y-57000000D03*
%TD*%
D24*
%TO.P,R3,1*%
%TO.N,+3V3*%
X81500000Y-3912500D03*
%TO.P,R3,2*%
%TO.N,BUTTON*%
X81500000Y-2087500D03*
%TD*%
D16*
%TO.P,R13,1*%
%TO.N,MESH_BAT*%
X59120000Y-47000000D03*
D17*
%TO.P,R13,2*%
%TO.N,BATT_MEASURE*%
X51500000Y-47000000D03*
%TD*%
D25*
%TO.P,R18,2*%
%TO.N,GND*%
X97575000Y-57000000D03*
%TO.P,R18,1*%
%TO.N,DEPTH_PULL*%
X95750000Y-57000000D03*
%TD*%
D15*
%TO.P,J6,1,Pin_1*%
%TO.N,Net-(J3-Pin_2)*%
X101750000Y-45960000D03*
D14*
%TO.P,J6,2,Pin_2*%
%TO.N,GND*%
X101750000Y-48500000D03*
%TD*%
%TO.P,J3,4,Pin_4*%
%TO.N,DONE*%
X87110000Y-43130000D03*
%TO.P,J3,3,Pin_3*%
%TO.N,+3V3*%
X87110000Y-45670000D03*
%TO.P,J3,2,Pin_2*%
%TO.N,Net-(J3-Pin_2)*%
X87110000Y-48210000D03*
D15*
%TO.P,J3,1,Pin_1*%
%TO.N,GND*%
X87110000Y-50750000D03*
%TD*%
%TO.P,J8,1,Pin_1*%
%TO.N,+3V3*%
X43500000Y-48130000D03*
D14*
%TO.P,J8,2,Pin_2*%
%TO.N,SCL*%
X43500000Y-50670000D03*
%TO.P,J8,3,Pin_3*%
%TO.N,SDA*%
X43500000Y-53210000D03*
%TO.P,J8,4,Pin_4*%
%TO.N,GND*%
X43500000Y-55750000D03*
%TD*%
D16*
%TO.P,R7,1*%
%TO.N,LED*%
X15300000Y-43200000D03*
D17*
%TO.P,R7,2*%
%TO.N,Net-(D1-A)*%
X15300000Y-35580000D03*
%TD*%
D26*
%TO.P,R1,1*%
%TO.N,Net-(J3-Pin_2)*%
X95750000Y-46647500D03*
%TO.P,R1,2*%
%TO.N,GND*%
X95750000Y-48472500D03*
%TD*%
D16*
%TO.P,R12,1*%
%TO.N,+3V3*%
X43665000Y-34250000D03*
D17*
%TO.P,R12,2*%
%TO.N,SCL*%
X51285000Y-34250000D03*
%TD*%
D25*
%TO.P,R16,1*%
%TO.N,BATT_MEASURE*%
X46417500Y-42800000D03*
%TO.P,R16,2*%
%TO.N,GND*%
X48242500Y-42800000D03*
%TD*%
D15*
%TO.P,A2,1,RESET*%
%TO.N,unconnected-(A2-RESET-Pad1)*%
X5480000Y-63035000D03*
D14*
%TO.P,A2,2,3V*%
%TO.N,+3V3*%
X8020000Y-63035000D03*
%TO.P,A2,3,EN*%
%TO.N,unconnected-(A2-EN-Pad3)*%
X10560000Y-63035000D03*
%TO.P,A2,4,VHI*%
%TO.N,VHI*%
X13100000Y-63035000D03*
%TO.P,A2,5,A0*%
%TO.N,A0*%
X15640000Y-63035000D03*
%TO.P,A2,6,A1*%
%TO.N,A1*%
X18180000Y-63035000D03*
%TO.P,A2,7,A2*%
%TO.N,A2*%
X20720000Y-63035000D03*
%TO.P,A2,8,A3*%
%TO.N,DEPTH_TX*%
X23260000Y-63035000D03*
%TO.P,A2,9,A4*%
%TO.N,BATT_MEASURE*%
X25800000Y-63035000D03*
%TO.P,A2,10,A5*%
%TO.N,BUTTON*%
X28340000Y-63035000D03*
%TO.P,A2,11,SCK*%
%TO.N,SCK*%
X30880000Y-63035000D03*
%TO.P,A2,12,M0*%
%TO.N,MOSI*%
X33420000Y-63035000D03*
%TO.P,A2,13,MI*%
%TO.N,MISO*%
X35960000Y-63035000D03*
%TO.P,A2,14,D2*%
%TO.N,D2*%
X38500000Y-63035000D03*
%TO.P,A2,15,RX*%
%TO.N,MESH_RX*%
X38530000Y-48000000D03*
%TO.P,A2,16,TX*%
%TO.N,MESH_TX*%
X35990000Y-48000000D03*
%TO.P,A2,17,SDA*%
%TO.N,SDA*%
X33450000Y-48000000D03*
%TO.P,A2,18,SCL*%
%TO.N,SCL*%
X30910000Y-48000000D03*
%TO.P,A2,19,5!*%
%TO.N,unconnected-(A2-5!-Pad19)*%
X28370000Y-48000000D03*
%TO.P,A2,20,7*%
%TO.N,DONE*%
X25830000Y-48000000D03*
%TO.P,A2,21,9*%
%TO.N,D9*%
X23290000Y-48000000D03*
%TO.P,A2,22,10*%
%TO.N,DEPTH_PULL*%
X20750000Y-48000000D03*
%TO.P,A2,23,11*%
%TO.N,ONEWIRE*%
X18210000Y-48000000D03*
%TO.P,A2,24,12*%
%TO.N,D12*%
X15670000Y-48000000D03*
%TO.P,A2,25,13*%
%TO.N,LED*%
X13130000Y-48000000D03*
%TO.P,A2,26,USB*%
%TO.N,unconnected-(A2-USB-Pad26)*%
X10590000Y-48000000D03*
%TO.P,A2,27,GND*%
%TO.N,GND*%
X8050000Y-48000000D03*
D15*
%TO.P,A2,28,BAT*%
%TO.N,V_TIMER*%
X5510000Y-48000000D03*
%TD*%
D16*
%TO.P,R2,1*%
%TO.N,Net-(J3-Pin_2)*%
X95750000Y-43750000D03*
D17*
%TO.P,R2,2*%
%TO.N,GND*%
X95750000Y-51370000D03*
%TD*%
D25*
%TO.P,R5,1*%
%TO.N,+3V3*%
X54397500Y-51500000D03*
%TO.P,R5,2*%
%TO.N,ONEWIRE*%
X56222500Y-51500000D03*
%TD*%
D10*
%TO.P,J7,1,Pin_1*%
%TO.N,GND*%
X76750000Y-65250000D03*
D11*
%TO.P,J7,2,Pin_2*%
%TO.N,+3V3*%
X81750000Y-65250000D03*
%TO.P,J7,3,Pin_3*%
%TO.N,DEPTH_TX*%
X86750000Y-65250000D03*
%TO.P,J7,4,Pin_4*%
%TO.N,DEPTH_PULL*%
X91750000Y-65250000D03*
%TD*%
D16*
%TO.P,R9,1*%
%TO.N,+3V3*%
X43640000Y-38500000D03*
D17*
%TO.P,R9,2*%
%TO.N,SDA*%
X51260000Y-38500000D03*
%TD*%
D25*
%TO.P,R10,1*%
%TO.N,+3V3*%
X46537500Y-38500000D03*
%TO.P,R10,2*%
%TO.N,SDA*%
X48362500Y-38500000D03*
%TD*%
D15*
%TO.P,U3,1,BAT*%
%TO.N,MESH_BAT*%
X57000000Y-2550000D03*
D14*
%TO.P,U3,2,IO2*%
%TO.N,IO2*%
X54460000Y-2550000D03*
%TO.P,U3,3,IO1*%
%TO.N,IO1*%
X51920000Y-2550000D03*
%TO.P,U3,4,AIN1*%
%TO.N,AIN1*%
X49380000Y-2550000D03*
%TO.P,U3,5,RX1*%
%TO.N,MESH_TX*%
X46840000Y-2550000D03*
%TO.P,U3,6,TX1*%
%TO.N,MESH_RX*%
X44300000Y-2550000D03*
%TO.P,U3,7,GND*%
%TO.N,GND*%
X41760000Y-2550000D03*
%TO.P,U3,8,BOOT0*%
%TO.N,unconnected-(U3-BOOT0-Pad8)*%
X39220000Y-2550000D03*
D27*
%TO.P,U3,9*%
%TO.N,N/C*%
X61000000Y-3250000D03*
X7000000Y-5250000D03*
X59000000Y-27250000D03*
X7000000Y-27250000D03*
%TD*%
D15*
%TO.P,J4,1,Pin_1*%
%TO.N,IO2*%
X66000000Y-17000000D03*
D14*
%TO.P,J4,2,Pin_2*%
%TO.N,IO1*%
X66000000Y-19540000D03*
%TO.P,J4,3,Pin_3*%
%TO.N,AIN1*%
X66000000Y-22080000D03*
%TO.P,J4,4,Pin_4*%
%TO.N,GND*%
X66000000Y-24620000D03*
%TD*%
D24*
%TO.P,R8,1*%
%TO.N,LED*%
X15300000Y-40200000D03*
%TO.P,R8,2*%
%TO.N,Net-(D1-A)*%
X15300000Y-38375000D03*
%TD*%
D25*
%TO.P,R11,1*%
%TO.N,+3V3*%
X46597500Y-34250000D03*
%TO.P,R11,2*%
%TO.N,SCL*%
X48422500Y-34250000D03*
%TD*%
D16*
%TO.P,R4,1*%
%TO.N,+3V3*%
X81500000Y-6810000D03*
D17*
%TO.P,R4,2*%
%TO.N,BUTTON*%
X81500000Y810000D03*
%TD*%
D15*
%TO.P,J5,1,Pin_1*%
%TO.N,A0*%
X16000000Y-67400000D03*
D14*
%TO.P,J5,2,Pin_2*%
%TO.N,A1*%
X18540000Y-67400000D03*
%TO.P,J5,3,Pin_3*%
%TO.N,A2*%
X21080000Y-67400000D03*
%TO.P,J5,4,Pin_4*%
%TO.N,DEPTH_TX*%
X23620000Y-67400000D03*
%TO.P,J5,5,Pin_5*%
%TO.N,BUTTON*%
X26160000Y-67400000D03*
%TO.P,J5,6,Pin_6*%
%TO.N,D2*%
X28700000Y-67400000D03*
%TD*%
D15*
%TO.P,J9,1,Pin_1*%
%TO.N,V_TIMER*%
X20970000Y-43465000D03*
D14*
%TO.P,J9,2,Pin_2*%
%TO.N,D12*%
X23510000Y-43465000D03*
%TO.P,J9,3,Pin_3*%
%TO.N,D9*%
X26050000Y-43465000D03*
%TO.P,J9,4,Pin_4*%
%TO.N,DONE*%
X28590000Y-43465000D03*
%TO.P,J9,5,Pin_5*%
%TO.N,MESH_TX*%
X31130000Y-43465000D03*
%TO.P,J9,6,Pin_6*%
%TO.N,MESH_RX*%
X33670000Y-43465000D03*
%TO.P,J9,7,Pin_7*%
%TO.N,+3V3*%
X36210000Y-43465000D03*
%TO.P,J9,8,Pin_8*%
%TO.N,GND*%
X38750000Y-43465000D03*
%TD*%
D16*
%TO.P,R15,1*%
%TO.N,BATT_MEASURE*%
X43630000Y-42750000D03*
D17*
%TO.P,R15,2*%
%TO.N,GND*%
X51250000Y-42750000D03*
%TD*%
D28*
%TO.N,BATT_MEASURE*%
X53800000Y-45600000D03*
%TO.N,SCL*%
X86600000Y-17600000D03*
X68400000Y-13100000D03*
%TO.N,GND*%
X8300000Y-54700000D03*
%TO.N,SDA*%
X89600000Y-16300000D03*
X70500000Y-12500000D03*
%TO.N,SCL*%
X68400000Y-32200000D03*
%TO.N,IO2*%
X54700000Y-15900000D03*
%TO.N,IO1*%
X52700000Y-19200000D03*
%TO.N,AIN1*%
X50100000Y-22300000D03*
%TO.N,ONEWIRE*%
X18300000Y-53100000D03*
%TO.N,BATT_MEASURE*%
X28800000Y-52100000D03*
%TO.N,ONEWIRE*%
X57600000Y-54400000D03*
%TO.N,MESH_TX*%
X31400000Y-45900000D03*
%TO.N,SDA*%
X32400000Y-41200000D03*
%TO.N,SCL*%
X29900000Y-37200000D03*
X47500000Y-33300000D03*
%TO.N,ONEWIRE*%
X63800000Y-52600000D03*
%TO.N,+3V3*%
X49700000Y-62700000D03*
%TO.N,Net-(J3-Pin_2)*%
X94100000Y-46700000D03*
%TO.N,+3V3*%
X84600000Y-46400000D03*
%TO.N,DEPTH_TX*%
X87000000Y-68500000D03*
X25000000Y-72000000D03*
%TO.N,D2*%
X38500000Y-66900000D03*
%TO.N,BUTTON*%
X11300000Y-3100000D03*
X12900000Y-70700000D03*
%TO.N,BATT_MEASURE*%
X48000000Y-49500000D03*
X47900000Y-47000000D03*
%TO.N,MESH_BAT*%
X55000000Y-36400000D03*
X58300000Y-37500000D03*
%TO.N,GND*%
X52800000Y-44500000D03*
X50200000Y-49500000D03*
X52800000Y-49400000D03*
%TO.N,SDA*%
X68700000Y-39400000D03*
%TO.N,MESH_RX*%
X34600000Y-27900000D03*
X44100000Y-26000000D03*
%TO.N,MESH_TX*%
X46700000Y-5000000D03*
X33100000Y-5700000D03*
%TO.N,DEPTH_PULL*%
X21100000Y-56800000D03*
%TO.N,DONE*%
X59000000Y-58300000D03*
X26900000Y-58800000D03*
X60900000Y-54000000D03*
X61100000Y-43900000D03*
%TO.N,V_TIMER*%
X20600000Y-33000000D03*
X62200000Y-32000000D03*
X63300000Y-46300000D03*
%TO.N,SDA*%
X34300000Y-53000000D03*
%TO.N,SCL*%
X32300000Y-50600000D03*
%TO.N,GND*%
X42100000Y-41500000D03*
%TO.N,+3V3*%
X40800000Y-48100000D03*
X40800000Y-38500000D03*
%TO.N,D12*%
X15800000Y-45900000D03*
X22900000Y-45200000D03*
%TO.N,LED*%
X13100000Y-43300000D03*
%TO.N,+3V3*%
X49200000Y-60000000D03*
X8200000Y-60000000D03*
X49200000Y-51600000D03*
X49200000Y-48100000D03*
%TO.N,GND*%
X8400000Y-40800000D03*
X78100000Y-24300000D03*
X77900000Y-8300000D03*
X41760000Y-8300000D03*
X77900000Y-4250000D03*
%TO.N,+3V3*%
X81500000Y-10500000D03*
X72900000Y-10700000D03*
%TO.N,GND*%
X38700000Y-41500000D03*
%TO.N,+3V3*%
X36300000Y-38400000D03*
%TO.N,GND*%
X102000000Y-51300000D03*
%TO.N,+3V3*%
X81800000Y-68200000D03*
X59100000Y-68200000D03*
%TO.N,GND*%
X76100000Y-50100000D03*
X69100000Y-61500000D03*
X54400000Y-61500000D03*
%TO.N,MESH_BAT*%
X66750000Y-53800000D03*
X45400000Y-70000000D03*
X66300000Y-69800000D03*
X66750000Y-47800000D03*
%TD*%
D29*
%TO.N,GND*%
X54357500Y-56250000D02*
X51500000Y-56250000D01*
D30*
%TO.N,BATT_MEASURE*%
X54397500Y-46197500D02*
X53800000Y-45600000D01*
X54397500Y-47050000D02*
X54397500Y-46197500D01*
%TO.N,SCL*%
X68400000Y-13100000D02*
X68500000Y-13000000D01*
X68500000Y-13000000D02*
X68500000Y-3000000D01*
X88770000Y-10500000D02*
X88770000Y-15430000D01*
X88770000Y-15430000D02*
X86600000Y-17600000D01*
X68400000Y-32200000D02*
X68400000Y-13100000D01*
%TO.N,BUTTON*%
X81500000Y810000D02*
X81500000Y-2087500D01*
D29*
%TO.N,GND*%
X8300000Y-54700000D02*
X8300000Y-48250000D01*
X8300000Y-48250000D02*
X8050000Y-48000000D01*
D30*
%TO.N,SDA*%
X91310000Y-14590000D02*
X89600000Y-16300000D01*
X91310000Y-10500000D02*
X91310000Y-14590000D01*
X70500000Y-12500000D02*
X70500000Y-37600000D01*
X70500000Y-3000000D02*
X70500000Y-12500000D01*
%TO.N,IO2*%
X54700000Y-15900000D02*
X54460000Y-15660000D01*
X54460000Y-15660000D02*
X54460000Y-2550000D01*
%TO.N,IO1*%
X51920000Y-18420000D02*
X52700000Y-19200000D01*
X51920000Y-2550000D02*
X51920000Y-18420000D01*
%TO.N,AIN1*%
X49380000Y-21580000D02*
X50100000Y-22300000D01*
X49380000Y-2550000D02*
X49380000Y-21580000D01*
%TO.N,ONEWIRE*%
X18300000Y-53100000D02*
X18210000Y-53010000D01*
X18210000Y-53010000D02*
X18210000Y-48000000D01*
%TO.N,BATT_MEASURE*%
X28300000Y-52600000D02*
X28800000Y-52100000D01*
X28300000Y-56500000D02*
X28300000Y-52600000D01*
%TO.N,ONEWIRE*%
X59120000Y-51500000D02*
X59120000Y-52880000D01*
X59120000Y-52880000D02*
X57600000Y-54400000D01*
%TO.N,MESH_TX*%
X31130000Y-45630000D02*
X31400000Y-45900000D01*
X31130000Y-43465000D02*
X31130000Y-45630000D01*
D29*
%TO.N,+3V3*%
X43640000Y-38500000D02*
X46537500Y-38500000D01*
D30*
%TO.N,SDA*%
X32400000Y-46950000D02*
X32400000Y-41200000D01*
X33450000Y-48000000D02*
X32400000Y-46950000D01*
%TO.N,SCL*%
X29880000Y-37220000D02*
X29900000Y-37200000D01*
X29880000Y-46970000D02*
X29880000Y-37220000D01*
X30910000Y-48000000D02*
X29880000Y-46970000D01*
X47500000Y-33300000D02*
X47500000Y-33327500D01*
X47500000Y-33327500D02*
X48422500Y-34250000D01*
%TO.N,ONEWIRE*%
X63800000Y-52600000D02*
X64000000Y-52800000D01*
X64000000Y-52800000D02*
X64000000Y-65250000D01*
D31*
X56222500Y-51500000D02*
X59120000Y-51500000D01*
D29*
%TO.N,+3V3*%
X49200000Y-62200000D02*
X49700000Y-62700000D01*
X49200000Y-60000000D02*
X49200000Y-62200000D01*
D30*
%TO.N,Net-(J3-Pin_2)*%
X95750000Y-46647500D02*
X101062500Y-46647500D01*
X101062500Y-46647500D02*
X101750000Y-45960000D01*
X95750000Y-46647500D02*
X95750000Y-43750000D01*
X94100000Y-46700000D02*
X95697500Y-46700000D01*
X95697500Y-46700000D02*
X95750000Y-46647500D01*
D29*
%TO.N,+3V3*%
X83690000Y-10500000D02*
X84600000Y-11410000D01*
X84600000Y-11410000D02*
X84600000Y-46400000D01*
D30*
%TO.N,DEPTH_PULL*%
X93000000Y-57000000D02*
X95750000Y-57000000D01*
X91750000Y-65250000D02*
X91750000Y-58250000D01*
X91750000Y-58250000D02*
X93000000Y-57000000D01*
D29*
%TO.N,+3V3*%
X84600000Y-62400000D02*
X81750000Y-65250000D01*
X84600000Y-46400000D02*
X84600000Y-62400000D01*
D30*
%TO.N,DEPTH_TX*%
X23620000Y-67400000D02*
X23620000Y-70620000D01*
X23620000Y-70620000D02*
X25000000Y-72000000D01*
X87000000Y-65500000D02*
X86750000Y-65250000D01*
X87000000Y-68500000D02*
X87000000Y-65500000D01*
%TO.N,D2*%
X38500000Y-66900000D02*
X38500000Y-63035000D01*
%TO.N,DEPTH_TX*%
X23260000Y-63035000D02*
X23260000Y-67040000D01*
X23260000Y-67040000D02*
X23620000Y-67400000D01*
%TO.N,A2*%
X20720000Y-63035000D02*
X20720000Y-67040000D01*
X20720000Y-67040000D02*
X21080000Y-67400000D01*
%TO.N,A1*%
X18180000Y-63035000D02*
X18180000Y-67040000D01*
X18180000Y-67040000D02*
X18540000Y-67400000D01*
%TO.N,A0*%
X15640000Y-63035000D02*
X15640000Y-67040000D01*
X15640000Y-67040000D02*
X16000000Y-67400000D01*
%TO.N,BUTTON*%
X26160000Y-67400000D02*
X26160000Y-65215000D01*
X26160000Y-65215000D02*
X28340000Y-63035000D01*
X11840000Y-3640000D02*
X11840000Y-69640000D01*
X11300000Y-3100000D02*
X11840000Y-3640000D01*
X11840000Y-69640000D02*
X12900000Y-70700000D01*
%TO.N,BATT_MEASURE*%
X47100000Y-46700000D02*
X47600000Y-46700000D01*
X47600000Y-46700000D02*
X47900000Y-47000000D01*
X48000000Y-49500000D02*
X48000000Y-47100000D01*
X25800000Y-63035000D02*
X28300000Y-60535000D01*
X28300000Y-60535000D02*
X28300000Y-56500000D01*
X48000000Y-47100000D02*
X47900000Y-47000000D01*
D29*
%TO.N,MESH_BAT*%
X55000000Y-36400000D02*
X55000000Y-25500000D01*
X57000000Y-2550000D02*
X57000000Y-23500000D01*
X57000000Y-23500000D02*
X55000000Y-25500000D01*
X59250000Y-44750000D02*
X59250000Y-38450000D01*
X59250000Y-38450000D02*
X58300000Y-37500000D01*
%TO.N,GND*%
X52800000Y-44500000D02*
X52800000Y-49400000D01*
X50200000Y-54950000D02*
X51500000Y-56250000D01*
X50200000Y-49500000D02*
X50200000Y-54950000D01*
D30*
%TO.N,BATT_MEASURE*%
X46417500Y-46017500D02*
X47100000Y-46700000D01*
X46417500Y-42800000D02*
X46417500Y-46017500D01*
X43630000Y-42750000D02*
X46367500Y-42750000D01*
X46367500Y-42750000D02*
X46417500Y-42800000D01*
%TO.N,SCL*%
X48422500Y-34250000D02*
X51285000Y-34250000D01*
%TO.N,SDA*%
X51260000Y-38500000D02*
X48362500Y-38500000D01*
X70500000Y-37600000D02*
X68700000Y-39400000D01*
%TO.N,MESH_RX*%
X44300000Y-2550000D02*
X44300000Y-25800000D01*
X44300000Y-25800000D02*
X44100000Y-26000000D01*
X34600000Y-27900000D02*
X33670000Y-28830000D01*
X33670000Y-28830000D02*
X33670000Y-43465000D01*
%TO.N,MESH_TX*%
X31130000Y-43465000D02*
X31130000Y-7670000D01*
X31130000Y-7670000D02*
X33100000Y-5700000D01*
X46700000Y-2690000D02*
X46840000Y-2550000D01*
X46700000Y-5000000D02*
X46700000Y-2690000D01*
%TO.N,DEPTH_PULL*%
X20750000Y-56450000D02*
X20750000Y-48000000D01*
X21100000Y-56800000D02*
X20750000Y-56450000D01*
%TO.N,DONE*%
X25830000Y-48000000D02*
X25830000Y-57730000D01*
X25830000Y-57730000D02*
X26900000Y-58800000D01*
X59000000Y-58300000D02*
X59000000Y-56370000D01*
X59000000Y-56370000D02*
X59120000Y-56250000D01*
X59120000Y-56250000D02*
X56182500Y-56250000D01*
X61100000Y-43900000D02*
X61100000Y-53800000D01*
X61100000Y-53800000D02*
X60900000Y-54000000D01*
D29*
%TO.N,V_TIMER*%
X63300000Y-33100000D02*
X62200000Y-32000000D01*
X63300000Y-46300000D02*
X63300000Y-33100000D01*
X20970000Y-33370000D02*
X20970000Y-43465000D01*
X20600000Y-33000000D02*
X20970000Y-33370000D01*
D30*
%TO.N,SDA*%
X33450000Y-52150000D02*
X34300000Y-53000000D01*
X33450000Y-48000000D02*
X33450000Y-52150000D01*
%TO.N,SCL*%
X30910000Y-49210000D02*
X32300000Y-50600000D01*
X30910000Y-48000000D02*
X30910000Y-49210000D01*
D29*
%TO.N,GND*%
X42100000Y-41500000D02*
X42100000Y-8640000D01*
X42100000Y-8640000D02*
X41760000Y-8300000D01*
%TO.N,+3V3*%
X40800000Y-48100000D02*
X40800000Y-38500000D01*
D30*
%TO.N,MESH_RX*%
X33670000Y-43465000D02*
X35505000Y-45300000D01*
X35505000Y-45300000D02*
X37000000Y-45300000D01*
X37000000Y-45300000D02*
X38530000Y-46830000D01*
X38530000Y-46830000D02*
X38530000Y-48000000D01*
%TO.N,DONE*%
X28590000Y-43465000D02*
X28590000Y-45240000D01*
X28590000Y-45240000D02*
X25830000Y-48000000D01*
%TO.N,D9*%
X26050000Y-43465000D02*
X26050000Y-45240000D01*
X26050000Y-45240000D02*
X23290000Y-48000000D01*
%TO.N,D12*%
X15800000Y-47870000D02*
X15670000Y-48000000D01*
X23510000Y-43465000D02*
X23510000Y-44590000D01*
X23510000Y-44590000D02*
X22900000Y-45200000D01*
X15800000Y-45900000D02*
X15800000Y-47870000D01*
%TO.N,Net-(D1-A)*%
X15300000Y-38375000D02*
X15300000Y-35580000D01*
%TO.N,LED*%
X15300000Y-43200000D02*
X15300000Y-40200000D01*
X13130000Y-43330000D02*
X13100000Y-43300000D01*
X13130000Y-48000000D02*
X13130000Y-43330000D01*
D29*
%TO.N,+3V3*%
X49200000Y-60000000D02*
X49200000Y-51600000D01*
X8020000Y-63035000D02*
X8020000Y-60180000D01*
X8020000Y-60180000D02*
X8200000Y-60000000D01*
X54397500Y-51500000D02*
X51500000Y-51500000D01*
X49200000Y-48100000D02*
X49200000Y-51600000D01*
%TO.N,GND*%
X6900000Y-40800000D02*
X6900000Y-36400000D01*
X6900000Y-36400000D02*
X5500000Y-35000000D01*
X8400000Y-47650000D02*
X8400000Y-40800000D01*
X8050000Y-48000000D02*
X8400000Y-47650000D01*
%TO.N,V_TIMER*%
X5510000Y-48000000D02*
X5510000Y-44190000D01*
X5510000Y-44190000D02*
X6900000Y-42800000D01*
%TO.N,GND*%
X78100000Y-24300000D02*
X78100000Y-8500000D01*
X78100000Y-8500000D02*
X77900000Y-8300000D01*
X77900000Y-4250000D02*
X77900000Y-8300000D01*
X41760000Y-2550000D02*
X41760000Y-8300000D01*
X86750000Y-4250000D02*
X86750000Y-9980000D01*
X86750000Y-9980000D02*
X86230000Y-10500000D01*
%TO.N,+3V3*%
X81500000Y-6810000D02*
X81500000Y-3912500D01*
X81500000Y-6810000D02*
X81500000Y-10500000D01*
X72500000Y-10300000D02*
X72900000Y-10700000D01*
X72500000Y-3000000D02*
X72500000Y-10300000D01*
X43665000Y-34250000D02*
X46597500Y-34250000D01*
%TO.N,GND*%
X51250000Y-42750000D02*
X48292500Y-42750000D01*
X48292500Y-42750000D02*
X48242500Y-42800000D01*
X38750000Y-41550000D02*
X38700000Y-41500000D01*
X38750000Y-43465000D02*
X38750000Y-41550000D01*
%TO.N,+3V3*%
X36210000Y-38490000D02*
X36300000Y-38400000D01*
X36210000Y-43465000D02*
X36210000Y-38490000D01*
%TO.N,GND*%
X100620000Y-57000000D02*
X97575000Y-57000000D01*
X102000000Y-51300000D02*
X102000000Y-55620000D01*
X102000000Y-55620000D02*
X100620000Y-57000000D01*
X102000000Y-51300000D02*
X102000000Y-48750000D01*
X102000000Y-48750000D02*
X101750000Y-48500000D01*
X95750000Y-51370000D02*
X95750000Y-48472500D01*
%TO.N,+3V3*%
X59000000Y-65250000D02*
X59000000Y-68100000D01*
X59000000Y-68100000D02*
X59100000Y-68200000D01*
X81800000Y-68200000D02*
X81800000Y-65300000D01*
X81800000Y-65300000D02*
X81750000Y-65250000D01*
%TO.N,GND*%
X76100000Y-50100000D02*
X76750000Y-50750000D01*
X76750000Y-50750000D02*
X76750000Y-65250000D01*
X54357500Y-56250000D02*
X54357500Y-61457500D01*
X54357500Y-61457500D02*
X54400000Y-61500000D01*
X69100000Y-61500000D02*
X69100000Y-65150000D01*
X69100000Y-65150000D02*
X69000000Y-65250000D01*
X51500000Y-56250000D02*
X51500000Y-64500000D01*
X51500000Y-64500000D02*
X50600000Y-65400000D01*
%TO.N,MESH_BAT*%
X66750000Y-47800000D02*
X66750000Y-61450000D01*
X66750000Y-61450000D02*
X66300000Y-61900000D01*
X66300000Y-61900000D02*
X66300000Y-69800000D01*
X45400000Y-70000000D02*
X45400000Y-65600000D01*
X45400000Y-65600000D02*
X45600000Y-65400000D01*
X59120000Y-47000000D02*
X56272500Y-47000000D01*
X56272500Y-47000000D02*
X56222500Y-47050000D01*
X59250000Y-44750000D02*
X59250000Y-46870000D01*
X59250000Y-46870000D02*
X59120000Y-47000000D01*
%TD*%
M02*
