%TF.GenerationSoftware,KiCad,Pcbnew,8.0.6-8.0.6-0~ubuntu24.04.1*%
%TF.CreationDate,2025-03-25T09:16:13-04:00*%
%TF.ProjectId,mesh-depth,6d657368-2d64-4657-9074-682e6b696361,rev?*%
%TF.SameCoordinates,Original*%
%TF.FileFunction,Soldermask,Bot*%
%TF.FilePolarity,Negative*%
%FSLAX46Y46*%
G04 Gerber Fmt 4.6, Leading zero omitted, Abs format (unit mm)*
G04 Created by KiCad (PCBNEW 8.0.6-8.0.6-0~ubuntu24.04.1) date 2025-03-25 09:16:13*
%MOMM*%
%LPD*%
G01*
G04 APERTURE LIST*
%ADD10R,2.600000X2.600000*%
%ADD11C,2.600000*%
%ADD12O,1.350000X1.350000*%
%ADD13R,1.350000X1.350000*%
%ADD14O,1.700000X1.700000*%
%ADD15R,1.700000X1.700000*%
%ADD16C,1.400000*%
%ADD17O,1.400000X1.400000*%
%ADD18R,1.800000X1.800000*%
%ADD19C,1.800000*%
%ADD20C,3.200000*%
%ADD21C,2.000000*%
%ADD22R,1.600000X1.600000*%
%ADD23C,1.600000*%
%ADD24C,5.000000*%
%ADD25R,1.500000X1.000000*%
G04 APERTURE END LIST*
D10*
%TO.C,J2*%
X45600000Y-65400000D03*
D11*
X50600000Y-65400000D03*
%TD*%
D12*
%TO.C,U2*%
X74500000Y-3000000D03*
X72500000Y-3000000D03*
X70500000Y-3000000D03*
D13*
X68500000Y-3000000D03*
%TD*%
D14*
%TO.C,J10*%
X83690000Y-10500000D03*
X86230000Y-10500000D03*
X88770000Y-10500000D03*
D15*
X91310000Y-10500000D03*
%TD*%
%TO.C,U1*%
X81050000Y-52800000D03*
D14*
X81050000Y-50260000D03*
X81050000Y-47720000D03*
X81050000Y-45180000D03*
X81050000Y-42640000D03*
%TD*%
D16*
%TO.C,R19*%
X59120000Y-56250000D03*
D17*
X51500000Y-56250000D03*
%TD*%
D18*
%TO.C,D1*%
X5500000Y-35000000D03*
D19*
X8040000Y-35000000D03*
%TD*%
D16*
%TO.C,R6*%
X51500000Y-51500000D03*
D17*
X59120000Y-51500000D03*
%TD*%
D20*
%TO.C,H4*%
X0Y-70000000D03*
%TD*%
D21*
%TO.C,SW1*%
X86750000Y250000D03*
X93250000Y250000D03*
X86750000Y-4250000D03*
X93250000Y-4250000D03*
%TD*%
D10*
%TO.C,J1*%
X59000000Y-65250000D03*
D11*
X64000000Y-65250000D03*
X69000000Y-65250000D03*
%TD*%
D22*
%TO.C,C2*%
X6900000Y-42800000D03*
D23*
X6900000Y-40800000D03*
%TD*%
D20*
%TO.C,H2*%
X100000000Y-70000000D03*
%TD*%
%TO.C,H1*%
X100000000Y0D03*
%TD*%
D17*
%TO.C,R17*%
X100620000Y-57000000D03*
D16*
X93000000Y-57000000D03*
%TD*%
%TO.C,R13*%
X59120000Y-47000000D03*
D17*
X51500000Y-47000000D03*
%TD*%
D15*
%TO.C,J6*%
X101750000Y-45960000D03*
D14*
X101750000Y-48500000D03*
%TD*%
D20*
%TO.C,H3*%
X0Y0D03*
%TD*%
D14*
%TO.C,J3*%
X87110000Y-43130000D03*
X87110000Y-45670000D03*
X87110000Y-48210000D03*
D15*
X87110000Y-50750000D03*
%TD*%
%TO.C,J8*%
X43500000Y-48130000D03*
D14*
X43500000Y-50670000D03*
X43500000Y-53210000D03*
X43500000Y-55750000D03*
%TD*%
D16*
%TO.C,R7*%
X15300000Y-43200000D03*
D17*
X15300000Y-35580000D03*
%TD*%
D16*
%TO.C,R12*%
X43665000Y-34250000D03*
D17*
X51285000Y-34250000D03*
%TD*%
D15*
%TO.C,A2*%
X5480000Y-63035000D03*
D14*
X8020000Y-63035000D03*
X10560000Y-63035000D03*
X13100000Y-63035000D03*
X15640000Y-63035000D03*
X18180000Y-63035000D03*
X20720000Y-63035000D03*
X23260000Y-63035000D03*
X25800000Y-63035000D03*
X28340000Y-63035000D03*
X30880000Y-63035000D03*
X33420000Y-63035000D03*
X35960000Y-63035000D03*
X38500000Y-63035000D03*
X38530000Y-48000000D03*
X35990000Y-48000000D03*
X33450000Y-48000000D03*
X30910000Y-48000000D03*
X28370000Y-48000000D03*
X25830000Y-48000000D03*
X23290000Y-48000000D03*
X20750000Y-48000000D03*
X18210000Y-48000000D03*
X15670000Y-48000000D03*
X13130000Y-48000000D03*
X10590000Y-48000000D03*
X8050000Y-48000000D03*
D15*
X5510000Y-48000000D03*
%TD*%
D16*
%TO.C,R2*%
X95750000Y-43750000D03*
D17*
X95750000Y-51370000D03*
%TD*%
D10*
%TO.C,J7*%
X76750000Y-65250000D03*
D11*
X81750000Y-65250000D03*
X86750000Y-65250000D03*
X91750000Y-65250000D03*
%TD*%
D16*
%TO.C,R9*%
X43640000Y-38500000D03*
D17*
X51260000Y-38500000D03*
%TD*%
D15*
%TO.C,U3*%
X57000000Y-2550000D03*
D14*
X54460000Y-2550000D03*
X51920000Y-2550000D03*
X49380000Y-2550000D03*
X46840000Y-2550000D03*
X44300000Y-2550000D03*
X41760000Y-2550000D03*
X39220000Y-2550000D03*
D24*
X61000000Y-3250000D03*
X7000000Y-5250000D03*
X59000000Y-27250000D03*
X7000000Y-27250000D03*
%TD*%
D15*
%TO.C,J4*%
X66000000Y-17000000D03*
D14*
X66000000Y-19540000D03*
X66000000Y-22080000D03*
X66000000Y-24620000D03*
%TD*%
D16*
%TO.C,R4*%
X81500000Y-6810000D03*
D17*
X81500000Y810000D03*
%TD*%
D15*
%TO.C,J5*%
X16000000Y-67400000D03*
D14*
X18540000Y-67400000D03*
X21080000Y-67400000D03*
X23620000Y-67400000D03*
X26160000Y-67400000D03*
X28700000Y-67400000D03*
%TD*%
D15*
%TO.C,J9*%
X20970000Y-43465000D03*
D14*
X23510000Y-43465000D03*
X26050000Y-43465000D03*
X28590000Y-43465000D03*
X31130000Y-43465000D03*
X33670000Y-43465000D03*
X36210000Y-43465000D03*
X38750000Y-43465000D03*
%TD*%
D16*
%TO.C,R15*%
X43630000Y-42750000D03*
D17*
X51250000Y-42750000D03*
%TD*%
D25*
%TO.C,JP1*%
X74000000Y-47800000D03*
X74000000Y-46500000D03*
%TD*%
M02*
