%TF.GenerationSoftware,KiCad,Pcbnew,8.0.6-8.0.6-0~ubuntu24.04.1*%
%TF.CreationDate,2025-03-25T09:16:13-04:00*%
%TF.ProjectId,mesh-depth,6d657368-2d64-4657-9074-682e6b696361,rev?*%
%TF.SameCoordinates,Original*%
%TF.FileFunction,Legend,Top*%
%TF.FilePolarity,Positive*%
%FSLAX46Y46*%
G04 Gerber Fmt 4.6, Leading zero omitted, Abs format (unit mm)*
G04 Created by KiCad (PCBNEW 8.0.6-8.0.6-0~ubuntu24.04.1) date 2025-03-25 09:16:13*
%MOMM*%
%LPD*%
G01*
G04 APERTURE LIST*
%ADD10C,0.200000*%
%ADD11C,0.300000*%
%ADD12C,0.150000*%
%ADD13C,0.120000*%
%ADD14C,0.100000*%
G04 APERTURE END LIST*
D10*
X65809523Y-46414838D02*
X66952380Y-46414838D01*
X66380951Y-48414838D02*
X66380951Y-46414838D01*
X67619047Y-48414838D02*
X67619047Y-46414838D01*
X67619047Y-46414838D02*
X68380952Y-46414838D01*
X68380952Y-46414838D02*
X68571428Y-46510076D01*
X68571428Y-46510076D02*
X68666666Y-46605314D01*
X68666666Y-46605314D02*
X68761904Y-46795790D01*
X68761904Y-46795790D02*
X68761904Y-47081504D01*
X68761904Y-47081504D02*
X68666666Y-47271980D01*
X68666666Y-47271980D02*
X68571428Y-47367219D01*
X68571428Y-47367219D02*
X68380952Y-47462457D01*
X68380952Y-47462457D02*
X67619047Y-47462457D01*
X70571428Y-48414838D02*
X69619047Y-48414838D01*
X69619047Y-48414838D02*
X69619047Y-46414838D01*
X72190476Y-46414838D02*
X71238095Y-46414838D01*
X71238095Y-46414838D02*
X71142857Y-47367219D01*
X71142857Y-47367219D02*
X71238095Y-47271980D01*
X71238095Y-47271980D02*
X71428571Y-47176742D01*
X71428571Y-47176742D02*
X71904762Y-47176742D01*
X71904762Y-47176742D02*
X72095238Y-47271980D01*
X72095238Y-47271980D02*
X72190476Y-47367219D01*
X72190476Y-47367219D02*
X72285714Y-47557695D01*
X72285714Y-47557695D02*
X72285714Y-48033885D01*
X72285714Y-48033885D02*
X72190476Y-48224361D01*
X72190476Y-48224361D02*
X72095238Y-48319600D01*
X72095238Y-48319600D02*
X71904762Y-48414838D01*
X71904762Y-48414838D02*
X71428571Y-48414838D01*
X71428571Y-48414838D02*
X71238095Y-48319600D01*
X71238095Y-48319600D02*
X71142857Y-48224361D01*
X74190476Y-48414838D02*
X73047619Y-48414838D01*
X73619047Y-48414838D02*
X73619047Y-46414838D01*
X73619047Y-46414838D02*
X73428571Y-46700552D01*
X73428571Y-46700552D02*
X73238095Y-46891028D01*
X73238095Y-46891028D02*
X73047619Y-46986266D01*
X76095238Y-48414838D02*
X74952381Y-48414838D01*
X75523809Y-48414838D02*
X75523809Y-46414838D01*
X75523809Y-46414838D02*
X75333333Y-46700552D01*
X75333333Y-46700552D02*
X75142857Y-46891028D01*
X75142857Y-46891028D02*
X74952381Y-46986266D01*
X77333333Y-46414838D02*
X77523810Y-46414838D01*
X77523810Y-46414838D02*
X77714286Y-46510076D01*
X77714286Y-46510076D02*
X77809524Y-46605314D01*
X77809524Y-46605314D02*
X77904762Y-46795790D01*
X77904762Y-46795790D02*
X78000000Y-47176742D01*
X78000000Y-47176742D02*
X78000000Y-47652933D01*
X78000000Y-47652933D02*
X77904762Y-48033885D01*
X77904762Y-48033885D02*
X77809524Y-48224361D01*
X77809524Y-48224361D02*
X77714286Y-48319600D01*
X77714286Y-48319600D02*
X77523810Y-48414838D01*
X77523810Y-48414838D02*
X77333333Y-48414838D01*
X77333333Y-48414838D02*
X77142857Y-48319600D01*
X77142857Y-48319600D02*
X77047619Y-48224361D01*
X77047619Y-48224361D02*
X76952381Y-48033885D01*
X76952381Y-48033885D02*
X76857143Y-47652933D01*
X76857143Y-47652933D02*
X76857143Y-47176742D01*
X76857143Y-47176742D02*
X76952381Y-46795790D01*
X76952381Y-46795790D02*
X77047619Y-46605314D01*
X77047619Y-46605314D02*
X77142857Y-46510076D01*
X77142857Y-46510076D02*
X77333333Y-46414838D01*
X81166666Y-23702100D02*
X81452380Y-23797338D01*
X81452380Y-23797338D02*
X81928571Y-23797338D01*
X81928571Y-23797338D02*
X82119047Y-23702100D01*
X82119047Y-23702100D02*
X82214285Y-23606861D01*
X82214285Y-23606861D02*
X82309523Y-23416385D01*
X82309523Y-23416385D02*
X82309523Y-23225909D01*
X82309523Y-23225909D02*
X82214285Y-23035433D01*
X82214285Y-23035433D02*
X82119047Y-22940195D01*
X82119047Y-22940195D02*
X81928571Y-22844957D01*
X81928571Y-22844957D02*
X81547618Y-22749719D01*
X81547618Y-22749719D02*
X81357142Y-22654480D01*
X81357142Y-22654480D02*
X81261904Y-22559242D01*
X81261904Y-22559242D02*
X81166666Y-22368766D01*
X81166666Y-22368766D02*
X81166666Y-22178290D01*
X81166666Y-22178290D02*
X81261904Y-21987814D01*
X81261904Y-21987814D02*
X81357142Y-21892576D01*
X81357142Y-21892576D02*
X81547618Y-21797338D01*
X81547618Y-21797338D02*
X82023809Y-21797338D01*
X82023809Y-21797338D02*
X82309523Y-21892576D01*
X83071428Y-23702100D02*
X83357142Y-23797338D01*
X83357142Y-23797338D02*
X83833333Y-23797338D01*
X83833333Y-23797338D02*
X84023809Y-23702100D01*
X84023809Y-23702100D02*
X84119047Y-23606861D01*
X84119047Y-23606861D02*
X84214285Y-23416385D01*
X84214285Y-23416385D02*
X84214285Y-23225909D01*
X84214285Y-23225909D02*
X84119047Y-23035433D01*
X84119047Y-23035433D02*
X84023809Y-22940195D01*
X84023809Y-22940195D02*
X83833333Y-22844957D01*
X83833333Y-22844957D02*
X83452380Y-22749719D01*
X83452380Y-22749719D02*
X83261904Y-22654480D01*
X83261904Y-22654480D02*
X83166666Y-22559242D01*
X83166666Y-22559242D02*
X83071428Y-22368766D01*
X83071428Y-22368766D02*
X83071428Y-22178290D01*
X83071428Y-22178290D02*
X83166666Y-21987814D01*
X83166666Y-21987814D02*
X83261904Y-21892576D01*
X83261904Y-21892576D02*
X83452380Y-21797338D01*
X83452380Y-21797338D02*
X83928571Y-21797338D01*
X83928571Y-21797338D02*
X84214285Y-21892576D01*
X85071428Y-23797338D02*
X85071428Y-21797338D01*
X85071428Y-21797338D02*
X85547618Y-21797338D01*
X85547618Y-21797338D02*
X85833333Y-21892576D01*
X85833333Y-21892576D02*
X86023809Y-22083052D01*
X86023809Y-22083052D02*
X86119047Y-22273528D01*
X86119047Y-22273528D02*
X86214285Y-22654480D01*
X86214285Y-22654480D02*
X86214285Y-22940195D01*
X86214285Y-22940195D02*
X86119047Y-23321147D01*
X86119047Y-23321147D02*
X86023809Y-23511623D01*
X86023809Y-23511623D02*
X85833333Y-23702100D01*
X85833333Y-23702100D02*
X85547618Y-23797338D01*
X85547618Y-23797338D02*
X85071428Y-23797338D01*
X88119047Y-23797338D02*
X86976190Y-23797338D01*
X87547618Y-23797338D02*
X87547618Y-21797338D01*
X87547618Y-21797338D02*
X87357142Y-22083052D01*
X87357142Y-22083052D02*
X87166666Y-22273528D01*
X87166666Y-22273528D02*
X86976190Y-22368766D01*
X88785714Y-21797338D02*
X90023809Y-21797338D01*
X90023809Y-21797338D02*
X89357142Y-22559242D01*
X89357142Y-22559242D02*
X89642857Y-22559242D01*
X89642857Y-22559242D02*
X89833333Y-22654480D01*
X89833333Y-22654480D02*
X89928571Y-22749719D01*
X89928571Y-22749719D02*
X90023809Y-22940195D01*
X90023809Y-22940195D02*
X90023809Y-23416385D01*
X90023809Y-23416385D02*
X89928571Y-23606861D01*
X89928571Y-23606861D02*
X89833333Y-23702100D01*
X89833333Y-23702100D02*
X89642857Y-23797338D01*
X89642857Y-23797338D02*
X89071428Y-23797338D01*
X89071428Y-23797338D02*
X88880952Y-23702100D01*
X88880952Y-23702100D02*
X88785714Y-23606861D01*
X91261904Y-21797338D02*
X91452381Y-21797338D01*
X91452381Y-21797338D02*
X91642857Y-21892576D01*
X91642857Y-21892576D02*
X91738095Y-21987814D01*
X91738095Y-21987814D02*
X91833333Y-22178290D01*
X91833333Y-22178290D02*
X91928571Y-22559242D01*
X91928571Y-22559242D02*
X91928571Y-23035433D01*
X91928571Y-23035433D02*
X91833333Y-23416385D01*
X91833333Y-23416385D02*
X91738095Y-23606861D01*
X91738095Y-23606861D02*
X91642857Y-23702100D01*
X91642857Y-23702100D02*
X91452381Y-23797338D01*
X91452381Y-23797338D02*
X91261904Y-23797338D01*
X91261904Y-23797338D02*
X91071428Y-23702100D01*
X91071428Y-23702100D02*
X90976190Y-23606861D01*
X90976190Y-23606861D02*
X90880952Y-23416385D01*
X90880952Y-23416385D02*
X90785714Y-23035433D01*
X90785714Y-23035433D02*
X90785714Y-22559242D01*
X90785714Y-22559242D02*
X90880952Y-22178290D01*
X90880952Y-22178290D02*
X90976190Y-21987814D01*
X90976190Y-21987814D02*
X91071428Y-21892576D01*
X91071428Y-21892576D02*
X91261904Y-21797338D01*
X93642857Y-21797338D02*
X93261904Y-21797338D01*
X93261904Y-21797338D02*
X93071428Y-21892576D01*
X93071428Y-21892576D02*
X92976190Y-21987814D01*
X92976190Y-21987814D02*
X92785714Y-22273528D01*
X92785714Y-22273528D02*
X92690476Y-22654480D01*
X92690476Y-22654480D02*
X92690476Y-23416385D01*
X92690476Y-23416385D02*
X92785714Y-23606861D01*
X92785714Y-23606861D02*
X92880952Y-23702100D01*
X92880952Y-23702100D02*
X93071428Y-23797338D01*
X93071428Y-23797338D02*
X93452381Y-23797338D01*
X93452381Y-23797338D02*
X93642857Y-23702100D01*
X93642857Y-23702100D02*
X93738095Y-23606861D01*
X93738095Y-23606861D02*
X93833333Y-23416385D01*
X93833333Y-23416385D02*
X93833333Y-22940195D01*
X93833333Y-22940195D02*
X93738095Y-22749719D01*
X93738095Y-22749719D02*
X93642857Y-22654480D01*
X93642857Y-22654480D02*
X93452381Y-22559242D01*
X93452381Y-22559242D02*
X93071428Y-22559242D01*
X93071428Y-22559242D02*
X92880952Y-22654480D01*
X92880952Y-22654480D02*
X92785714Y-22749719D01*
X92785714Y-22749719D02*
X92690476Y-22940195D01*
X18119046Y-55914838D02*
X18119046Y-53914838D01*
X18785713Y-53914838D02*
X19928570Y-53914838D01*
X19357141Y-55914838D02*
X19357141Y-53914838D01*
X20499999Y-55819600D02*
X20785713Y-55914838D01*
X20785713Y-55914838D02*
X21261904Y-55914838D01*
X21261904Y-55914838D02*
X21452380Y-55819600D01*
X21452380Y-55819600D02*
X21547618Y-55724361D01*
X21547618Y-55724361D02*
X21642856Y-55533885D01*
X21642856Y-55533885D02*
X21642856Y-55343409D01*
X21642856Y-55343409D02*
X21547618Y-55152933D01*
X21547618Y-55152933D02*
X21452380Y-55057695D01*
X21452380Y-55057695D02*
X21261904Y-54962457D01*
X21261904Y-54962457D02*
X20880951Y-54867219D01*
X20880951Y-54867219D02*
X20690475Y-54771980D01*
X20690475Y-54771980D02*
X20595237Y-54676742D01*
X20595237Y-54676742D02*
X20499999Y-54486266D01*
X20499999Y-54486266D02*
X20499999Y-54295790D01*
X20499999Y-54295790D02*
X20595237Y-54105314D01*
X20595237Y-54105314D02*
X20690475Y-54010076D01*
X20690475Y-54010076D02*
X20880951Y-53914838D01*
X20880951Y-53914838D02*
X21357142Y-53914838D01*
X21357142Y-53914838D02*
X21642856Y-54010076D01*
X22880951Y-54962457D02*
X22880951Y-55914838D01*
X22214285Y-53914838D02*
X22880951Y-54962457D01*
X22880951Y-54962457D02*
X23547618Y-53914838D01*
X26404762Y-54867219D02*
X26690476Y-54962457D01*
X26690476Y-54962457D02*
X26785714Y-55057695D01*
X26785714Y-55057695D02*
X26880952Y-55248171D01*
X26880952Y-55248171D02*
X26880952Y-55533885D01*
X26880952Y-55533885D02*
X26785714Y-55724361D01*
X26785714Y-55724361D02*
X26690476Y-55819600D01*
X26690476Y-55819600D02*
X26500000Y-55914838D01*
X26500000Y-55914838D02*
X25738095Y-55914838D01*
X25738095Y-55914838D02*
X25738095Y-53914838D01*
X25738095Y-53914838D02*
X26404762Y-53914838D01*
X26404762Y-53914838D02*
X26595238Y-54010076D01*
X26595238Y-54010076D02*
X26690476Y-54105314D01*
X26690476Y-54105314D02*
X26785714Y-54295790D01*
X26785714Y-54295790D02*
X26785714Y-54486266D01*
X26785714Y-54486266D02*
X26690476Y-54676742D01*
X26690476Y-54676742D02*
X26595238Y-54771980D01*
X26595238Y-54771980D02*
X26404762Y-54867219D01*
X26404762Y-54867219D02*
X25738095Y-54867219D01*
X27738095Y-55914838D02*
X27738095Y-53914838D01*
X28404762Y-53914838D02*
X29547619Y-53914838D01*
X28976190Y-55914838D02*
X28976190Y-53914838D01*
X30119048Y-55819600D02*
X30404762Y-55914838D01*
X30404762Y-55914838D02*
X30880953Y-55914838D01*
X30880953Y-55914838D02*
X31071429Y-55819600D01*
X31071429Y-55819600D02*
X31166667Y-55724361D01*
X31166667Y-55724361D02*
X31261905Y-55533885D01*
X31261905Y-55533885D02*
X31261905Y-55343409D01*
X31261905Y-55343409D02*
X31166667Y-55152933D01*
X31166667Y-55152933D02*
X31071429Y-55057695D01*
X31071429Y-55057695D02*
X30880953Y-54962457D01*
X30880953Y-54962457D02*
X30500000Y-54867219D01*
X30500000Y-54867219D02*
X30309524Y-54771980D01*
X30309524Y-54771980D02*
X30214286Y-54676742D01*
X30214286Y-54676742D02*
X30119048Y-54486266D01*
X30119048Y-54486266D02*
X30119048Y-54295790D01*
X30119048Y-54295790D02*
X30214286Y-54105314D01*
X30214286Y-54105314D02*
X30309524Y-54010076D01*
X30309524Y-54010076D02*
X30500000Y-53914838D01*
X30500000Y-53914838D02*
X30976191Y-53914838D01*
X30976191Y-53914838D02*
X31261905Y-54010076D01*
X32500000Y-54962457D02*
X32500000Y-55914838D01*
X31833334Y-53914838D02*
X32500000Y-54962457D01*
X32500000Y-54962457D02*
X33166667Y-53914838D01*
D11*
X-1093695Y-64016917D02*
X239638Y-63635965D01*
X239638Y-63635965D02*
X-712742Y-63255012D01*
X-712742Y-63255012D02*
X239638Y-62874060D01*
X239638Y-62874060D02*
X-1093695Y-62493108D01*
X239638Y-60874060D02*
X-807980Y-60874060D01*
X-807980Y-60874060D02*
X-998457Y-60969298D01*
X-998457Y-60969298D02*
X-1093695Y-61159774D01*
X-1093695Y-61159774D02*
X-1093695Y-61540727D01*
X-1093695Y-61540727D02*
X-998457Y-61731203D01*
X144400Y-60874060D02*
X239638Y-61064536D01*
X239638Y-61064536D02*
X239638Y-61540727D01*
X239638Y-61540727D02*
X144400Y-61731203D01*
X144400Y-61731203D02*
X-46076Y-61826441D01*
X-46076Y-61826441D02*
X-236552Y-61826441D01*
X-236552Y-61826441D02*
X-427028Y-61731203D01*
X-427028Y-61731203D02*
X-522266Y-61540727D01*
X-522266Y-61540727D02*
X-522266Y-61064536D01*
X-522266Y-61064536D02*
X-617504Y-60874060D01*
X-1093695Y-60207393D02*
X-1093695Y-59445489D01*
X-1760361Y-59921679D02*
X-46076Y-59921679D01*
X-46076Y-59921679D02*
X144400Y-59826441D01*
X144400Y-59826441D02*
X239638Y-59635965D01*
X239638Y-59635965D02*
X239638Y-59445489D01*
X144400Y-58016917D02*
X239638Y-58207393D01*
X239638Y-58207393D02*
X239638Y-58588346D01*
X239638Y-58588346D02*
X144400Y-58778822D01*
X144400Y-58778822D02*
X-46076Y-58874060D01*
X-46076Y-58874060D02*
X-807980Y-58874060D01*
X-807980Y-58874060D02*
X-998457Y-58778822D01*
X-998457Y-58778822D02*
X-1093695Y-58588346D01*
X-1093695Y-58588346D02*
X-1093695Y-58207393D01*
X-1093695Y-58207393D02*
X-998457Y-58016917D01*
X-998457Y-58016917D02*
X-807980Y-57921679D01*
X-807980Y-57921679D02*
X-617504Y-57921679D01*
X-617504Y-57921679D02*
X-427028Y-58874060D01*
X239638Y-57064536D02*
X-1093695Y-57064536D01*
X-712742Y-57064536D02*
X-903219Y-56969298D01*
X-903219Y-56969298D02*
X-998457Y-56874060D01*
X-998457Y-56874060D02*
X-1093695Y-56683584D01*
X-1093695Y-56683584D02*
X-1093695Y-56493107D01*
X239638Y-55826441D02*
X-1760361Y-55826441D01*
X-998457Y-55826441D02*
X-1093695Y-55635965D01*
X-1093695Y-55635965D02*
X-1093695Y-55255012D01*
X-1093695Y-55255012D02*
X-998457Y-55064536D01*
X-998457Y-55064536D02*
X-903219Y-54969298D01*
X-903219Y-54969298D02*
X-712742Y-54874060D01*
X-712742Y-54874060D02*
X-141314Y-54874060D01*
X-141314Y-54874060D02*
X49161Y-54969298D01*
X49161Y-54969298D02*
X144400Y-55064536D01*
X144400Y-55064536D02*
X239638Y-55255012D01*
X239638Y-55255012D02*
X239638Y-55635965D01*
X239638Y-55635965D02*
X144400Y-55826441D01*
X144400Y-53255012D02*
X239638Y-53445488D01*
X239638Y-53445488D02*
X239638Y-53826441D01*
X239638Y-53826441D02*
X144400Y-54016917D01*
X144400Y-54016917D02*
X-46076Y-54112155D01*
X-46076Y-54112155D02*
X-807980Y-54112155D01*
X-807980Y-54112155D02*
X-998457Y-54016917D01*
X-998457Y-54016917D02*
X-1093695Y-53826441D01*
X-1093695Y-53826441D02*
X-1093695Y-53445488D01*
X-1093695Y-53445488D02*
X-998457Y-53255012D01*
X-998457Y-53255012D02*
X-807980Y-53159774D01*
X-807980Y-53159774D02*
X-617504Y-53159774D01*
X-617504Y-53159774D02*
X-427028Y-54112155D01*
X239638Y-51445488D02*
X-807980Y-51445488D01*
X-807980Y-51445488D02*
X-998457Y-51540726D01*
X-998457Y-51540726D02*
X-1093695Y-51731202D01*
X-1093695Y-51731202D02*
X-1093695Y-52112155D01*
X-1093695Y-52112155D02*
X-998457Y-52302631D01*
X144400Y-51445488D02*
X239638Y-51635964D01*
X239638Y-51635964D02*
X239638Y-52112155D01*
X239638Y-52112155D02*
X144400Y-52302631D01*
X144400Y-52302631D02*
X-46076Y-52397869D01*
X-46076Y-52397869D02*
X-236552Y-52397869D01*
X-236552Y-52397869D02*
X-427028Y-52302631D01*
X-427028Y-52302631D02*
X-522266Y-52112155D01*
X-522266Y-52112155D02*
X-522266Y-51635964D01*
X-522266Y-51635964D02*
X-617504Y-51445488D01*
X239638Y-50493107D02*
X-1093695Y-50493107D01*
X-712742Y-50493107D02*
X-903219Y-50397869D01*
X-903219Y-50397869D02*
X-998457Y-50302631D01*
X-998457Y-50302631D02*
X-1093695Y-50112155D01*
X-1093695Y-50112155D02*
X-1093695Y-49921678D01*
X-1093695Y-49540726D02*
X-1093695Y-48778822D01*
X239638Y-49255012D02*
X-1474647Y-49255012D01*
X-1474647Y-49255012D02*
X-1665123Y-49159774D01*
X-1665123Y-49159774D02*
X-1760361Y-48969298D01*
X-1760361Y-48969298D02*
X-1760361Y-48778822D01*
X239638Y-48112155D02*
X-1093695Y-48112155D01*
X-1760361Y-48112155D02*
X-1665123Y-48207393D01*
X-1665123Y-48207393D02*
X-1569885Y-48112155D01*
X-1569885Y-48112155D02*
X-1665123Y-48016917D01*
X-1665123Y-48016917D02*
X-1760361Y-48112155D01*
X-1760361Y-48112155D02*
X-1569885Y-48112155D01*
X144400Y-46397869D02*
X239638Y-46588345D01*
X239638Y-46588345D02*
X239638Y-46969298D01*
X239638Y-46969298D02*
X144400Y-47159774D01*
X144400Y-47159774D02*
X-46076Y-47255012D01*
X-46076Y-47255012D02*
X-807980Y-47255012D01*
X-807980Y-47255012D02*
X-998457Y-47159774D01*
X-998457Y-47159774D02*
X-1093695Y-46969298D01*
X-1093695Y-46969298D02*
X-1093695Y-46588345D01*
X-1093695Y-46588345D02*
X-998457Y-46397869D01*
X-998457Y-46397869D02*
X-807980Y-46302631D01*
X-807980Y-46302631D02*
X-617504Y-46302631D01*
X-617504Y-46302631D02*
X-427028Y-47255012D01*
X239638Y-45159774D02*
X144400Y-45350250D01*
X144400Y-45350250D02*
X-46076Y-45445488D01*
X-46076Y-45445488D02*
X-1760361Y-45445488D01*
X239638Y-43540726D02*
X-1760361Y-43540726D01*
X144400Y-43540726D02*
X239638Y-43731202D01*
X239638Y-43731202D02*
X239638Y-44112155D01*
X239638Y-44112155D02*
X144400Y-44302631D01*
X144400Y-44302631D02*
X49161Y-44397869D01*
X49161Y-44397869D02*
X-141314Y-44493107D01*
X-141314Y-44493107D02*
X-712742Y-44493107D01*
X-712742Y-44493107D02*
X-903219Y-44397869D01*
X-903219Y-44397869D02*
X-998457Y-44302631D01*
X-998457Y-44302631D02*
X-1093695Y-44112155D01*
X-1093695Y-44112155D02*
X-1093695Y-43731202D01*
X-1093695Y-43731202D02*
X-998457Y-43540726D01*
X144400Y-42683583D02*
X239638Y-42493107D01*
X239638Y-42493107D02*
X239638Y-42112155D01*
X239638Y-42112155D02*
X144400Y-41921678D01*
X144400Y-41921678D02*
X-46076Y-41826440D01*
X-46076Y-41826440D02*
X-141314Y-41826440D01*
X-141314Y-41826440D02*
X-331790Y-41921678D01*
X-331790Y-41921678D02*
X-427028Y-42112155D01*
X-427028Y-42112155D02*
X-427028Y-42397869D01*
X-427028Y-42397869D02*
X-522266Y-42588345D01*
X-522266Y-42588345D02*
X-712742Y-42683583D01*
X-712742Y-42683583D02*
X-807980Y-42683583D01*
X-807980Y-42683583D02*
X-998457Y-42588345D01*
X-998457Y-42588345D02*
X-1093695Y-42397869D01*
X-1093695Y-42397869D02*
X-1093695Y-42112155D01*
X-1093695Y-42112155D02*
X-998457Y-41921678D01*
X144400Y-40112154D02*
X239638Y-40302630D01*
X239638Y-40302630D02*
X239638Y-40683583D01*
X239638Y-40683583D02*
X144400Y-40874059D01*
X144400Y-40874059D02*
X49161Y-40969297D01*
X49161Y-40969297D02*
X-141314Y-41064535D01*
X-141314Y-41064535D02*
X-712742Y-41064535D01*
X-712742Y-41064535D02*
X-903219Y-40969297D01*
X-903219Y-40969297D02*
X-998457Y-40874059D01*
X-998457Y-40874059D02*
X-1093695Y-40683583D01*
X-1093695Y-40683583D02*
X-1093695Y-40302630D01*
X-1093695Y-40302630D02*
X-998457Y-40112154D01*
X239638Y-39255011D02*
X-1760361Y-39255011D01*
X239638Y-38397868D02*
X-807980Y-38397868D01*
X-807980Y-38397868D02*
X-998457Y-38493106D01*
X-998457Y-38493106D02*
X-1093695Y-38683582D01*
X-1093695Y-38683582D02*
X-1093695Y-38969297D01*
X-1093695Y-38969297D02*
X-998457Y-39159773D01*
X-998457Y-39159773D02*
X-903219Y-39255011D01*
X239638Y-37159773D02*
X144400Y-37350249D01*
X144400Y-37350249D02*
X49161Y-37445487D01*
X49161Y-37445487D02*
X-141314Y-37540725D01*
X-141314Y-37540725D02*
X-712742Y-37540725D01*
X-712742Y-37540725D02*
X-903219Y-37445487D01*
X-903219Y-37445487D02*
X-998457Y-37350249D01*
X-998457Y-37350249D02*
X-1093695Y-37159773D01*
X-1093695Y-37159773D02*
X-1093695Y-36874058D01*
X-1093695Y-36874058D02*
X-998457Y-36683582D01*
X-998457Y-36683582D02*
X-903219Y-36588344D01*
X-903219Y-36588344D02*
X-712742Y-36493106D01*
X-712742Y-36493106D02*
X-141314Y-36493106D01*
X-141314Y-36493106D02*
X49161Y-36588344D01*
X49161Y-36588344D02*
X144400Y-36683582D01*
X144400Y-36683582D02*
X239638Y-36874058D01*
X239638Y-36874058D02*
X239638Y-37159773D01*
X239638Y-35350249D02*
X144400Y-35540725D01*
X144400Y-35540725D02*
X49161Y-35635963D01*
X49161Y-35635963D02*
X-141314Y-35731201D01*
X-141314Y-35731201D02*
X-712742Y-35731201D01*
X-712742Y-35731201D02*
X-903219Y-35635963D01*
X-903219Y-35635963D02*
X-998457Y-35540725D01*
X-998457Y-35540725D02*
X-1093695Y-35350249D01*
X-1093695Y-35350249D02*
X-1093695Y-35064534D01*
X-1093695Y-35064534D02*
X-998457Y-34874058D01*
X-998457Y-34874058D02*
X-903219Y-34778820D01*
X-903219Y-34778820D02*
X-712742Y-34683582D01*
X-712742Y-34683582D02*
X-141314Y-34683582D01*
X-141314Y-34683582D02*
X49161Y-34778820D01*
X49161Y-34778820D02*
X144400Y-34874058D01*
X144400Y-34874058D02*
X239638Y-35064534D01*
X239638Y-35064534D02*
X239638Y-35350249D01*
X239638Y-33540725D02*
X144400Y-33731201D01*
X144400Y-33731201D02*
X-46076Y-33826439D01*
X-46076Y-33826439D02*
X-1760361Y-33826439D01*
X49161Y-32778820D02*
X144400Y-32683582D01*
X144400Y-32683582D02*
X239638Y-32778820D01*
X239638Y-32778820D02*
X144400Y-32874058D01*
X144400Y-32874058D02*
X49161Y-32778820D01*
X49161Y-32778820D02*
X239638Y-32778820D01*
X239638Y-31540725D02*
X144400Y-31731201D01*
X144400Y-31731201D02*
X49161Y-31826439D01*
X49161Y-31826439D02*
X-141314Y-31921677D01*
X-141314Y-31921677D02*
X-712742Y-31921677D01*
X-712742Y-31921677D02*
X-903219Y-31826439D01*
X-903219Y-31826439D02*
X-998457Y-31731201D01*
X-998457Y-31731201D02*
X-1093695Y-31540725D01*
X-1093695Y-31540725D02*
X-1093695Y-31255010D01*
X-1093695Y-31255010D02*
X-998457Y-31064534D01*
X-998457Y-31064534D02*
X-903219Y-30969296D01*
X-903219Y-30969296D02*
X-712742Y-30874058D01*
X-712742Y-30874058D02*
X-141314Y-30874058D01*
X-141314Y-30874058D02*
X49161Y-30969296D01*
X49161Y-30969296D02*
X144400Y-31064534D01*
X144400Y-31064534D02*
X239638Y-31255010D01*
X239638Y-31255010D02*
X239638Y-31540725D01*
X239638Y-30016915D02*
X-1093695Y-30016915D01*
X-712742Y-30016915D02*
X-903219Y-29921677D01*
X-903219Y-29921677D02*
X-998457Y-29826439D01*
X-998457Y-29826439D02*
X-1093695Y-29635963D01*
X-1093695Y-29635963D02*
X-1093695Y-29445486D01*
X-1093695Y-27921677D02*
X525352Y-27921677D01*
X525352Y-27921677D02*
X715828Y-28016915D01*
X715828Y-28016915D02*
X811066Y-28112153D01*
X811066Y-28112153D02*
X906304Y-28302630D01*
X906304Y-28302630D02*
X906304Y-28588344D01*
X906304Y-28588344D02*
X811066Y-28778820D01*
X144400Y-27921677D02*
X239638Y-28112153D01*
X239638Y-28112153D02*
X239638Y-28493106D01*
X239638Y-28493106D02*
X144400Y-28683582D01*
X144400Y-28683582D02*
X49161Y-28778820D01*
X49161Y-28778820D02*
X-141314Y-28874058D01*
X-141314Y-28874058D02*
X-712742Y-28874058D01*
X-712742Y-28874058D02*
X-903219Y-28778820D01*
X-903219Y-28778820D02*
X-998457Y-28683582D01*
X-998457Y-28683582D02*
X-1093695Y-28493106D01*
X-1093695Y-28493106D02*
X-1093695Y-28112153D01*
X-1093695Y-28112153D02*
X-998457Y-27921677D01*
X-1855600Y-25540725D02*
X715828Y-27255010D01*
X239638Y-24874058D02*
X-1093695Y-24874058D01*
X-903219Y-24874058D02*
X-998457Y-24778820D01*
X-998457Y-24778820D02*
X-1093695Y-24588344D01*
X-1093695Y-24588344D02*
X-1093695Y-24302629D01*
X-1093695Y-24302629D02*
X-998457Y-24112153D01*
X-998457Y-24112153D02*
X-807980Y-24016915D01*
X-807980Y-24016915D02*
X239638Y-24016915D01*
X-807980Y-24016915D02*
X-998457Y-23921677D01*
X-998457Y-23921677D02*
X-1093695Y-23731201D01*
X-1093695Y-23731201D02*
X-1093695Y-23445487D01*
X-1093695Y-23445487D02*
X-998457Y-23255010D01*
X-998457Y-23255010D02*
X-807980Y-23159772D01*
X-807980Y-23159772D02*
X239638Y-23159772D01*
X144400Y-21445486D02*
X239638Y-21635962D01*
X239638Y-21635962D02*
X239638Y-22016915D01*
X239638Y-22016915D02*
X144400Y-22207391D01*
X144400Y-22207391D02*
X-46076Y-22302629D01*
X-46076Y-22302629D02*
X-807980Y-22302629D01*
X-807980Y-22302629D02*
X-998457Y-22207391D01*
X-998457Y-22207391D02*
X-1093695Y-22016915D01*
X-1093695Y-22016915D02*
X-1093695Y-21635962D01*
X-1093695Y-21635962D02*
X-998457Y-21445486D01*
X-998457Y-21445486D02*
X-807980Y-21350248D01*
X-807980Y-21350248D02*
X-617504Y-21350248D01*
X-617504Y-21350248D02*
X-427028Y-22302629D01*
X144400Y-20588343D02*
X239638Y-20397867D01*
X239638Y-20397867D02*
X239638Y-20016915D01*
X239638Y-20016915D02*
X144400Y-19826438D01*
X144400Y-19826438D02*
X-46076Y-19731200D01*
X-46076Y-19731200D02*
X-141314Y-19731200D01*
X-141314Y-19731200D02*
X-331790Y-19826438D01*
X-331790Y-19826438D02*
X-427028Y-20016915D01*
X-427028Y-20016915D02*
X-427028Y-20302629D01*
X-427028Y-20302629D02*
X-522266Y-20493105D01*
X-522266Y-20493105D02*
X-712742Y-20588343D01*
X-712742Y-20588343D02*
X-807980Y-20588343D01*
X-807980Y-20588343D02*
X-998457Y-20493105D01*
X-998457Y-20493105D02*
X-1093695Y-20302629D01*
X-1093695Y-20302629D02*
X-1093695Y-20016915D01*
X-1093695Y-20016915D02*
X-998457Y-19826438D01*
X239638Y-18874057D02*
X-1760361Y-18874057D01*
X239638Y-18016914D02*
X-807980Y-18016914D01*
X-807980Y-18016914D02*
X-998457Y-18112152D01*
X-998457Y-18112152D02*
X-1093695Y-18302628D01*
X-1093695Y-18302628D02*
X-1093695Y-18588343D01*
X-1093695Y-18588343D02*
X-998457Y-18778819D01*
X-998457Y-18778819D02*
X-903219Y-18874057D01*
X-522266Y-17064533D02*
X-522266Y-15540724D01*
X239638Y-13731200D02*
X-1760361Y-13731200D01*
X144400Y-13731200D02*
X239638Y-13921676D01*
X239638Y-13921676D02*
X239638Y-14302629D01*
X239638Y-14302629D02*
X144400Y-14493105D01*
X144400Y-14493105D02*
X49161Y-14588343D01*
X49161Y-14588343D02*
X-141314Y-14683581D01*
X-141314Y-14683581D02*
X-712742Y-14683581D01*
X-712742Y-14683581D02*
X-903219Y-14588343D01*
X-903219Y-14588343D02*
X-998457Y-14493105D01*
X-998457Y-14493105D02*
X-1093695Y-14302629D01*
X-1093695Y-14302629D02*
X-1093695Y-13921676D01*
X-1093695Y-13921676D02*
X-998457Y-13731200D01*
X144400Y-12016914D02*
X239638Y-12207390D01*
X239638Y-12207390D02*
X239638Y-12588343D01*
X239638Y-12588343D02*
X144400Y-12778819D01*
X144400Y-12778819D02*
X-46076Y-12874057D01*
X-46076Y-12874057D02*
X-807980Y-12874057D01*
X-807980Y-12874057D02*
X-998457Y-12778819D01*
X-998457Y-12778819D02*
X-1093695Y-12588343D01*
X-1093695Y-12588343D02*
X-1093695Y-12207390D01*
X-1093695Y-12207390D02*
X-998457Y-12016914D01*
X-998457Y-12016914D02*
X-807980Y-11921676D01*
X-807980Y-11921676D02*
X-617504Y-11921676D01*
X-617504Y-11921676D02*
X-427028Y-12874057D01*
X-1093695Y-11064533D02*
X906304Y-11064533D01*
X-998457Y-11064533D02*
X-1093695Y-10874057D01*
X-1093695Y-10874057D02*
X-1093695Y-10493104D01*
X-1093695Y-10493104D02*
X-998457Y-10302628D01*
X-998457Y-10302628D02*
X-903219Y-10207390D01*
X-903219Y-10207390D02*
X-712742Y-10112152D01*
X-712742Y-10112152D02*
X-141314Y-10112152D01*
X-141314Y-10112152D02*
X49161Y-10207390D01*
X49161Y-10207390D02*
X144400Y-10302628D01*
X144400Y-10302628D02*
X239638Y-10493104D01*
X239638Y-10493104D02*
X239638Y-10874057D01*
X239638Y-10874057D02*
X144400Y-11064533D01*
X-1093695Y-9540723D02*
X-1093695Y-8778819D01*
X-1760361Y-9255009D02*
X-46076Y-9255009D01*
X-46076Y-9255009D02*
X144400Y-9159771D01*
X144400Y-9159771D02*
X239638Y-8969295D01*
X239638Y-8969295D02*
X239638Y-8778819D01*
X239638Y-8112152D02*
X-1760361Y-8112152D01*
X239638Y-7255009D02*
X-807980Y-7255009D01*
X-807980Y-7255009D02*
X-998457Y-7350247D01*
X-998457Y-7350247D02*
X-1093695Y-7540723D01*
X-1093695Y-7540723D02*
X-1093695Y-7826438D01*
X-1093695Y-7826438D02*
X-998457Y-8016914D01*
X-998457Y-8016914D02*
X-903219Y-8112152D01*
X8673558Y260361D02*
X8673558Y1593695D01*
X8673558Y1403219D02*
X8768796Y1498457D01*
X8768796Y1498457D02*
X8959272Y1593695D01*
X8959272Y1593695D02*
X9244987Y1593695D01*
X9244987Y1593695D02*
X9435463Y1498457D01*
X9435463Y1498457D02*
X9530701Y1307980D01*
X9530701Y1307980D02*
X9530701Y260361D01*
X9530701Y1307980D02*
X9625939Y1498457D01*
X9625939Y1498457D02*
X9816415Y1593695D01*
X9816415Y1593695D02*
X10102129Y1593695D01*
X10102129Y1593695D02*
X10292606Y1498457D01*
X10292606Y1498457D02*
X10387844Y1307980D01*
X10387844Y1307980D02*
X10387844Y260361D01*
X12102130Y355600D02*
X11911654Y260361D01*
X11911654Y260361D02*
X11530701Y260361D01*
X11530701Y260361D02*
X11340225Y355600D01*
X11340225Y355600D02*
X11244987Y546076D01*
X11244987Y546076D02*
X11244987Y1307980D01*
X11244987Y1307980D02*
X11340225Y1498457D01*
X11340225Y1498457D02*
X11530701Y1593695D01*
X11530701Y1593695D02*
X11911654Y1593695D01*
X11911654Y1593695D02*
X12102130Y1498457D01*
X12102130Y1498457D02*
X12197368Y1307980D01*
X12197368Y1307980D02*
X12197368Y1117504D01*
X12197368Y1117504D02*
X11244987Y927028D01*
X12959273Y355600D02*
X13149749Y260361D01*
X13149749Y260361D02*
X13530701Y260361D01*
X13530701Y260361D02*
X13721178Y355600D01*
X13721178Y355600D02*
X13816416Y546076D01*
X13816416Y546076D02*
X13816416Y641314D01*
X13816416Y641314D02*
X13721178Y831790D01*
X13721178Y831790D02*
X13530701Y927028D01*
X13530701Y927028D02*
X13244987Y927028D01*
X13244987Y927028D02*
X13054511Y1022266D01*
X13054511Y1022266D02*
X12959273Y1212742D01*
X12959273Y1212742D02*
X12959273Y1307980D01*
X12959273Y1307980D02*
X13054511Y1498457D01*
X13054511Y1498457D02*
X13244987Y1593695D01*
X13244987Y1593695D02*
X13530701Y1593695D01*
X13530701Y1593695D02*
X13721178Y1498457D01*
X14673559Y260361D02*
X14673559Y2260361D01*
X15530702Y260361D02*
X15530702Y1307980D01*
X15530702Y1307980D02*
X15435464Y1498457D01*
X15435464Y1498457D02*
X15244988Y1593695D01*
X15244988Y1593695D02*
X14959273Y1593695D01*
X14959273Y1593695D02*
X14768797Y1498457D01*
X14768797Y1498457D02*
X14673559Y1403219D01*
X16483083Y1022266D02*
X18006893Y1022266D01*
X19816416Y260361D02*
X19816416Y2260361D01*
X19816416Y355600D02*
X19625940Y260361D01*
X19625940Y260361D02*
X19244987Y260361D01*
X19244987Y260361D02*
X19054511Y355600D01*
X19054511Y355600D02*
X18959273Y450838D01*
X18959273Y450838D02*
X18864035Y641314D01*
X18864035Y641314D02*
X18864035Y1212742D01*
X18864035Y1212742D02*
X18959273Y1403219D01*
X18959273Y1403219D02*
X19054511Y1498457D01*
X19054511Y1498457D02*
X19244987Y1593695D01*
X19244987Y1593695D02*
X19625940Y1593695D01*
X19625940Y1593695D02*
X19816416Y1498457D01*
X21530702Y355600D02*
X21340226Y260361D01*
X21340226Y260361D02*
X20959273Y260361D01*
X20959273Y260361D02*
X20768797Y355600D01*
X20768797Y355600D02*
X20673559Y546076D01*
X20673559Y546076D02*
X20673559Y1307980D01*
X20673559Y1307980D02*
X20768797Y1498457D01*
X20768797Y1498457D02*
X20959273Y1593695D01*
X20959273Y1593695D02*
X21340226Y1593695D01*
X21340226Y1593695D02*
X21530702Y1498457D01*
X21530702Y1498457D02*
X21625940Y1307980D01*
X21625940Y1307980D02*
X21625940Y1117504D01*
X21625940Y1117504D02*
X20673559Y927028D01*
X22483083Y1593695D02*
X22483083Y-406304D01*
X22483083Y1498457D02*
X22673559Y1593695D01*
X22673559Y1593695D02*
X23054512Y1593695D01*
X23054512Y1593695D02*
X23244988Y1498457D01*
X23244988Y1498457D02*
X23340226Y1403219D01*
X23340226Y1403219D02*
X23435464Y1212742D01*
X23435464Y1212742D02*
X23435464Y641314D01*
X23435464Y641314D02*
X23340226Y450838D01*
X23340226Y450838D02*
X23244988Y355600D01*
X23244988Y355600D02*
X23054512Y260361D01*
X23054512Y260361D02*
X22673559Y260361D01*
X22673559Y260361D02*
X22483083Y355600D01*
X24006893Y1593695D02*
X24768797Y1593695D01*
X24292607Y2260361D02*
X24292607Y546076D01*
X24292607Y546076D02*
X24387845Y355600D01*
X24387845Y355600D02*
X24578321Y260361D01*
X24578321Y260361D02*
X24768797Y260361D01*
X25435464Y260361D02*
X25435464Y2260361D01*
X26292607Y260361D02*
X26292607Y1307980D01*
X26292607Y1307980D02*
X26197369Y1498457D01*
X26197369Y1498457D02*
X26006893Y1593695D01*
X26006893Y1593695D02*
X25721178Y1593695D01*
X25721178Y1593695D02*
X25530702Y1498457D01*
X25530702Y1498457D02*
X25435464Y1403219D01*
X28578322Y1593695D02*
X29054512Y260361D01*
X29054512Y260361D02*
X29530703Y1593695D01*
X30673560Y2260361D02*
X30864037Y2260361D01*
X30864037Y2260361D02*
X31054513Y2165123D01*
X31054513Y2165123D02*
X31149751Y2069885D01*
X31149751Y2069885D02*
X31244989Y1879409D01*
X31244989Y1879409D02*
X31340227Y1498457D01*
X31340227Y1498457D02*
X31340227Y1022266D01*
X31340227Y1022266D02*
X31244989Y641314D01*
X31244989Y641314D02*
X31149751Y450838D01*
X31149751Y450838D02*
X31054513Y355600D01*
X31054513Y355600D02*
X30864037Y260361D01*
X30864037Y260361D02*
X30673560Y260361D01*
X30673560Y260361D02*
X30483084Y355600D01*
X30483084Y355600D02*
X30387846Y450838D01*
X30387846Y450838D02*
X30292608Y641314D01*
X30292608Y641314D02*
X30197370Y1022266D01*
X30197370Y1022266D02*
X30197370Y1498457D01*
X30197370Y1498457D02*
X30292608Y1879409D01*
X30292608Y1879409D02*
X30387846Y2069885D01*
X30387846Y2069885D02*
X30483084Y2165123D01*
X30483084Y2165123D02*
X30673560Y2260361D01*
X32197370Y450838D02*
X32292608Y355600D01*
X32292608Y355600D02*
X32197370Y260361D01*
X32197370Y260361D02*
X32102132Y355600D01*
X32102132Y355600D02*
X32197370Y450838D01*
X32197370Y450838D02*
X32197370Y260361D01*
X33054513Y2069885D02*
X33149751Y2165123D01*
X33149751Y2165123D02*
X33340227Y2260361D01*
X33340227Y2260361D02*
X33816418Y2260361D01*
X33816418Y2260361D02*
X34006894Y2165123D01*
X34006894Y2165123D02*
X34102132Y2069885D01*
X34102132Y2069885D02*
X34197370Y1879409D01*
X34197370Y1879409D02*
X34197370Y1688933D01*
X34197370Y1688933D02*
X34102132Y1403219D01*
X34102132Y1403219D02*
X32959275Y260361D01*
X32959275Y260361D02*
X34197370Y260361D01*
D12*
X68177800Y2710839D02*
X68130180Y2567982D01*
X68130180Y2567982D02*
X68130180Y2329887D01*
X68130180Y2329887D02*
X68177800Y2234649D01*
X68177800Y2234649D02*
X68225419Y2187030D01*
X68225419Y2187030D02*
X68320657Y2139411D01*
X68320657Y2139411D02*
X68415895Y2139411D01*
X68415895Y2139411D02*
X68511133Y2187030D01*
X68511133Y2187030D02*
X68558752Y2234649D01*
X68558752Y2234649D02*
X68606371Y2329887D01*
X68606371Y2329887D02*
X68653990Y2520363D01*
X68653990Y2520363D02*
X68701609Y2615601D01*
X68701609Y2615601D02*
X68749228Y2663220D01*
X68749228Y2663220D02*
X68844466Y2710839D01*
X68844466Y2710839D02*
X68939704Y2710839D01*
X68939704Y2710839D02*
X69034942Y2663220D01*
X69034942Y2663220D02*
X69082561Y2615601D01*
X69082561Y2615601D02*
X69130180Y2520363D01*
X69130180Y2520363D02*
X69130180Y2282268D01*
X69130180Y2282268D02*
X69082561Y2139411D01*
X68225419Y1139411D02*
X68177800Y1187030D01*
X68177800Y1187030D02*
X68130180Y1329887D01*
X68130180Y1329887D02*
X68130180Y1425125D01*
X68130180Y1425125D02*
X68177800Y1567982D01*
X68177800Y1567982D02*
X68273038Y1663220D01*
X68273038Y1663220D02*
X68368276Y1710839D01*
X68368276Y1710839D02*
X68558752Y1758458D01*
X68558752Y1758458D02*
X68701609Y1758458D01*
X68701609Y1758458D02*
X68892085Y1710839D01*
X68892085Y1710839D02*
X68987323Y1663220D01*
X68987323Y1663220D02*
X69082561Y1567982D01*
X69082561Y1567982D02*
X69130180Y1425125D01*
X69130180Y1425125D02*
X69130180Y1329887D01*
X69130180Y1329887D02*
X69082561Y1187030D01*
X69082561Y1187030D02*
X69034942Y1139411D01*
X68130180Y234649D02*
X68130180Y710839D01*
X68130180Y710839D02*
X69130180Y710839D01*
X70177800Y2710839D02*
X70130180Y2567982D01*
X70130180Y2567982D02*
X70130180Y2329887D01*
X70130180Y2329887D02*
X70177800Y2234649D01*
X70177800Y2234649D02*
X70225419Y2187030D01*
X70225419Y2187030D02*
X70320657Y2139411D01*
X70320657Y2139411D02*
X70415895Y2139411D01*
X70415895Y2139411D02*
X70511133Y2187030D01*
X70511133Y2187030D02*
X70558752Y2234649D01*
X70558752Y2234649D02*
X70606371Y2329887D01*
X70606371Y2329887D02*
X70653990Y2520363D01*
X70653990Y2520363D02*
X70701609Y2615601D01*
X70701609Y2615601D02*
X70749228Y2663220D01*
X70749228Y2663220D02*
X70844466Y2710839D01*
X70844466Y2710839D02*
X70939704Y2710839D01*
X70939704Y2710839D02*
X71034942Y2663220D01*
X71034942Y2663220D02*
X71082561Y2615601D01*
X71082561Y2615601D02*
X71130180Y2520363D01*
X71130180Y2520363D02*
X71130180Y2282268D01*
X71130180Y2282268D02*
X71082561Y2139411D01*
X70130180Y1710839D02*
X71130180Y1710839D01*
X71130180Y1710839D02*
X71130180Y1472744D01*
X71130180Y1472744D02*
X71082561Y1329887D01*
X71082561Y1329887D02*
X70987323Y1234649D01*
X70987323Y1234649D02*
X70892085Y1187030D01*
X70892085Y1187030D02*
X70701609Y1139411D01*
X70701609Y1139411D02*
X70558752Y1139411D01*
X70558752Y1139411D02*
X70368276Y1187030D01*
X70368276Y1187030D02*
X70273038Y1234649D01*
X70273038Y1234649D02*
X70177800Y1329887D01*
X70177800Y1329887D02*
X70130180Y1472744D01*
X70130180Y1472744D02*
X70130180Y1710839D01*
X70415895Y758458D02*
X70415895Y282268D01*
X70130180Y853696D02*
X71130180Y520363D01*
X71130180Y520363D02*
X70130180Y187030D01*
X73130180Y2758458D02*
X73130180Y2139411D01*
X73130180Y2139411D02*
X72749228Y2472744D01*
X72749228Y2472744D02*
X72749228Y2329887D01*
X72749228Y2329887D02*
X72701609Y2234649D01*
X72701609Y2234649D02*
X72653990Y2187030D01*
X72653990Y2187030D02*
X72558752Y2139411D01*
X72558752Y2139411D02*
X72320657Y2139411D01*
X72320657Y2139411D02*
X72225419Y2187030D01*
X72225419Y2187030D02*
X72177800Y2234649D01*
X72177800Y2234649D02*
X72130180Y2329887D01*
X72130180Y2329887D02*
X72130180Y2615601D01*
X72130180Y2615601D02*
X72177800Y2710839D01*
X72177800Y2710839D02*
X72225419Y2758458D01*
X73130180Y1853696D02*
X72130180Y1520363D01*
X72130180Y1520363D02*
X73130180Y1187030D01*
X73130180Y948934D02*
X73130180Y329887D01*
X73130180Y329887D02*
X72749228Y663220D01*
X72749228Y663220D02*
X72749228Y520363D01*
X72749228Y520363D02*
X72701609Y425125D01*
X72701609Y425125D02*
X72653990Y377506D01*
X72653990Y377506D02*
X72558752Y329887D01*
X72558752Y329887D02*
X72320657Y329887D01*
X72320657Y329887D02*
X72225419Y377506D01*
X72225419Y377506D02*
X72177800Y425125D01*
X72177800Y425125D02*
X72130180Y520363D01*
X72130180Y520363D02*
X72130180Y806077D01*
X72130180Y806077D02*
X72177800Y901315D01*
X72177800Y901315D02*
X72225419Y948934D01*
X75082561Y2139411D02*
X75130180Y2234649D01*
X75130180Y2234649D02*
X75130180Y2377506D01*
X75130180Y2377506D02*
X75082561Y2520363D01*
X75082561Y2520363D02*
X74987323Y2615601D01*
X74987323Y2615601D02*
X74892085Y2663220D01*
X74892085Y2663220D02*
X74701609Y2710839D01*
X74701609Y2710839D02*
X74558752Y2710839D01*
X74558752Y2710839D02*
X74368276Y2663220D01*
X74368276Y2663220D02*
X74273038Y2615601D01*
X74273038Y2615601D02*
X74177800Y2520363D01*
X74177800Y2520363D02*
X74130180Y2377506D01*
X74130180Y2377506D02*
X74130180Y2282268D01*
X74130180Y2282268D02*
X74177800Y2139411D01*
X74177800Y2139411D02*
X74225419Y2091792D01*
X74225419Y2091792D02*
X74558752Y2091792D01*
X74558752Y2091792D02*
X74558752Y2282268D01*
X74130180Y1663220D02*
X75130180Y1663220D01*
X75130180Y1663220D02*
X74130180Y1091792D01*
X74130180Y1091792D02*
X75130180Y1091792D01*
X74130180Y615601D02*
X75130180Y615601D01*
X75130180Y615601D02*
X75130180Y377506D01*
X75130180Y377506D02*
X75082561Y234649D01*
X75082561Y234649D02*
X74987323Y139411D01*
X74987323Y139411D02*
X74892085Y91792D01*
X74892085Y91792D02*
X74701609Y44173D01*
X74701609Y44173D02*
X74558752Y44173D01*
X74558752Y44173D02*
X74368276Y91792D01*
X74368276Y91792D02*
X74273038Y139411D01*
X74273038Y139411D02*
X74177800Y234649D01*
X74177800Y234649D02*
X74130180Y377506D01*
X74130180Y377506D02*
X74130180Y615601D01*
X63260588Y-72119819D02*
X62689160Y-72119819D01*
X62974874Y-72119819D02*
X62974874Y-71119819D01*
X62974874Y-71119819D02*
X62879636Y-71262676D01*
X62879636Y-71262676D02*
X62784398Y-71357914D01*
X62784398Y-71357914D02*
X62689160Y-71405533D01*
X63593922Y-71119819D02*
X63832017Y-72119819D01*
X63832017Y-72119819D02*
X64022493Y-71405533D01*
X64022493Y-71405533D02*
X64212969Y-72119819D01*
X64212969Y-72119819D02*
X64451065Y-71119819D01*
X35619819Y-40758458D02*
X35619819Y-40139411D01*
X35619819Y-40139411D02*
X36000771Y-40472744D01*
X36000771Y-40472744D02*
X36000771Y-40329887D01*
X36000771Y-40329887D02*
X36048390Y-40234649D01*
X36048390Y-40234649D02*
X36096009Y-40187030D01*
X36096009Y-40187030D02*
X36191247Y-40139411D01*
X36191247Y-40139411D02*
X36429342Y-40139411D01*
X36429342Y-40139411D02*
X36524580Y-40187030D01*
X36524580Y-40187030D02*
X36572200Y-40234649D01*
X36572200Y-40234649D02*
X36619819Y-40329887D01*
X36619819Y-40329887D02*
X36619819Y-40615601D01*
X36619819Y-40615601D02*
X36572200Y-40710839D01*
X36572200Y-40710839D02*
X36524580Y-40758458D01*
X35619819Y-39853696D02*
X36619819Y-39520363D01*
X36619819Y-39520363D02*
X35619819Y-39187030D01*
X35619819Y-38948934D02*
X35619819Y-38329887D01*
X35619819Y-38329887D02*
X36000771Y-38663220D01*
X36000771Y-38663220D02*
X36000771Y-38520363D01*
X36000771Y-38520363D02*
X36048390Y-38425125D01*
X36048390Y-38425125D02*
X36096009Y-38377506D01*
X36096009Y-38377506D02*
X36191247Y-38329887D01*
X36191247Y-38329887D02*
X36429342Y-38329887D01*
X36429342Y-38329887D02*
X36524580Y-38377506D01*
X36524580Y-38377506D02*
X36572200Y-38425125D01*
X36572200Y-38425125D02*
X36619819Y-38520363D01*
X36619819Y-38520363D02*
X36619819Y-38806077D01*
X36619819Y-38806077D02*
X36572200Y-38901315D01*
X36572200Y-38901315D02*
X36524580Y-38948934D01*
X52369819Y-413220D02*
X51369819Y-413220D01*
X51369819Y253445D02*
X51369819Y443921D01*
X51369819Y443921D02*
X51417438Y539159D01*
X51417438Y539159D02*
X51512676Y634397D01*
X51512676Y634397D02*
X51703152Y682016D01*
X51703152Y682016D02*
X52036485Y682016D01*
X52036485Y682016D02*
X52226961Y634397D01*
X52226961Y634397D02*
X52322200Y539159D01*
X52322200Y539159D02*
X52369819Y443921D01*
X52369819Y443921D02*
X52369819Y253445D01*
X52369819Y253445D02*
X52322200Y158207D01*
X52322200Y158207D02*
X52226961Y62969D01*
X52226961Y62969D02*
X52036485Y15350D01*
X52036485Y15350D02*
X51703152Y15350D01*
X51703152Y15350D02*
X51512676Y62969D01*
X51512676Y62969D02*
X51417438Y158207D01*
X51417438Y158207D02*
X51369819Y253445D01*
X52369819Y1634397D02*
X52369819Y1062969D01*
X52369819Y1348683D02*
X51369819Y1348683D01*
X51369819Y1348683D02*
X51512676Y1253445D01*
X51512676Y1253445D02*
X51607914Y1158207D01*
X51607914Y1158207D02*
X51655533Y1062969D01*
X23869819Y-40913220D02*
X22869819Y-40913220D01*
X22869819Y-40913220D02*
X22869819Y-40675125D01*
X22869819Y-40675125D02*
X22917438Y-40532268D01*
X22917438Y-40532268D02*
X23012676Y-40437030D01*
X23012676Y-40437030D02*
X23107914Y-40389411D01*
X23107914Y-40389411D02*
X23298390Y-40341792D01*
X23298390Y-40341792D02*
X23441247Y-40341792D01*
X23441247Y-40341792D02*
X23631723Y-40389411D01*
X23631723Y-40389411D02*
X23726961Y-40437030D01*
X23726961Y-40437030D02*
X23822200Y-40532268D01*
X23822200Y-40532268D02*
X23869819Y-40675125D01*
X23869819Y-40675125D02*
X23869819Y-40913220D01*
X23869819Y-39389411D02*
X23869819Y-39960839D01*
X23869819Y-39675125D02*
X22869819Y-39675125D01*
X22869819Y-39675125D02*
X23012676Y-39770363D01*
X23012676Y-39770363D02*
X23107914Y-39865601D01*
X23107914Y-39865601D02*
X23155533Y-39960839D01*
X22965057Y-39008458D02*
X22917438Y-38960839D01*
X22917438Y-38960839D02*
X22869819Y-38865601D01*
X22869819Y-38865601D02*
X22869819Y-38627506D01*
X22869819Y-38627506D02*
X22917438Y-38532268D01*
X22917438Y-38532268D02*
X22965057Y-38484649D01*
X22965057Y-38484649D02*
X23060295Y-38437030D01*
X23060295Y-38437030D02*
X23155533Y-38437030D01*
X23155533Y-38437030D02*
X23298390Y-38484649D01*
X23298390Y-38484649D02*
X23869819Y-39056077D01*
X23869819Y-39056077D02*
X23869819Y-38437030D01*
X85727438Y-14639411D02*
X85679819Y-14734649D01*
X85679819Y-14734649D02*
X85679819Y-14877506D01*
X85679819Y-14877506D02*
X85727438Y-15020363D01*
X85727438Y-15020363D02*
X85822676Y-15115601D01*
X85822676Y-15115601D02*
X85917914Y-15163220D01*
X85917914Y-15163220D02*
X86108390Y-15210839D01*
X86108390Y-15210839D02*
X86251247Y-15210839D01*
X86251247Y-15210839D02*
X86441723Y-15163220D01*
X86441723Y-15163220D02*
X86536961Y-15115601D01*
X86536961Y-15115601D02*
X86632200Y-15020363D01*
X86632200Y-15020363D02*
X86679819Y-14877506D01*
X86679819Y-14877506D02*
X86679819Y-14782268D01*
X86679819Y-14782268D02*
X86632200Y-14639411D01*
X86632200Y-14639411D02*
X86584580Y-14591792D01*
X86584580Y-14591792D02*
X86251247Y-14591792D01*
X86251247Y-14591792D02*
X86251247Y-14782268D01*
X86679819Y-14163220D02*
X85679819Y-14163220D01*
X85679819Y-14163220D02*
X86679819Y-13591792D01*
X86679819Y-13591792D02*
X85679819Y-13591792D01*
X86679819Y-13115601D02*
X85679819Y-13115601D01*
X85679819Y-13115601D02*
X85679819Y-12877506D01*
X85679819Y-12877506D02*
X85727438Y-12734649D01*
X85727438Y-12734649D02*
X85822676Y-12639411D01*
X85822676Y-12639411D02*
X85917914Y-12591792D01*
X85917914Y-12591792D02*
X86108390Y-12544173D01*
X86108390Y-12544173D02*
X86251247Y-12544173D01*
X86251247Y-12544173D02*
X86441723Y-12591792D01*
X86441723Y-12591792D02*
X86536961Y-12639411D01*
X86536961Y-12639411D02*
X86632200Y-12734649D01*
X86632200Y-12734649D02*
X86679819Y-12877506D01*
X86679819Y-12877506D02*
X86679819Y-13115601D01*
X28869819Y-40663220D02*
X27869819Y-40663220D01*
X27869819Y-40663220D02*
X27869819Y-40425125D01*
X27869819Y-40425125D02*
X27917438Y-40282268D01*
X27917438Y-40282268D02*
X28012676Y-40187030D01*
X28012676Y-40187030D02*
X28107914Y-40139411D01*
X28107914Y-40139411D02*
X28298390Y-40091792D01*
X28298390Y-40091792D02*
X28441247Y-40091792D01*
X28441247Y-40091792D02*
X28631723Y-40139411D01*
X28631723Y-40139411D02*
X28726961Y-40187030D01*
X28726961Y-40187030D02*
X28822200Y-40282268D01*
X28822200Y-40282268D02*
X28869819Y-40425125D01*
X28869819Y-40425125D02*
X28869819Y-40663220D01*
X27869819Y-39472744D02*
X27869819Y-39282268D01*
X27869819Y-39282268D02*
X27917438Y-39187030D01*
X27917438Y-39187030D02*
X28012676Y-39091792D01*
X28012676Y-39091792D02*
X28203152Y-39044173D01*
X28203152Y-39044173D02*
X28536485Y-39044173D01*
X28536485Y-39044173D02*
X28726961Y-39091792D01*
X28726961Y-39091792D02*
X28822200Y-39187030D01*
X28822200Y-39187030D02*
X28869819Y-39282268D01*
X28869819Y-39282268D02*
X28869819Y-39472744D01*
X28869819Y-39472744D02*
X28822200Y-39567982D01*
X28822200Y-39567982D02*
X28726961Y-39663220D01*
X28726961Y-39663220D02*
X28536485Y-39710839D01*
X28536485Y-39710839D02*
X28203152Y-39710839D01*
X28203152Y-39710839D02*
X28012676Y-39663220D01*
X28012676Y-39663220D02*
X27917438Y-39567982D01*
X27917438Y-39567982D02*
X27869819Y-39472744D01*
X28869819Y-38615601D02*
X27869819Y-38615601D01*
X27869819Y-38615601D02*
X28869819Y-38044173D01*
X28869819Y-38044173D02*
X27869819Y-38044173D01*
X28346009Y-37567982D02*
X28346009Y-37234649D01*
X28869819Y-37091792D02*
X28869819Y-37567982D01*
X28869819Y-37567982D02*
X27869819Y-37567982D01*
X27869819Y-37567982D02*
X27869819Y-37091792D01*
X3964285Y-66658557D02*
X3964285Y-65758557D01*
X4264285Y-65758557D02*
X4778571Y-65758557D01*
X4521428Y-66658557D02*
X4521428Y-65758557D01*
X5035713Y-66615700D02*
X5164285Y-66658557D01*
X5164285Y-66658557D02*
X5378570Y-66658557D01*
X5378570Y-66658557D02*
X5464285Y-66615700D01*
X5464285Y-66615700D02*
X5507142Y-66572842D01*
X5507142Y-66572842D02*
X5549999Y-66487128D01*
X5549999Y-66487128D02*
X5549999Y-66401414D01*
X5549999Y-66401414D02*
X5507142Y-66315700D01*
X5507142Y-66315700D02*
X5464285Y-66272842D01*
X5464285Y-66272842D02*
X5378570Y-66229985D01*
X5378570Y-66229985D02*
X5207142Y-66187128D01*
X5207142Y-66187128D02*
X5121427Y-66144271D01*
X5121427Y-66144271D02*
X5078570Y-66101414D01*
X5078570Y-66101414D02*
X5035713Y-66015700D01*
X5035713Y-66015700D02*
X5035713Y-65929985D01*
X5035713Y-65929985D02*
X5078570Y-65844271D01*
X5078570Y-65844271D02*
X5121427Y-65801414D01*
X5121427Y-65801414D02*
X5207142Y-65758557D01*
X5207142Y-65758557D02*
X5421427Y-65758557D01*
X5421427Y-65758557D02*
X5549999Y-65801414D01*
X6107142Y-66229985D02*
X6107142Y-66658557D01*
X5807142Y-65758557D02*
X6107142Y-66229985D01*
X6107142Y-66229985D02*
X6407142Y-65758557D01*
X6707142Y-66315700D02*
X7392857Y-66315700D01*
X8121428Y-66187128D02*
X8250000Y-66229985D01*
X8250000Y-66229985D02*
X8292857Y-66272842D01*
X8292857Y-66272842D02*
X8335714Y-66358557D01*
X8335714Y-66358557D02*
X8335714Y-66487128D01*
X8335714Y-66487128D02*
X8292857Y-66572842D01*
X8292857Y-66572842D02*
X8250000Y-66615700D01*
X8250000Y-66615700D02*
X8164285Y-66658557D01*
X8164285Y-66658557D02*
X7821428Y-66658557D01*
X7821428Y-66658557D02*
X7821428Y-65758557D01*
X7821428Y-65758557D02*
X8121428Y-65758557D01*
X8121428Y-65758557D02*
X8207143Y-65801414D01*
X8207143Y-65801414D02*
X8250000Y-65844271D01*
X8250000Y-65844271D02*
X8292857Y-65929985D01*
X8292857Y-65929985D02*
X8292857Y-66015700D01*
X8292857Y-66015700D02*
X8250000Y-66101414D01*
X8250000Y-66101414D02*
X8207143Y-66144271D01*
X8207143Y-66144271D02*
X8121428Y-66187128D01*
X8121428Y-66187128D02*
X7821428Y-66187128D01*
X8721428Y-66658557D02*
X8721428Y-65758557D01*
X9021428Y-65758557D02*
X9535714Y-65758557D01*
X9278571Y-66658557D02*
X9278571Y-65758557D01*
X9792856Y-66615700D02*
X9921428Y-66658557D01*
X9921428Y-66658557D02*
X10135713Y-66658557D01*
X10135713Y-66658557D02*
X10221428Y-66615700D01*
X10221428Y-66615700D02*
X10264285Y-66572842D01*
X10264285Y-66572842D02*
X10307142Y-66487128D01*
X10307142Y-66487128D02*
X10307142Y-66401414D01*
X10307142Y-66401414D02*
X10264285Y-66315700D01*
X10264285Y-66315700D02*
X10221428Y-66272842D01*
X10221428Y-66272842D02*
X10135713Y-66229985D01*
X10135713Y-66229985D02*
X9964285Y-66187128D01*
X9964285Y-66187128D02*
X9878570Y-66144271D01*
X9878570Y-66144271D02*
X9835713Y-66101414D01*
X9835713Y-66101414D02*
X9792856Y-66015700D01*
X9792856Y-66015700D02*
X9792856Y-65929985D01*
X9792856Y-65929985D02*
X9835713Y-65844271D01*
X9835713Y-65844271D02*
X9878570Y-65801414D01*
X9878570Y-65801414D02*
X9964285Y-65758557D01*
X9964285Y-65758557D02*
X10178570Y-65758557D01*
X10178570Y-65758557D02*
X10307142Y-65801414D01*
X10864285Y-66229985D02*
X10864285Y-66658557D01*
X10564285Y-65758557D02*
X10864285Y-66229985D01*
X10864285Y-66229985D02*
X11164285Y-65758557D01*
X68336779Y-17619819D02*
X68336779Y-16619819D01*
X69003445Y-16619819D02*
X69193921Y-16619819D01*
X69193921Y-16619819D02*
X69289159Y-16667438D01*
X69289159Y-16667438D02*
X69384397Y-16762676D01*
X69384397Y-16762676D02*
X69432016Y-16953152D01*
X69432016Y-16953152D02*
X69432016Y-17286485D01*
X69432016Y-17286485D02*
X69384397Y-17476961D01*
X69384397Y-17476961D02*
X69289159Y-17572200D01*
X69289159Y-17572200D02*
X69193921Y-17619819D01*
X69193921Y-17619819D02*
X69003445Y-17619819D01*
X69003445Y-17619819D02*
X68908207Y-17572200D01*
X68908207Y-17572200D02*
X68812969Y-17476961D01*
X68812969Y-17476961D02*
X68765350Y-17286485D01*
X68765350Y-17286485D02*
X68765350Y-16953152D01*
X68765350Y-16953152D02*
X68812969Y-16762676D01*
X68812969Y-16762676D02*
X68908207Y-16667438D01*
X68908207Y-16667438D02*
X69003445Y-16619819D01*
X70384397Y-17619819D02*
X69812969Y-17619819D01*
X70098683Y-17619819D02*
X70098683Y-16619819D01*
X70098683Y-16619819D02*
X70003445Y-16762676D01*
X70003445Y-16762676D02*
X69908207Y-16857914D01*
X69908207Y-16857914D02*
X69812969Y-16905533D01*
X45539160Y-51072200D02*
X45682017Y-51119819D01*
X45682017Y-51119819D02*
X45920112Y-51119819D01*
X45920112Y-51119819D02*
X46015350Y-51072200D01*
X46015350Y-51072200D02*
X46062969Y-51024580D01*
X46062969Y-51024580D02*
X46110588Y-50929342D01*
X46110588Y-50929342D02*
X46110588Y-50834104D01*
X46110588Y-50834104D02*
X46062969Y-50738866D01*
X46062969Y-50738866D02*
X46015350Y-50691247D01*
X46015350Y-50691247D02*
X45920112Y-50643628D01*
X45920112Y-50643628D02*
X45729636Y-50596009D01*
X45729636Y-50596009D02*
X45634398Y-50548390D01*
X45634398Y-50548390D02*
X45586779Y-50500771D01*
X45586779Y-50500771D02*
X45539160Y-50405533D01*
X45539160Y-50405533D02*
X45539160Y-50310295D01*
X45539160Y-50310295D02*
X45586779Y-50215057D01*
X45586779Y-50215057D02*
X45634398Y-50167438D01*
X45634398Y-50167438D02*
X45729636Y-50119819D01*
X45729636Y-50119819D02*
X45967731Y-50119819D01*
X45967731Y-50119819D02*
X46110588Y-50167438D01*
X47110588Y-51024580D02*
X47062969Y-51072200D01*
X47062969Y-51072200D02*
X46920112Y-51119819D01*
X46920112Y-51119819D02*
X46824874Y-51119819D01*
X46824874Y-51119819D02*
X46682017Y-51072200D01*
X46682017Y-51072200D02*
X46586779Y-50976961D01*
X46586779Y-50976961D02*
X46539160Y-50881723D01*
X46539160Y-50881723D02*
X46491541Y-50691247D01*
X46491541Y-50691247D02*
X46491541Y-50548390D01*
X46491541Y-50548390D02*
X46539160Y-50357914D01*
X46539160Y-50357914D02*
X46586779Y-50262676D01*
X46586779Y-50262676D02*
X46682017Y-50167438D01*
X46682017Y-50167438D02*
X46824874Y-50119819D01*
X46824874Y-50119819D02*
X46920112Y-50119819D01*
X46920112Y-50119819D02*
X47062969Y-50167438D01*
X47062969Y-50167438D02*
X47110588Y-50215057D01*
X48015350Y-51119819D02*
X47539160Y-51119819D01*
X47539160Y-51119819D02*
X47539160Y-50119819D01*
X85086779Y-72119819D02*
X85086779Y-71119819D01*
X85086779Y-71119819D02*
X85324874Y-71119819D01*
X85324874Y-71119819D02*
X85467731Y-71167438D01*
X85467731Y-71167438D02*
X85562969Y-71262676D01*
X85562969Y-71262676D02*
X85610588Y-71357914D01*
X85610588Y-71357914D02*
X85658207Y-71548390D01*
X85658207Y-71548390D02*
X85658207Y-71691247D01*
X85658207Y-71691247D02*
X85610588Y-71881723D01*
X85610588Y-71881723D02*
X85562969Y-71976961D01*
X85562969Y-71976961D02*
X85467731Y-72072200D01*
X85467731Y-72072200D02*
X85324874Y-72119819D01*
X85324874Y-72119819D02*
X85086779Y-72119819D01*
X86086779Y-72119819D02*
X86086779Y-71119819D01*
X86086779Y-71119819D02*
X86467731Y-71119819D01*
X86467731Y-71119819D02*
X86562969Y-71167438D01*
X86562969Y-71167438D02*
X86610588Y-71215057D01*
X86610588Y-71215057D02*
X86658207Y-71310295D01*
X86658207Y-71310295D02*
X86658207Y-71453152D01*
X86658207Y-71453152D02*
X86610588Y-71548390D01*
X86610588Y-71548390D02*
X86562969Y-71596009D01*
X86562969Y-71596009D02*
X86467731Y-71643628D01*
X86467731Y-71643628D02*
X86086779Y-71643628D01*
X86848684Y-72215057D02*
X87610588Y-72215057D01*
X88324874Y-71119819D02*
X87848684Y-71119819D01*
X87848684Y-71119819D02*
X87801065Y-71596009D01*
X87801065Y-71596009D02*
X87848684Y-71548390D01*
X87848684Y-71548390D02*
X87943922Y-71500771D01*
X87943922Y-71500771D02*
X88182017Y-71500771D01*
X88182017Y-71500771D02*
X88277255Y-71548390D01*
X88277255Y-71548390D02*
X88324874Y-71596009D01*
X88324874Y-71596009D02*
X88372493Y-71691247D01*
X88372493Y-71691247D02*
X88372493Y-71929342D01*
X88372493Y-71929342D02*
X88324874Y-72024580D01*
X88324874Y-72024580D02*
X88277255Y-72072200D01*
X88277255Y-72072200D02*
X88182017Y-72119819D01*
X88182017Y-72119819D02*
X87943922Y-72119819D01*
X87943922Y-72119819D02*
X87848684Y-72072200D01*
X87848684Y-72072200D02*
X87801065Y-72024580D01*
X26369819Y-40913220D02*
X25369819Y-40913220D01*
X25369819Y-40913220D02*
X25369819Y-40675125D01*
X25369819Y-40675125D02*
X25417438Y-40532268D01*
X25417438Y-40532268D02*
X25512676Y-40437030D01*
X25512676Y-40437030D02*
X25607914Y-40389411D01*
X25607914Y-40389411D02*
X25798390Y-40341792D01*
X25798390Y-40341792D02*
X25941247Y-40341792D01*
X25941247Y-40341792D02*
X26131723Y-40389411D01*
X26131723Y-40389411D02*
X26226961Y-40437030D01*
X26226961Y-40437030D02*
X26322200Y-40532268D01*
X26322200Y-40532268D02*
X26369819Y-40675125D01*
X26369819Y-40675125D02*
X26369819Y-40913220D01*
X26369819Y-39865601D02*
X26369819Y-39675125D01*
X26369819Y-39675125D02*
X26322200Y-39579887D01*
X26322200Y-39579887D02*
X26274580Y-39532268D01*
X26274580Y-39532268D02*
X26131723Y-39437030D01*
X26131723Y-39437030D02*
X25941247Y-39389411D01*
X25941247Y-39389411D02*
X25560295Y-39389411D01*
X25560295Y-39389411D02*
X25465057Y-39437030D01*
X25465057Y-39437030D02*
X25417438Y-39484649D01*
X25417438Y-39484649D02*
X25369819Y-39579887D01*
X25369819Y-39579887D02*
X25369819Y-39770363D01*
X25369819Y-39770363D02*
X25417438Y-39865601D01*
X25417438Y-39865601D02*
X25465057Y-39913220D01*
X25465057Y-39913220D02*
X25560295Y-39960839D01*
X25560295Y-39960839D02*
X25798390Y-39960839D01*
X25798390Y-39960839D02*
X25893628Y-39913220D01*
X25893628Y-39913220D02*
X25941247Y-39865601D01*
X25941247Y-39865601D02*
X25988866Y-39770363D01*
X25988866Y-39770363D02*
X25988866Y-39579887D01*
X25988866Y-39579887D02*
X25941247Y-39484649D01*
X25941247Y-39484649D02*
X25893628Y-39437030D01*
X25893628Y-39437030D02*
X25798390Y-39389411D01*
X68260588Y-71167438D02*
X68165350Y-71119819D01*
X68165350Y-71119819D02*
X68022493Y-71119819D01*
X68022493Y-71119819D02*
X67879636Y-71167438D01*
X67879636Y-71167438D02*
X67784398Y-71262676D01*
X67784398Y-71262676D02*
X67736779Y-71357914D01*
X67736779Y-71357914D02*
X67689160Y-71548390D01*
X67689160Y-71548390D02*
X67689160Y-71691247D01*
X67689160Y-71691247D02*
X67736779Y-71881723D01*
X67736779Y-71881723D02*
X67784398Y-71976961D01*
X67784398Y-71976961D02*
X67879636Y-72072200D01*
X67879636Y-72072200D02*
X68022493Y-72119819D01*
X68022493Y-72119819D02*
X68117731Y-72119819D01*
X68117731Y-72119819D02*
X68260588Y-72072200D01*
X68260588Y-72072200D02*
X68308207Y-72024580D01*
X68308207Y-72024580D02*
X68308207Y-71691247D01*
X68308207Y-71691247D02*
X68117731Y-71691247D01*
X68736779Y-72119819D02*
X68736779Y-71119819D01*
X68736779Y-71119819D02*
X69308207Y-72119819D01*
X69308207Y-72119819D02*
X69308207Y-71119819D01*
X69784398Y-72119819D02*
X69784398Y-71119819D01*
X69784398Y-71119819D02*
X70022493Y-71119819D01*
X70022493Y-71119819D02*
X70165350Y-71167438D01*
X70165350Y-71167438D02*
X70260588Y-71262676D01*
X70260588Y-71262676D02*
X70308207Y-71357914D01*
X70308207Y-71357914D02*
X70355826Y-71548390D01*
X70355826Y-71548390D02*
X70355826Y-71691247D01*
X70355826Y-71691247D02*
X70308207Y-71881723D01*
X70308207Y-71881723D02*
X70260588Y-71976961D01*
X70260588Y-71976961D02*
X70165350Y-72072200D01*
X70165350Y-72072200D02*
X70022493Y-72119819D01*
X70022493Y-72119819D02*
X69784398Y-72119819D01*
X46110588Y-55417438D02*
X46015350Y-55369819D01*
X46015350Y-55369819D02*
X45872493Y-55369819D01*
X45872493Y-55369819D02*
X45729636Y-55417438D01*
X45729636Y-55417438D02*
X45634398Y-55512676D01*
X45634398Y-55512676D02*
X45586779Y-55607914D01*
X45586779Y-55607914D02*
X45539160Y-55798390D01*
X45539160Y-55798390D02*
X45539160Y-55941247D01*
X45539160Y-55941247D02*
X45586779Y-56131723D01*
X45586779Y-56131723D02*
X45634398Y-56226961D01*
X45634398Y-56226961D02*
X45729636Y-56322200D01*
X45729636Y-56322200D02*
X45872493Y-56369819D01*
X45872493Y-56369819D02*
X45967731Y-56369819D01*
X45967731Y-56369819D02*
X46110588Y-56322200D01*
X46110588Y-56322200D02*
X46158207Y-56274580D01*
X46158207Y-56274580D02*
X46158207Y-55941247D01*
X46158207Y-55941247D02*
X45967731Y-55941247D01*
X46586779Y-56369819D02*
X46586779Y-55369819D01*
X46586779Y-55369819D02*
X47158207Y-56369819D01*
X47158207Y-56369819D02*
X47158207Y-55369819D01*
X47634398Y-56369819D02*
X47634398Y-55369819D01*
X47634398Y-55369819D02*
X47872493Y-55369819D01*
X47872493Y-55369819D02*
X48015350Y-55417438D01*
X48015350Y-55417438D02*
X48110588Y-55512676D01*
X48110588Y-55512676D02*
X48158207Y-55607914D01*
X48158207Y-55607914D02*
X48205826Y-55798390D01*
X48205826Y-55798390D02*
X48205826Y-55941247D01*
X48205826Y-55941247D02*
X48158207Y-56131723D01*
X48158207Y-56131723D02*
X48110588Y-56226961D01*
X48110588Y-56226961D02*
X48015350Y-56322200D01*
X48015350Y-56322200D02*
X47872493Y-56369819D01*
X47872493Y-56369819D02*
X47634398Y-56369819D01*
X44570112Y-71746009D02*
X44712969Y-71793628D01*
X44712969Y-71793628D02*
X44760588Y-71841247D01*
X44760588Y-71841247D02*
X44808207Y-71936485D01*
X44808207Y-71936485D02*
X44808207Y-72079342D01*
X44808207Y-72079342D02*
X44760588Y-72174580D01*
X44760588Y-72174580D02*
X44712969Y-72222200D01*
X44712969Y-72222200D02*
X44617731Y-72269819D01*
X44617731Y-72269819D02*
X44236779Y-72269819D01*
X44236779Y-72269819D02*
X44236779Y-71269819D01*
X44236779Y-71269819D02*
X44570112Y-71269819D01*
X44570112Y-71269819D02*
X44665350Y-71317438D01*
X44665350Y-71317438D02*
X44712969Y-71365057D01*
X44712969Y-71365057D02*
X44760588Y-71460295D01*
X44760588Y-71460295D02*
X44760588Y-71555533D01*
X44760588Y-71555533D02*
X44712969Y-71650771D01*
X44712969Y-71650771D02*
X44665350Y-71698390D01*
X44665350Y-71698390D02*
X44570112Y-71746009D01*
X44570112Y-71746009D02*
X44236779Y-71746009D01*
X45189160Y-71984104D02*
X45665350Y-71984104D01*
X45093922Y-72269819D02*
X45427255Y-71269819D01*
X45427255Y-71269819D02*
X45760588Y-72269819D01*
X45951065Y-71269819D02*
X46522493Y-71269819D01*
X46236779Y-72269819D02*
X46236779Y-71269819D01*
X83179819Y-15008458D02*
X83179819Y-14389411D01*
X83179819Y-14389411D02*
X83560771Y-14722744D01*
X83560771Y-14722744D02*
X83560771Y-14579887D01*
X83560771Y-14579887D02*
X83608390Y-14484649D01*
X83608390Y-14484649D02*
X83656009Y-14437030D01*
X83656009Y-14437030D02*
X83751247Y-14389411D01*
X83751247Y-14389411D02*
X83989342Y-14389411D01*
X83989342Y-14389411D02*
X84084580Y-14437030D01*
X84084580Y-14437030D02*
X84132200Y-14484649D01*
X84132200Y-14484649D02*
X84179819Y-14579887D01*
X84179819Y-14579887D02*
X84179819Y-14865601D01*
X84179819Y-14865601D02*
X84132200Y-14960839D01*
X84132200Y-14960839D02*
X84084580Y-15008458D01*
X83179819Y-14103696D02*
X84179819Y-13770363D01*
X84179819Y-13770363D02*
X83179819Y-13437030D01*
X83179819Y-13198934D02*
X83179819Y-12579887D01*
X83179819Y-12579887D02*
X83560771Y-12913220D01*
X83560771Y-12913220D02*
X83560771Y-12770363D01*
X83560771Y-12770363D02*
X83608390Y-12675125D01*
X83608390Y-12675125D02*
X83656009Y-12627506D01*
X83656009Y-12627506D02*
X83751247Y-12579887D01*
X83751247Y-12579887D02*
X83989342Y-12579887D01*
X83989342Y-12579887D02*
X84084580Y-12627506D01*
X84084580Y-12627506D02*
X84132200Y-12675125D01*
X84132200Y-12675125D02*
X84179819Y-12770363D01*
X84179819Y-12770363D02*
X84179819Y-13056077D01*
X84179819Y-13056077D02*
X84132200Y-13151315D01*
X84132200Y-13151315D02*
X84084580Y-13198934D01*
X100169048Y-43612295D02*
X100169048Y-42812295D01*
X100169048Y-42812295D02*
X100359524Y-42812295D01*
X100359524Y-42812295D02*
X100473810Y-42850390D01*
X100473810Y-42850390D02*
X100550000Y-42926580D01*
X100550000Y-42926580D02*
X100588095Y-43002771D01*
X100588095Y-43002771D02*
X100626191Y-43155152D01*
X100626191Y-43155152D02*
X100626191Y-43269438D01*
X100626191Y-43269438D02*
X100588095Y-43421819D01*
X100588095Y-43421819D02*
X100550000Y-43498009D01*
X100550000Y-43498009D02*
X100473810Y-43574200D01*
X100473810Y-43574200D02*
X100359524Y-43612295D01*
X100359524Y-43612295D02*
X100169048Y-43612295D01*
X100969048Y-43193247D02*
X101235714Y-43193247D01*
X101350000Y-43612295D02*
X100969048Y-43612295D01*
X100969048Y-43612295D02*
X100969048Y-42812295D01*
X100969048Y-42812295D02*
X101350000Y-42812295D01*
X102073810Y-43612295D02*
X101692858Y-43612295D01*
X101692858Y-43612295D02*
X101692858Y-42812295D01*
X102302381Y-43383723D02*
X102683334Y-43383723D01*
X102226191Y-43612295D02*
X102492858Y-42812295D01*
X102492858Y-42812295D02*
X102759524Y-43612295D01*
X103178572Y-43231342D02*
X103178572Y-43612295D01*
X102911905Y-42812295D02*
X103178572Y-43231342D01*
X103178572Y-43231342D02*
X103445238Y-42812295D01*
X20119819Y-41056077D02*
X21119819Y-40722744D01*
X21119819Y-40722744D02*
X20119819Y-40389411D01*
X21215057Y-40294173D02*
X21215057Y-39532268D01*
X20119819Y-39437029D02*
X20119819Y-38865601D01*
X21119819Y-39151315D02*
X20119819Y-39151315D01*
X21119819Y-38532267D02*
X20119819Y-38532267D01*
X21119819Y-38056077D02*
X20119819Y-38056077D01*
X20119819Y-38056077D02*
X20834104Y-37722744D01*
X20834104Y-37722744D02*
X20119819Y-37389411D01*
X20119819Y-37389411D02*
X21119819Y-37389411D01*
X20596009Y-36913220D02*
X20596009Y-36579887D01*
X21119819Y-36437030D02*
X21119819Y-36913220D01*
X21119819Y-36913220D02*
X20119819Y-36913220D01*
X20119819Y-36913220D02*
X20119819Y-36437030D01*
X21119819Y-35437030D02*
X20643628Y-35770363D01*
X21119819Y-36008458D02*
X20119819Y-36008458D01*
X20119819Y-36008458D02*
X20119819Y-35627506D01*
X20119819Y-35627506D02*
X20167438Y-35532268D01*
X20167438Y-35532268D02*
X20215057Y-35484649D01*
X20215057Y-35484649D02*
X20310295Y-35437030D01*
X20310295Y-35437030D02*
X20453152Y-35437030D01*
X20453152Y-35437030D02*
X20548390Y-35484649D01*
X20548390Y-35484649D02*
X20596009Y-35532268D01*
X20596009Y-35532268D02*
X20643628Y-35627506D01*
X20643628Y-35627506D02*
X20643628Y-36008458D01*
X49860588Y-71217438D02*
X49765350Y-71169819D01*
X49765350Y-71169819D02*
X49622493Y-71169819D01*
X49622493Y-71169819D02*
X49479636Y-71217438D01*
X49479636Y-71217438D02*
X49384398Y-71312676D01*
X49384398Y-71312676D02*
X49336779Y-71407914D01*
X49336779Y-71407914D02*
X49289160Y-71598390D01*
X49289160Y-71598390D02*
X49289160Y-71741247D01*
X49289160Y-71741247D02*
X49336779Y-71931723D01*
X49336779Y-71931723D02*
X49384398Y-72026961D01*
X49384398Y-72026961D02*
X49479636Y-72122200D01*
X49479636Y-72122200D02*
X49622493Y-72169819D01*
X49622493Y-72169819D02*
X49717731Y-72169819D01*
X49717731Y-72169819D02*
X49860588Y-72122200D01*
X49860588Y-72122200D02*
X49908207Y-72074580D01*
X49908207Y-72074580D02*
X49908207Y-71741247D01*
X49908207Y-71741247D02*
X49717731Y-71741247D01*
X50336779Y-72169819D02*
X50336779Y-71169819D01*
X50336779Y-71169819D02*
X50908207Y-72169819D01*
X50908207Y-72169819D02*
X50908207Y-71169819D01*
X51384398Y-72169819D02*
X51384398Y-71169819D01*
X51384398Y-71169819D02*
X51622493Y-71169819D01*
X51622493Y-71169819D02*
X51765350Y-71217438D01*
X51765350Y-71217438D02*
X51860588Y-71312676D01*
X51860588Y-71312676D02*
X51908207Y-71407914D01*
X51908207Y-71407914D02*
X51955826Y-71598390D01*
X51955826Y-71598390D02*
X51955826Y-71741247D01*
X51955826Y-71741247D02*
X51908207Y-71931723D01*
X51908207Y-71931723D02*
X51860588Y-72026961D01*
X51860588Y-72026961D02*
X51765350Y-72122200D01*
X51765350Y-72122200D02*
X51622493Y-72169819D01*
X51622493Y-72169819D02*
X51384398Y-72169819D01*
X38417438Y-40139411D02*
X38369819Y-40234649D01*
X38369819Y-40234649D02*
X38369819Y-40377506D01*
X38369819Y-40377506D02*
X38417438Y-40520363D01*
X38417438Y-40520363D02*
X38512676Y-40615601D01*
X38512676Y-40615601D02*
X38607914Y-40663220D01*
X38607914Y-40663220D02*
X38798390Y-40710839D01*
X38798390Y-40710839D02*
X38941247Y-40710839D01*
X38941247Y-40710839D02*
X39131723Y-40663220D01*
X39131723Y-40663220D02*
X39226961Y-40615601D01*
X39226961Y-40615601D02*
X39322200Y-40520363D01*
X39322200Y-40520363D02*
X39369819Y-40377506D01*
X39369819Y-40377506D02*
X39369819Y-40282268D01*
X39369819Y-40282268D02*
X39322200Y-40139411D01*
X39322200Y-40139411D02*
X39274580Y-40091792D01*
X39274580Y-40091792D02*
X38941247Y-40091792D01*
X38941247Y-40091792D02*
X38941247Y-40282268D01*
X39369819Y-39663220D02*
X38369819Y-39663220D01*
X38369819Y-39663220D02*
X39369819Y-39091792D01*
X39369819Y-39091792D02*
X38369819Y-39091792D01*
X39369819Y-38615601D02*
X38369819Y-38615601D01*
X38369819Y-38615601D02*
X38369819Y-38377506D01*
X38369819Y-38377506D02*
X38417438Y-38234649D01*
X38417438Y-38234649D02*
X38512676Y-38139411D01*
X38512676Y-38139411D02*
X38607914Y-38091792D01*
X38607914Y-38091792D02*
X38798390Y-38044173D01*
X38798390Y-38044173D02*
X38941247Y-38044173D01*
X38941247Y-38044173D02*
X39131723Y-38091792D01*
X39131723Y-38091792D02*
X39226961Y-38139411D01*
X39226961Y-38139411D02*
X39322200Y-38234649D01*
X39322200Y-38234649D02*
X39369819Y-38377506D01*
X39369819Y-38377506D02*
X39369819Y-38615601D01*
X31619819Y-40913220D02*
X30619819Y-40913220D01*
X30619819Y-40913220D02*
X31334104Y-40579887D01*
X31334104Y-40579887D02*
X30619819Y-40246554D01*
X30619819Y-40246554D02*
X31619819Y-40246554D01*
X31096009Y-39770363D02*
X31096009Y-39437030D01*
X31619819Y-39294173D02*
X31619819Y-39770363D01*
X31619819Y-39770363D02*
X30619819Y-39770363D01*
X30619819Y-39770363D02*
X30619819Y-39294173D01*
X31572200Y-38913220D02*
X31619819Y-38770363D01*
X31619819Y-38770363D02*
X31619819Y-38532268D01*
X31619819Y-38532268D02*
X31572200Y-38437030D01*
X31572200Y-38437030D02*
X31524580Y-38389411D01*
X31524580Y-38389411D02*
X31429342Y-38341792D01*
X31429342Y-38341792D02*
X31334104Y-38341792D01*
X31334104Y-38341792D02*
X31238866Y-38389411D01*
X31238866Y-38389411D02*
X31191247Y-38437030D01*
X31191247Y-38437030D02*
X31143628Y-38532268D01*
X31143628Y-38532268D02*
X31096009Y-38722744D01*
X31096009Y-38722744D02*
X31048390Y-38817982D01*
X31048390Y-38817982D02*
X31000771Y-38865601D01*
X31000771Y-38865601D02*
X30905533Y-38913220D01*
X30905533Y-38913220D02*
X30810295Y-38913220D01*
X30810295Y-38913220D02*
X30715057Y-38865601D01*
X30715057Y-38865601D02*
X30667438Y-38817982D01*
X30667438Y-38817982D02*
X30619819Y-38722744D01*
X30619819Y-38722744D02*
X30619819Y-38484649D01*
X30619819Y-38484649D02*
X30667438Y-38341792D01*
X31619819Y-37913220D02*
X30619819Y-37913220D01*
X31096009Y-37913220D02*
X31096009Y-37341792D01*
X31619819Y-37341792D02*
X30619819Y-37341792D01*
X31715057Y-37103697D02*
X31715057Y-36341792D01*
X30619819Y-36246553D02*
X30619819Y-35675125D01*
X31619819Y-35960839D02*
X30619819Y-35960839D01*
X30619819Y-35437029D02*
X31619819Y-34770363D01*
X30619819Y-34770363D02*
X31619819Y-35437029D01*
X76110588Y-71167438D02*
X76015350Y-71119819D01*
X76015350Y-71119819D02*
X75872493Y-71119819D01*
X75872493Y-71119819D02*
X75729636Y-71167438D01*
X75729636Y-71167438D02*
X75634398Y-71262676D01*
X75634398Y-71262676D02*
X75586779Y-71357914D01*
X75586779Y-71357914D02*
X75539160Y-71548390D01*
X75539160Y-71548390D02*
X75539160Y-71691247D01*
X75539160Y-71691247D02*
X75586779Y-71881723D01*
X75586779Y-71881723D02*
X75634398Y-71976961D01*
X75634398Y-71976961D02*
X75729636Y-72072200D01*
X75729636Y-72072200D02*
X75872493Y-72119819D01*
X75872493Y-72119819D02*
X75967731Y-72119819D01*
X75967731Y-72119819D02*
X76110588Y-72072200D01*
X76110588Y-72072200D02*
X76158207Y-72024580D01*
X76158207Y-72024580D02*
X76158207Y-71691247D01*
X76158207Y-71691247D02*
X75967731Y-71691247D01*
X76586779Y-72119819D02*
X76586779Y-71119819D01*
X76586779Y-71119819D02*
X77158207Y-72119819D01*
X77158207Y-72119819D02*
X77158207Y-71119819D01*
X77634398Y-72119819D02*
X77634398Y-71119819D01*
X77634398Y-71119819D02*
X77872493Y-71119819D01*
X77872493Y-71119819D02*
X78015350Y-71167438D01*
X78015350Y-71167438D02*
X78110588Y-71262676D01*
X78110588Y-71262676D02*
X78158207Y-71357914D01*
X78158207Y-71357914D02*
X78205826Y-71548390D01*
X78205826Y-71548390D02*
X78205826Y-71691247D01*
X78205826Y-71691247D02*
X78158207Y-71881723D01*
X78158207Y-71881723D02*
X78110588Y-71976961D01*
X78110588Y-71976961D02*
X78015350Y-72072200D01*
X78015350Y-72072200D02*
X77872493Y-72119819D01*
X77872493Y-72119819D02*
X77634398Y-72119819D01*
X34119819Y-40913220D02*
X33119819Y-40913220D01*
X33119819Y-40913220D02*
X33834104Y-40579887D01*
X33834104Y-40579887D02*
X33119819Y-40246554D01*
X33119819Y-40246554D02*
X34119819Y-40246554D01*
X33596009Y-39770363D02*
X33596009Y-39437030D01*
X34119819Y-39294173D02*
X34119819Y-39770363D01*
X34119819Y-39770363D02*
X33119819Y-39770363D01*
X33119819Y-39770363D02*
X33119819Y-39294173D01*
X34072200Y-38913220D02*
X34119819Y-38770363D01*
X34119819Y-38770363D02*
X34119819Y-38532268D01*
X34119819Y-38532268D02*
X34072200Y-38437030D01*
X34072200Y-38437030D02*
X34024580Y-38389411D01*
X34024580Y-38389411D02*
X33929342Y-38341792D01*
X33929342Y-38341792D02*
X33834104Y-38341792D01*
X33834104Y-38341792D02*
X33738866Y-38389411D01*
X33738866Y-38389411D02*
X33691247Y-38437030D01*
X33691247Y-38437030D02*
X33643628Y-38532268D01*
X33643628Y-38532268D02*
X33596009Y-38722744D01*
X33596009Y-38722744D02*
X33548390Y-38817982D01*
X33548390Y-38817982D02*
X33500771Y-38865601D01*
X33500771Y-38865601D02*
X33405533Y-38913220D01*
X33405533Y-38913220D02*
X33310295Y-38913220D01*
X33310295Y-38913220D02*
X33215057Y-38865601D01*
X33215057Y-38865601D02*
X33167438Y-38817982D01*
X33167438Y-38817982D02*
X33119819Y-38722744D01*
X33119819Y-38722744D02*
X33119819Y-38484649D01*
X33119819Y-38484649D02*
X33167438Y-38341792D01*
X34119819Y-37913220D02*
X33119819Y-37913220D01*
X33596009Y-37913220D02*
X33596009Y-37341792D01*
X34119819Y-37341792D02*
X33119819Y-37341792D01*
X34215057Y-37103697D02*
X34215057Y-36341792D01*
X34119819Y-35532268D02*
X33643628Y-35865601D01*
X34119819Y-36103696D02*
X33119819Y-36103696D01*
X33119819Y-36103696D02*
X33119819Y-35722744D01*
X33119819Y-35722744D02*
X33167438Y-35627506D01*
X33167438Y-35627506D02*
X33215057Y-35579887D01*
X33215057Y-35579887D02*
X33310295Y-35532268D01*
X33310295Y-35532268D02*
X33453152Y-35532268D01*
X33453152Y-35532268D02*
X33548390Y-35579887D01*
X33548390Y-35579887D02*
X33596009Y-35627506D01*
X33596009Y-35627506D02*
X33643628Y-35722744D01*
X33643628Y-35722744D02*
X33643628Y-36103696D01*
X33119819Y-35198934D02*
X34119819Y-34532268D01*
X33119819Y-34532268D02*
X34119819Y-35198934D01*
X26046009Y-71729887D02*
X26093628Y-71587030D01*
X26093628Y-71587030D02*
X26141247Y-71539411D01*
X26141247Y-71539411D02*
X26236485Y-71491792D01*
X26236485Y-71491792D02*
X26379342Y-71491792D01*
X26379342Y-71491792D02*
X26474580Y-71539411D01*
X26474580Y-71539411D02*
X26522200Y-71587030D01*
X26522200Y-71587030D02*
X26569819Y-71682268D01*
X26569819Y-71682268D02*
X26569819Y-72063220D01*
X26569819Y-72063220D02*
X25569819Y-72063220D01*
X25569819Y-72063220D02*
X25569819Y-71729887D01*
X25569819Y-71729887D02*
X25617438Y-71634649D01*
X25617438Y-71634649D02*
X25665057Y-71587030D01*
X25665057Y-71587030D02*
X25760295Y-71539411D01*
X25760295Y-71539411D02*
X25855533Y-71539411D01*
X25855533Y-71539411D02*
X25950771Y-71587030D01*
X25950771Y-71587030D02*
X25998390Y-71634649D01*
X25998390Y-71634649D02*
X26046009Y-71729887D01*
X26046009Y-71729887D02*
X26046009Y-72063220D01*
X25569819Y-71206077D02*
X25569819Y-70634649D01*
X26569819Y-70920363D02*
X25569819Y-70920363D01*
X26569819Y-70301315D02*
X25569819Y-70301315D01*
X25569819Y-70301315D02*
X26569819Y-69729887D01*
X26569819Y-69729887D02*
X25569819Y-69729887D01*
D10*
X17796427Y-16927338D02*
X17129760Y-15974957D01*
X16653570Y-16927338D02*
X16653570Y-14927338D01*
X16653570Y-14927338D02*
X17415475Y-14927338D01*
X17415475Y-14927338D02*
X17605951Y-15022576D01*
X17605951Y-15022576D02*
X17701189Y-15117814D01*
X17701189Y-15117814D02*
X17796427Y-15308290D01*
X17796427Y-15308290D02*
X17796427Y-15594004D01*
X17796427Y-15594004D02*
X17701189Y-15784480D01*
X17701189Y-15784480D02*
X17605951Y-15879719D01*
X17605951Y-15879719D02*
X17415475Y-15974957D01*
X17415475Y-15974957D02*
X16653570Y-15974957D01*
X18558332Y-16355909D02*
X19510713Y-16355909D01*
X18367856Y-16927338D02*
X19034522Y-14927338D01*
X19034522Y-14927338D02*
X19701189Y-16927338D01*
X20367856Y-16927338D02*
X20367856Y-14927338D01*
X21510713Y-16927338D02*
X20653570Y-15784480D01*
X21510713Y-14927338D02*
X20367856Y-16070195D01*
X23224999Y-15594004D02*
X23224999Y-16927338D01*
X22748808Y-14832100D02*
X22272618Y-16260671D01*
X22272618Y-16260671D02*
X23510713Y-16260671D01*
X25129761Y-14927338D02*
X24748808Y-14927338D01*
X24748808Y-14927338D02*
X24558332Y-15022576D01*
X24558332Y-15022576D02*
X24463094Y-15117814D01*
X24463094Y-15117814D02*
X24272618Y-15403528D01*
X24272618Y-15403528D02*
X24177380Y-15784480D01*
X24177380Y-15784480D02*
X24177380Y-16546385D01*
X24177380Y-16546385D02*
X24272618Y-16736861D01*
X24272618Y-16736861D02*
X24367856Y-16832100D01*
X24367856Y-16832100D02*
X24558332Y-16927338D01*
X24558332Y-16927338D02*
X24939285Y-16927338D01*
X24939285Y-16927338D02*
X25129761Y-16832100D01*
X25129761Y-16832100D02*
X25224999Y-16736861D01*
X25224999Y-16736861D02*
X25320237Y-16546385D01*
X25320237Y-16546385D02*
X25320237Y-16070195D01*
X25320237Y-16070195D02*
X25224999Y-15879719D01*
X25224999Y-15879719D02*
X25129761Y-15784480D01*
X25129761Y-15784480D02*
X24939285Y-15689242D01*
X24939285Y-15689242D02*
X24558332Y-15689242D01*
X24558332Y-15689242D02*
X24367856Y-15784480D01*
X24367856Y-15784480D02*
X24272618Y-15879719D01*
X24272618Y-15879719D02*
X24177380Y-16070195D01*
X25986904Y-14927338D02*
X27224999Y-14927338D01*
X27224999Y-14927338D02*
X26558332Y-15689242D01*
X26558332Y-15689242D02*
X26844047Y-15689242D01*
X26844047Y-15689242D02*
X27034523Y-15784480D01*
X27034523Y-15784480D02*
X27129761Y-15879719D01*
X27129761Y-15879719D02*
X27224999Y-16070195D01*
X27224999Y-16070195D02*
X27224999Y-16546385D01*
X27224999Y-16546385D02*
X27129761Y-16736861D01*
X27129761Y-16736861D02*
X27034523Y-16832100D01*
X27034523Y-16832100D02*
X26844047Y-16927338D01*
X26844047Y-16927338D02*
X26272618Y-16927338D01*
X26272618Y-16927338D02*
X26082142Y-16832100D01*
X26082142Y-16832100D02*
X25986904Y-16736861D01*
X29129761Y-16927338D02*
X27986904Y-16927338D01*
X28558332Y-16927338D02*
X28558332Y-14927338D01*
X28558332Y-14927338D02*
X28367856Y-15213052D01*
X28367856Y-15213052D02*
X28177380Y-15403528D01*
X28177380Y-15403528D02*
X27986904Y-15498766D01*
X31510714Y-16165433D02*
X33034524Y-16165433D01*
X32272619Y-16927338D02*
X32272619Y-15403528D01*
X36653571Y-16927338D02*
X35986904Y-15974957D01*
X35510714Y-16927338D02*
X35510714Y-14927338D01*
X35510714Y-14927338D02*
X36272619Y-14927338D01*
X36272619Y-14927338D02*
X36463095Y-15022576D01*
X36463095Y-15022576D02*
X36558333Y-15117814D01*
X36558333Y-15117814D02*
X36653571Y-15308290D01*
X36653571Y-15308290D02*
X36653571Y-15594004D01*
X36653571Y-15594004D02*
X36558333Y-15784480D01*
X36558333Y-15784480D02*
X36463095Y-15879719D01*
X36463095Y-15879719D02*
X36272619Y-15974957D01*
X36272619Y-15974957D02*
X35510714Y-15974957D01*
X37415476Y-16355909D02*
X38367857Y-16355909D01*
X37225000Y-16927338D02*
X37891666Y-14927338D01*
X37891666Y-14927338D02*
X38558333Y-16927338D01*
X39225000Y-16927338D02*
X39225000Y-14927338D01*
X40367857Y-16927338D02*
X39510714Y-15784480D01*
X40367857Y-14927338D02*
X39225000Y-16070195D01*
X42272619Y-16927338D02*
X41129762Y-16927338D01*
X41701190Y-16927338D02*
X41701190Y-14927338D01*
X41701190Y-14927338D02*
X41510714Y-15213052D01*
X41510714Y-15213052D02*
X41320238Y-15403528D01*
X41320238Y-15403528D02*
X41129762Y-15498766D01*
X43225000Y-16927338D02*
X43605952Y-16927338D01*
X43605952Y-16927338D02*
X43796429Y-16832100D01*
X43796429Y-16832100D02*
X43891667Y-16736861D01*
X43891667Y-16736861D02*
X44082143Y-16451147D01*
X44082143Y-16451147D02*
X44177381Y-16070195D01*
X44177381Y-16070195D02*
X44177381Y-15308290D01*
X44177381Y-15308290D02*
X44082143Y-15117814D01*
X44082143Y-15117814D02*
X43986905Y-15022576D01*
X43986905Y-15022576D02*
X43796429Y-14927338D01*
X43796429Y-14927338D02*
X43415476Y-14927338D01*
X43415476Y-14927338D02*
X43225000Y-15022576D01*
X43225000Y-15022576D02*
X43129762Y-15117814D01*
X43129762Y-15117814D02*
X43034524Y-15308290D01*
X43034524Y-15308290D02*
X43034524Y-15784480D01*
X43034524Y-15784480D02*
X43129762Y-15974957D01*
X43129762Y-15974957D02*
X43225000Y-16070195D01*
X43225000Y-16070195D02*
X43415476Y-16165433D01*
X43415476Y-16165433D02*
X43796429Y-16165433D01*
X43796429Y-16165433D02*
X43986905Y-16070195D01*
X43986905Y-16070195D02*
X44082143Y-15974957D01*
X44082143Y-15974957D02*
X44177381Y-15784480D01*
X45415476Y-14927338D02*
X45605953Y-14927338D01*
X45605953Y-14927338D02*
X45796429Y-15022576D01*
X45796429Y-15022576D02*
X45891667Y-15117814D01*
X45891667Y-15117814D02*
X45986905Y-15308290D01*
X45986905Y-15308290D02*
X46082143Y-15689242D01*
X46082143Y-15689242D02*
X46082143Y-16165433D01*
X46082143Y-16165433D02*
X45986905Y-16546385D01*
X45986905Y-16546385D02*
X45891667Y-16736861D01*
X45891667Y-16736861D02*
X45796429Y-16832100D01*
X45796429Y-16832100D02*
X45605953Y-16927338D01*
X45605953Y-16927338D02*
X45415476Y-16927338D01*
X45415476Y-16927338D02*
X45225000Y-16832100D01*
X45225000Y-16832100D02*
X45129762Y-16736861D01*
X45129762Y-16736861D02*
X45034524Y-16546385D01*
X45034524Y-16546385D02*
X44939286Y-16165433D01*
X44939286Y-16165433D02*
X44939286Y-15689242D01*
X44939286Y-15689242D02*
X45034524Y-15308290D01*
X45034524Y-15308290D02*
X45129762Y-15117814D01*
X45129762Y-15117814D02*
X45225000Y-15022576D01*
X45225000Y-15022576D02*
X45415476Y-14927338D01*
X47320238Y-14927338D02*
X47510715Y-14927338D01*
X47510715Y-14927338D02*
X47701191Y-15022576D01*
X47701191Y-15022576D02*
X47796429Y-15117814D01*
X47796429Y-15117814D02*
X47891667Y-15308290D01*
X47891667Y-15308290D02*
X47986905Y-15689242D01*
X47986905Y-15689242D02*
X47986905Y-16165433D01*
X47986905Y-16165433D02*
X47891667Y-16546385D01*
X47891667Y-16546385D02*
X47796429Y-16736861D01*
X47796429Y-16736861D02*
X47701191Y-16832100D01*
X47701191Y-16832100D02*
X47510715Y-16927338D01*
X47510715Y-16927338D02*
X47320238Y-16927338D01*
X47320238Y-16927338D02*
X47129762Y-16832100D01*
X47129762Y-16832100D02*
X47034524Y-16736861D01*
X47034524Y-16736861D02*
X46939286Y-16546385D01*
X46939286Y-16546385D02*
X46844048Y-16165433D01*
X46844048Y-16165433D02*
X46844048Y-15689242D01*
X46844048Y-15689242D02*
X46939286Y-15308290D01*
X46939286Y-15308290D02*
X47034524Y-15117814D01*
X47034524Y-15117814D02*
X47129762Y-15022576D01*
X47129762Y-15022576D02*
X47320238Y-14927338D01*
X48653572Y-14927338D02*
X49986905Y-14927338D01*
X49986905Y-14927338D02*
X49129762Y-16927338D01*
D12*
X89450476Y-45919795D02*
X89450476Y-45119795D01*
X89450476Y-45119795D02*
X89640952Y-45119795D01*
X89640952Y-45119795D02*
X89755238Y-45157890D01*
X89755238Y-45157890D02*
X89831428Y-45234080D01*
X89831428Y-45234080D02*
X89869523Y-45310271D01*
X89869523Y-45310271D02*
X89907619Y-45462652D01*
X89907619Y-45462652D02*
X89907619Y-45576938D01*
X89907619Y-45576938D02*
X89869523Y-45729319D01*
X89869523Y-45729319D02*
X89831428Y-45805509D01*
X89831428Y-45805509D02*
X89755238Y-45881700D01*
X89755238Y-45881700D02*
X89640952Y-45919795D01*
X89640952Y-45919795D02*
X89450476Y-45919795D01*
X90707619Y-45919795D02*
X90440952Y-45538842D01*
X90250476Y-45919795D02*
X90250476Y-45119795D01*
X90250476Y-45119795D02*
X90555238Y-45119795D01*
X90555238Y-45119795D02*
X90631428Y-45157890D01*
X90631428Y-45157890D02*
X90669523Y-45195985D01*
X90669523Y-45195985D02*
X90707619Y-45272176D01*
X90707619Y-45272176D02*
X90707619Y-45386461D01*
X90707619Y-45386461D02*
X90669523Y-45462652D01*
X90669523Y-45462652D02*
X90631428Y-45500747D01*
X90631428Y-45500747D02*
X90555238Y-45538842D01*
X90555238Y-45538842D02*
X90250476Y-45538842D01*
X91050476Y-45919795D02*
X91050476Y-45119795D01*
X91317142Y-45119795D02*
X91583809Y-45919795D01*
X91583809Y-45919795D02*
X91850475Y-45119795D01*
X92117142Y-45500747D02*
X92383808Y-45500747D01*
X92498094Y-45919795D02*
X92117142Y-45919795D01*
X92117142Y-45919795D02*
X92117142Y-45119795D01*
X92117142Y-45119795D02*
X92498094Y-45119795D01*
X68039160Y-22334104D02*
X68515350Y-22334104D01*
X67943922Y-22619819D02*
X68277255Y-21619819D01*
X68277255Y-21619819D02*
X68610588Y-22619819D01*
X68943922Y-22619819D02*
X68943922Y-21619819D01*
X69420112Y-22619819D02*
X69420112Y-21619819D01*
X69420112Y-21619819D02*
X69991540Y-22619819D01*
X69991540Y-22619819D02*
X69991540Y-21619819D01*
X70991540Y-22619819D02*
X70420112Y-22619819D01*
X70705826Y-22619819D02*
X70705826Y-21619819D01*
X70705826Y-21619819D02*
X70610588Y-21762676D01*
X70610588Y-21762676D02*
X70515350Y-21857914D01*
X70515350Y-21857914D02*
X70420112Y-21905533D01*
X68336779Y-20369819D02*
X68336779Y-19369819D01*
X69003445Y-19369819D02*
X69193921Y-19369819D01*
X69193921Y-19369819D02*
X69289159Y-19417438D01*
X69289159Y-19417438D02*
X69384397Y-19512676D01*
X69384397Y-19512676D02*
X69432016Y-19703152D01*
X69432016Y-19703152D02*
X69432016Y-20036485D01*
X69432016Y-20036485D02*
X69384397Y-20226961D01*
X69384397Y-20226961D02*
X69289159Y-20322200D01*
X69289159Y-20322200D02*
X69193921Y-20369819D01*
X69193921Y-20369819D02*
X69003445Y-20369819D01*
X69003445Y-20369819D02*
X68908207Y-20322200D01*
X68908207Y-20322200D02*
X68812969Y-20226961D01*
X68812969Y-20226961D02*
X68765350Y-20036485D01*
X68765350Y-20036485D02*
X68765350Y-19703152D01*
X68765350Y-19703152D02*
X68812969Y-19512676D01*
X68812969Y-19512676D02*
X68908207Y-19417438D01*
X68908207Y-19417438D02*
X69003445Y-19369819D01*
X69812969Y-19465057D02*
X69860588Y-19417438D01*
X69860588Y-19417438D02*
X69955826Y-19369819D01*
X69955826Y-19369819D02*
X70193921Y-19369819D01*
X70193921Y-19369819D02*
X70289159Y-19417438D01*
X70289159Y-19417438D02*
X70336778Y-19465057D01*
X70336778Y-19465057D02*
X70384397Y-19560295D01*
X70384397Y-19560295D02*
X70384397Y-19655533D01*
X70384397Y-19655533D02*
X70336778Y-19798390D01*
X70336778Y-19798390D02*
X69765350Y-20369819D01*
X69765350Y-20369819D02*
X70384397Y-20369819D01*
X80991541Y-71119819D02*
X81610588Y-71119819D01*
X81610588Y-71119819D02*
X81277255Y-71500771D01*
X81277255Y-71500771D02*
X81420112Y-71500771D01*
X81420112Y-71500771D02*
X81515350Y-71548390D01*
X81515350Y-71548390D02*
X81562969Y-71596009D01*
X81562969Y-71596009D02*
X81610588Y-71691247D01*
X81610588Y-71691247D02*
X81610588Y-71929342D01*
X81610588Y-71929342D02*
X81562969Y-72024580D01*
X81562969Y-72024580D02*
X81515350Y-72072200D01*
X81515350Y-72072200D02*
X81420112Y-72119819D01*
X81420112Y-72119819D02*
X81134398Y-72119819D01*
X81134398Y-72119819D02*
X81039160Y-72072200D01*
X81039160Y-72072200D02*
X80991541Y-72024580D01*
X81896303Y-71119819D02*
X82229636Y-72119819D01*
X82229636Y-72119819D02*
X82562969Y-71119819D01*
X45539160Y-53822200D02*
X45682017Y-53869819D01*
X45682017Y-53869819D02*
X45920112Y-53869819D01*
X45920112Y-53869819D02*
X46015350Y-53822200D01*
X46015350Y-53822200D02*
X46062969Y-53774580D01*
X46062969Y-53774580D02*
X46110588Y-53679342D01*
X46110588Y-53679342D02*
X46110588Y-53584104D01*
X46110588Y-53584104D02*
X46062969Y-53488866D01*
X46062969Y-53488866D02*
X46015350Y-53441247D01*
X46015350Y-53441247D02*
X45920112Y-53393628D01*
X45920112Y-53393628D02*
X45729636Y-53346009D01*
X45729636Y-53346009D02*
X45634398Y-53298390D01*
X45634398Y-53298390D02*
X45586779Y-53250771D01*
X45586779Y-53250771D02*
X45539160Y-53155533D01*
X45539160Y-53155533D02*
X45539160Y-53060295D01*
X45539160Y-53060295D02*
X45586779Y-52965057D01*
X45586779Y-52965057D02*
X45634398Y-52917438D01*
X45634398Y-52917438D02*
X45729636Y-52869819D01*
X45729636Y-52869819D02*
X45967731Y-52869819D01*
X45967731Y-52869819D02*
X46110588Y-52917438D01*
X46539160Y-53869819D02*
X46539160Y-52869819D01*
X46539160Y-52869819D02*
X46777255Y-52869819D01*
X46777255Y-52869819D02*
X46920112Y-52917438D01*
X46920112Y-52917438D02*
X47015350Y-53012676D01*
X47015350Y-53012676D02*
X47062969Y-53107914D01*
X47062969Y-53107914D02*
X47110588Y-53298390D01*
X47110588Y-53298390D02*
X47110588Y-53441247D01*
X47110588Y-53441247D02*
X47062969Y-53631723D01*
X47062969Y-53631723D02*
X47015350Y-53726961D01*
X47015350Y-53726961D02*
X46920112Y-53822200D01*
X46920112Y-53822200D02*
X46777255Y-53869819D01*
X46777255Y-53869819D02*
X46539160Y-53869819D01*
X47491541Y-53584104D02*
X47967731Y-53584104D01*
X47396303Y-53869819D02*
X47729636Y-52869819D01*
X47729636Y-52869819D02*
X48062969Y-53869819D01*
X29319819Y-71313220D02*
X28319819Y-71313220D01*
X28319819Y-71313220D02*
X28319819Y-71075125D01*
X28319819Y-71075125D02*
X28367438Y-70932268D01*
X28367438Y-70932268D02*
X28462676Y-70837030D01*
X28462676Y-70837030D02*
X28557914Y-70789411D01*
X28557914Y-70789411D02*
X28748390Y-70741792D01*
X28748390Y-70741792D02*
X28891247Y-70741792D01*
X28891247Y-70741792D02*
X29081723Y-70789411D01*
X29081723Y-70789411D02*
X29176961Y-70837030D01*
X29176961Y-70837030D02*
X29272200Y-70932268D01*
X29272200Y-70932268D02*
X29319819Y-71075125D01*
X29319819Y-71075125D02*
X29319819Y-71313220D01*
X28415057Y-70360839D02*
X28367438Y-70313220D01*
X28367438Y-70313220D02*
X28319819Y-70217982D01*
X28319819Y-70217982D02*
X28319819Y-69979887D01*
X28319819Y-69979887D02*
X28367438Y-69884649D01*
X28367438Y-69884649D02*
X28415057Y-69837030D01*
X28415057Y-69837030D02*
X28510295Y-69789411D01*
X28510295Y-69789411D02*
X28605533Y-69789411D01*
X28605533Y-69789411D02*
X28748390Y-69837030D01*
X28748390Y-69837030D02*
X29319819Y-70408458D01*
X29319819Y-70408458D02*
X29319819Y-69789411D01*
X57096009Y-79887D02*
X57143628Y62969D01*
X57143628Y62969D02*
X57191247Y110588D01*
X57191247Y110588D02*
X57286485Y158207D01*
X57286485Y158207D02*
X57429342Y158207D01*
X57429342Y158207D02*
X57524580Y110588D01*
X57524580Y110588D02*
X57572200Y62969D01*
X57572200Y62969D02*
X57619819Y-32268D01*
X57619819Y-32268D02*
X57619819Y-413220D01*
X57619819Y-413220D02*
X56619819Y-413220D01*
X56619819Y-413220D02*
X56619819Y-79887D01*
X56619819Y-79887D02*
X56667438Y15350D01*
X56667438Y15350D02*
X56715057Y62969D01*
X56715057Y62969D02*
X56810295Y110588D01*
X56810295Y110588D02*
X56905533Y110588D01*
X56905533Y110588D02*
X57000771Y62969D01*
X57000771Y62969D02*
X57048390Y15350D01*
X57048390Y15350D02*
X57096009Y-79887D01*
X57096009Y-79887D02*
X57096009Y-413220D01*
X57334104Y539160D02*
X57334104Y1015350D01*
X57619819Y443922D02*
X56619819Y777255D01*
X56619819Y777255D02*
X57619819Y1110588D01*
X56619819Y1301065D02*
X56619819Y1872493D01*
X57619819Y1586779D02*
X56619819Y1586779D01*
X24069819Y-72063220D02*
X23069819Y-72063220D01*
X23069819Y-72063220D02*
X23069819Y-71825125D01*
X23069819Y-71825125D02*
X23117438Y-71682268D01*
X23117438Y-71682268D02*
X23212676Y-71587030D01*
X23212676Y-71587030D02*
X23307914Y-71539411D01*
X23307914Y-71539411D02*
X23498390Y-71491792D01*
X23498390Y-71491792D02*
X23641247Y-71491792D01*
X23641247Y-71491792D02*
X23831723Y-71539411D01*
X23831723Y-71539411D02*
X23926961Y-71587030D01*
X23926961Y-71587030D02*
X24022200Y-71682268D01*
X24022200Y-71682268D02*
X24069819Y-71825125D01*
X24069819Y-71825125D02*
X24069819Y-72063220D01*
X23069819Y-71206077D02*
X23069819Y-70634649D01*
X24069819Y-70920363D02*
X23069819Y-70920363D01*
X23069819Y-70396553D02*
X24069819Y-69729887D01*
X23069819Y-69729887D02*
X24069819Y-70396553D01*
X54869819Y-413220D02*
X53869819Y-413220D01*
X53869819Y253445D02*
X53869819Y443921D01*
X53869819Y443921D02*
X53917438Y539159D01*
X53917438Y539159D02*
X54012676Y634397D01*
X54012676Y634397D02*
X54203152Y682016D01*
X54203152Y682016D02*
X54536485Y682016D01*
X54536485Y682016D02*
X54726961Y634397D01*
X54726961Y634397D02*
X54822200Y539159D01*
X54822200Y539159D02*
X54869819Y443921D01*
X54869819Y443921D02*
X54869819Y253445D01*
X54869819Y253445D02*
X54822200Y158207D01*
X54822200Y158207D02*
X54726961Y62969D01*
X54726961Y62969D02*
X54536485Y15350D01*
X54536485Y15350D02*
X54203152Y15350D01*
X54203152Y15350D02*
X54012676Y62969D01*
X54012676Y62969D02*
X53917438Y158207D01*
X53917438Y158207D02*
X53869819Y253445D01*
X53965057Y1062969D02*
X53917438Y1110588D01*
X53917438Y1110588D02*
X53869819Y1205826D01*
X53869819Y1205826D02*
X53869819Y1443921D01*
X53869819Y1443921D02*
X53917438Y1539159D01*
X53917438Y1539159D02*
X53965057Y1586778D01*
X53965057Y1586778D02*
X54060295Y1634397D01*
X54060295Y1634397D02*
X54155533Y1634397D01*
X54155533Y1634397D02*
X54298390Y1586778D01*
X54298390Y1586778D02*
X54869819Y1015350D01*
X54869819Y1015350D02*
X54869819Y1634397D01*
X16284104Y-71110839D02*
X16284104Y-70634649D01*
X16569819Y-71206077D02*
X15569819Y-70872744D01*
X15569819Y-70872744D02*
X16569819Y-70539411D01*
X15569819Y-70015601D02*
X15569819Y-69920363D01*
X15569819Y-69920363D02*
X15617438Y-69825125D01*
X15617438Y-69825125D02*
X15665057Y-69777506D01*
X15665057Y-69777506D02*
X15760295Y-69729887D01*
X15760295Y-69729887D02*
X15950771Y-69682268D01*
X15950771Y-69682268D02*
X16188866Y-69682268D01*
X16188866Y-69682268D02*
X16379342Y-69729887D01*
X16379342Y-69729887D02*
X16474580Y-69777506D01*
X16474580Y-69777506D02*
X16522200Y-69825125D01*
X16522200Y-69825125D02*
X16569819Y-69920363D01*
X16569819Y-69920363D02*
X16569819Y-70015601D01*
X16569819Y-70015601D02*
X16522200Y-70110839D01*
X16522200Y-70110839D02*
X16474580Y-70158458D01*
X16474580Y-70158458D02*
X16379342Y-70206077D01*
X16379342Y-70206077D02*
X16188866Y-70253696D01*
X16188866Y-70253696D02*
X15950771Y-70253696D01*
X15950771Y-70253696D02*
X15760295Y-70206077D01*
X15760295Y-70206077D02*
X15665057Y-70158458D01*
X15665057Y-70158458D02*
X15617438Y-70110839D01*
X15617438Y-70110839D02*
X15569819Y-70015601D01*
X41167438Y110588D02*
X41119819Y15350D01*
X41119819Y15350D02*
X41119819Y-127506D01*
X41119819Y-127506D02*
X41167438Y-270363D01*
X41167438Y-270363D02*
X41262676Y-365601D01*
X41262676Y-365601D02*
X41357914Y-413220D01*
X41357914Y-413220D02*
X41548390Y-460839D01*
X41548390Y-460839D02*
X41691247Y-460839D01*
X41691247Y-460839D02*
X41881723Y-413220D01*
X41881723Y-413220D02*
X41976961Y-365601D01*
X41976961Y-365601D02*
X42072200Y-270363D01*
X42072200Y-270363D02*
X42119819Y-127506D01*
X42119819Y-127506D02*
X42119819Y-32268D01*
X42119819Y-32268D02*
X42072200Y110588D01*
X42072200Y110588D02*
X42024580Y158207D01*
X42024580Y158207D02*
X41691247Y158207D01*
X41691247Y158207D02*
X41691247Y-32268D01*
X42119819Y586779D02*
X41119819Y586779D01*
X41119819Y586779D02*
X42119819Y1158207D01*
X42119819Y1158207D02*
X41119819Y1158207D01*
X42119819Y1634398D02*
X41119819Y1634398D01*
X41119819Y1634398D02*
X41119819Y1872493D01*
X41119819Y1872493D02*
X41167438Y2015350D01*
X41167438Y2015350D02*
X41262676Y2110588D01*
X41262676Y2110588D02*
X41357914Y2158207D01*
X41357914Y2158207D02*
X41548390Y2205826D01*
X41548390Y2205826D02*
X41691247Y2205826D01*
X41691247Y2205826D02*
X41881723Y2158207D01*
X41881723Y2158207D02*
X41976961Y2110588D01*
X41976961Y2110588D02*
X42072200Y2015350D01*
X42072200Y2015350D02*
X42119819Y1872493D01*
X42119819Y1872493D02*
X42119819Y1634398D01*
X57891541Y-71119819D02*
X58510588Y-71119819D01*
X58510588Y-71119819D02*
X58177255Y-71500771D01*
X58177255Y-71500771D02*
X58320112Y-71500771D01*
X58320112Y-71500771D02*
X58415350Y-71548390D01*
X58415350Y-71548390D02*
X58462969Y-71596009D01*
X58462969Y-71596009D02*
X58510588Y-71691247D01*
X58510588Y-71691247D02*
X58510588Y-71929342D01*
X58510588Y-71929342D02*
X58462969Y-72024580D01*
X58462969Y-72024580D02*
X58415350Y-72072200D01*
X58415350Y-72072200D02*
X58320112Y-72119819D01*
X58320112Y-72119819D02*
X58034398Y-72119819D01*
X58034398Y-72119819D02*
X57939160Y-72072200D01*
X57939160Y-72072200D02*
X57891541Y-72024580D01*
X58796303Y-71119819D02*
X59129636Y-72119819D01*
X59129636Y-72119819D02*
X59462969Y-71119819D01*
X21284104Y-71110839D02*
X21284104Y-70634649D01*
X21569819Y-71206077D02*
X20569819Y-70872744D01*
X20569819Y-70872744D02*
X21569819Y-70539411D01*
X20665057Y-70253696D02*
X20617438Y-70206077D01*
X20617438Y-70206077D02*
X20569819Y-70110839D01*
X20569819Y-70110839D02*
X20569819Y-69872744D01*
X20569819Y-69872744D02*
X20617438Y-69777506D01*
X20617438Y-69777506D02*
X20665057Y-69729887D01*
X20665057Y-69729887D02*
X20760295Y-69682268D01*
X20760295Y-69682268D02*
X20855533Y-69682268D01*
X20855533Y-69682268D02*
X20998390Y-69729887D01*
X20998390Y-69729887D02*
X21569819Y-70301315D01*
X21569819Y-70301315D02*
X21569819Y-69682268D01*
X89450476Y-43612295D02*
X89450476Y-42812295D01*
X89450476Y-42812295D02*
X89640952Y-42812295D01*
X89640952Y-42812295D02*
X89755238Y-42850390D01*
X89755238Y-42850390D02*
X89831428Y-42926580D01*
X89831428Y-42926580D02*
X89869523Y-43002771D01*
X89869523Y-43002771D02*
X89907619Y-43155152D01*
X89907619Y-43155152D02*
X89907619Y-43269438D01*
X89907619Y-43269438D02*
X89869523Y-43421819D01*
X89869523Y-43421819D02*
X89831428Y-43498009D01*
X89831428Y-43498009D02*
X89755238Y-43574200D01*
X89755238Y-43574200D02*
X89640952Y-43612295D01*
X89640952Y-43612295D02*
X89450476Y-43612295D01*
X90402857Y-42812295D02*
X90555238Y-42812295D01*
X90555238Y-42812295D02*
X90631428Y-42850390D01*
X90631428Y-42850390D02*
X90707619Y-42926580D01*
X90707619Y-42926580D02*
X90745714Y-43078961D01*
X90745714Y-43078961D02*
X90745714Y-43345628D01*
X90745714Y-43345628D02*
X90707619Y-43498009D01*
X90707619Y-43498009D02*
X90631428Y-43574200D01*
X90631428Y-43574200D02*
X90555238Y-43612295D01*
X90555238Y-43612295D02*
X90402857Y-43612295D01*
X90402857Y-43612295D02*
X90326666Y-43574200D01*
X90326666Y-43574200D02*
X90250476Y-43498009D01*
X90250476Y-43498009D02*
X90212380Y-43345628D01*
X90212380Y-43345628D02*
X90212380Y-43078961D01*
X90212380Y-43078961D02*
X90250476Y-42926580D01*
X90250476Y-42926580D02*
X90326666Y-42850390D01*
X90326666Y-42850390D02*
X90402857Y-42812295D01*
X91088571Y-43612295D02*
X91088571Y-42812295D01*
X91088571Y-42812295D02*
X91545714Y-43612295D01*
X91545714Y-43612295D02*
X91545714Y-42812295D01*
X91926666Y-43193247D02*
X92193332Y-43193247D01*
X92307618Y-43612295D02*
X91926666Y-43612295D01*
X91926666Y-43612295D02*
X91926666Y-42812295D01*
X91926666Y-42812295D02*
X92307618Y-42812295D01*
X49584104Y-460839D02*
X49584104Y15350D01*
X49869819Y-556077D02*
X48869819Y-222744D01*
X48869819Y-222744D02*
X49869819Y110588D01*
X49869819Y443922D02*
X48869819Y443922D01*
X49869819Y920112D02*
X48869819Y920112D01*
X48869819Y920112D02*
X49869819Y1491540D01*
X49869819Y1491540D02*
X48869819Y1491540D01*
X49869819Y2491540D02*
X49869819Y1920112D01*
X49869819Y2205826D02*
X48869819Y2205826D01*
X48869819Y2205826D02*
X49012676Y2110588D01*
X49012676Y2110588D02*
X49107914Y2015350D01*
X49107914Y2015350D02*
X49155533Y1920112D01*
X89382200Y-14960839D02*
X89429819Y-14817982D01*
X89429819Y-14817982D02*
X89429819Y-14579887D01*
X89429819Y-14579887D02*
X89382200Y-14484649D01*
X89382200Y-14484649D02*
X89334580Y-14437030D01*
X89334580Y-14437030D02*
X89239342Y-14389411D01*
X89239342Y-14389411D02*
X89144104Y-14389411D01*
X89144104Y-14389411D02*
X89048866Y-14437030D01*
X89048866Y-14437030D02*
X89001247Y-14484649D01*
X89001247Y-14484649D02*
X88953628Y-14579887D01*
X88953628Y-14579887D02*
X88906009Y-14770363D01*
X88906009Y-14770363D02*
X88858390Y-14865601D01*
X88858390Y-14865601D02*
X88810771Y-14913220D01*
X88810771Y-14913220D02*
X88715533Y-14960839D01*
X88715533Y-14960839D02*
X88620295Y-14960839D01*
X88620295Y-14960839D02*
X88525057Y-14913220D01*
X88525057Y-14913220D02*
X88477438Y-14865601D01*
X88477438Y-14865601D02*
X88429819Y-14770363D01*
X88429819Y-14770363D02*
X88429819Y-14532268D01*
X88429819Y-14532268D02*
X88477438Y-14389411D01*
X89334580Y-13389411D02*
X89382200Y-13437030D01*
X89382200Y-13437030D02*
X89429819Y-13579887D01*
X89429819Y-13579887D02*
X89429819Y-13675125D01*
X89429819Y-13675125D02*
X89382200Y-13817982D01*
X89382200Y-13817982D02*
X89286961Y-13913220D01*
X89286961Y-13913220D02*
X89191723Y-13960839D01*
X89191723Y-13960839D02*
X89001247Y-14008458D01*
X89001247Y-14008458D02*
X88858390Y-14008458D01*
X88858390Y-14008458D02*
X88667914Y-13960839D01*
X88667914Y-13960839D02*
X88572676Y-13913220D01*
X88572676Y-13913220D02*
X88477438Y-13817982D01*
X88477438Y-13817982D02*
X88429819Y-13675125D01*
X88429819Y-13675125D02*
X88429819Y-13579887D01*
X88429819Y-13579887D02*
X88477438Y-13437030D01*
X88477438Y-13437030D02*
X88525057Y-13389411D01*
X89429819Y-12484649D02*
X89429819Y-12960839D01*
X89429819Y-12960839D02*
X88429819Y-12960839D01*
X43619819Y-556077D02*
X43619819Y15350D01*
X44619819Y-270363D02*
X43619819Y-270363D01*
X43619819Y253446D02*
X44619819Y920112D01*
X43619819Y920112D02*
X44619819Y253446D01*
X44619819Y1824874D02*
X44619819Y1253446D01*
X44619819Y1539160D02*
X43619819Y1539160D01*
X43619819Y1539160D02*
X43762676Y1443922D01*
X43762676Y1443922D02*
X43857914Y1348684D01*
X43857914Y1348684D02*
X43905533Y1253446D01*
X101140476Y-50850390D02*
X101064286Y-50812295D01*
X101064286Y-50812295D02*
X100950000Y-50812295D01*
X100950000Y-50812295D02*
X100835714Y-50850390D01*
X100835714Y-50850390D02*
X100759524Y-50926580D01*
X100759524Y-50926580D02*
X100721429Y-51002771D01*
X100721429Y-51002771D02*
X100683333Y-51155152D01*
X100683333Y-51155152D02*
X100683333Y-51269438D01*
X100683333Y-51269438D02*
X100721429Y-51421819D01*
X100721429Y-51421819D02*
X100759524Y-51498009D01*
X100759524Y-51498009D02*
X100835714Y-51574200D01*
X100835714Y-51574200D02*
X100950000Y-51612295D01*
X100950000Y-51612295D02*
X101026191Y-51612295D01*
X101026191Y-51612295D02*
X101140476Y-51574200D01*
X101140476Y-51574200D02*
X101178572Y-51536104D01*
X101178572Y-51536104D02*
X101178572Y-51269438D01*
X101178572Y-51269438D02*
X101026191Y-51269438D01*
X101521429Y-51612295D02*
X101521429Y-50812295D01*
X101521429Y-50812295D02*
X101978572Y-51612295D01*
X101978572Y-51612295D02*
X101978572Y-50812295D01*
X102359524Y-51612295D02*
X102359524Y-50812295D01*
X102359524Y-50812295D02*
X102550000Y-50812295D01*
X102550000Y-50812295D02*
X102664286Y-50850390D01*
X102664286Y-50850390D02*
X102740476Y-50926580D01*
X102740476Y-50926580D02*
X102778571Y-51002771D01*
X102778571Y-51002771D02*
X102816667Y-51155152D01*
X102816667Y-51155152D02*
X102816667Y-51269438D01*
X102816667Y-51269438D02*
X102778571Y-51421819D01*
X102778571Y-51421819D02*
X102740476Y-51498009D01*
X102740476Y-51498009D02*
X102664286Y-51574200D01*
X102664286Y-51574200D02*
X102550000Y-51612295D01*
X102550000Y-51612295D02*
X102359524Y-51612295D01*
X18784104Y-71110839D02*
X18784104Y-70634649D01*
X19069819Y-71206077D02*
X18069819Y-70872744D01*
X18069819Y-70872744D02*
X19069819Y-70539411D01*
X19069819Y-69682268D02*
X19069819Y-70253696D01*
X19069819Y-69967982D02*
X18069819Y-69967982D01*
X18069819Y-69967982D02*
X18212676Y-70063220D01*
X18212676Y-70063220D02*
X18307914Y-70158458D01*
X18307914Y-70158458D02*
X18355533Y-70253696D01*
X64471428Y-37558557D02*
X64814285Y-37558557D01*
X64599999Y-37258557D02*
X64599999Y-38029985D01*
X64599999Y-38029985D02*
X64642856Y-38115700D01*
X64642856Y-38115700D02*
X64728571Y-38158557D01*
X64728571Y-38158557D02*
X64814285Y-38158557D01*
X65114285Y-37558557D02*
X65114285Y-38458557D01*
X65114285Y-37601414D02*
X65200000Y-37558557D01*
X65200000Y-37558557D02*
X65371428Y-37558557D01*
X65371428Y-37558557D02*
X65457142Y-37601414D01*
X65457142Y-37601414D02*
X65500000Y-37644271D01*
X65500000Y-37644271D02*
X65542857Y-37729985D01*
X65542857Y-37729985D02*
X65542857Y-37987128D01*
X65542857Y-37987128D02*
X65500000Y-38072842D01*
X65500000Y-38072842D02*
X65457142Y-38115700D01*
X65457142Y-38115700D02*
X65371428Y-38158557D01*
X65371428Y-38158557D02*
X65200000Y-38158557D01*
X65200000Y-38158557D02*
X65114285Y-38115700D01*
X66057143Y-38158557D02*
X65971428Y-38115700D01*
X65971428Y-38115700D02*
X65928571Y-38029985D01*
X65928571Y-38029985D02*
X65928571Y-37258557D01*
X66828572Y-37258557D02*
X66400000Y-37258557D01*
X66400000Y-37258557D02*
X66357143Y-37687128D01*
X66357143Y-37687128D02*
X66400000Y-37644271D01*
X66400000Y-37644271D02*
X66485715Y-37601414D01*
X66485715Y-37601414D02*
X66700000Y-37601414D01*
X66700000Y-37601414D02*
X66785715Y-37644271D01*
X66785715Y-37644271D02*
X66828572Y-37687128D01*
X66828572Y-37687128D02*
X66871429Y-37772842D01*
X66871429Y-37772842D02*
X66871429Y-37987128D01*
X66871429Y-37987128D02*
X66828572Y-38072842D01*
X66828572Y-38072842D02*
X66785715Y-38115700D01*
X66785715Y-38115700D02*
X66700000Y-38158557D01*
X66700000Y-38158557D02*
X66485715Y-38158557D01*
X66485715Y-38158557D02*
X66400000Y-38115700D01*
X66400000Y-38115700D02*
X66357143Y-38072842D01*
X67728572Y-38158557D02*
X67214286Y-38158557D01*
X67471429Y-38158557D02*
X67471429Y-37258557D01*
X67471429Y-37258557D02*
X67385715Y-37387128D01*
X67385715Y-37387128D02*
X67300000Y-37472842D01*
X67300000Y-37472842D02*
X67214286Y-37515700D01*
X68585715Y-38158557D02*
X68071429Y-38158557D01*
X68328572Y-38158557D02*
X68328572Y-37258557D01*
X68328572Y-37258557D02*
X68242858Y-37387128D01*
X68242858Y-37387128D02*
X68157143Y-37472842D01*
X68157143Y-37472842D02*
X68071429Y-37515700D01*
X69142858Y-37258557D02*
X69228572Y-37258557D01*
X69228572Y-37258557D02*
X69314286Y-37301414D01*
X69314286Y-37301414D02*
X69357144Y-37344271D01*
X69357144Y-37344271D02*
X69400001Y-37429985D01*
X69400001Y-37429985D02*
X69442858Y-37601414D01*
X69442858Y-37601414D02*
X69442858Y-37815700D01*
X69442858Y-37815700D02*
X69400001Y-37987128D01*
X69400001Y-37987128D02*
X69357144Y-38072842D01*
X69357144Y-38072842D02*
X69314286Y-38115700D01*
X69314286Y-38115700D02*
X69228572Y-38158557D01*
X69228572Y-38158557D02*
X69142858Y-38158557D01*
X69142858Y-38158557D02*
X69057144Y-38115700D01*
X69057144Y-38115700D02*
X69014286Y-38072842D01*
X69014286Y-38072842D02*
X68971429Y-37987128D01*
X68971429Y-37987128D02*
X68928572Y-37815700D01*
X68928572Y-37815700D02*
X68928572Y-37601414D01*
X68928572Y-37601414D02*
X68971429Y-37429985D01*
X68971429Y-37429985D02*
X69014286Y-37344271D01*
X69014286Y-37344271D02*
X69057144Y-37301414D01*
X69057144Y-37301414D02*
X69142858Y-37258557D01*
X39096009Y-79887D02*
X39143628Y62969D01*
X39143628Y62969D02*
X39191247Y110588D01*
X39191247Y110588D02*
X39286485Y158207D01*
X39286485Y158207D02*
X39429342Y158207D01*
X39429342Y158207D02*
X39524580Y110588D01*
X39524580Y110588D02*
X39572200Y62969D01*
X39572200Y62969D02*
X39619819Y-32268D01*
X39619819Y-32268D02*
X39619819Y-413220D01*
X39619819Y-413220D02*
X38619819Y-413220D01*
X38619819Y-413220D02*
X38619819Y-79887D01*
X38619819Y-79887D02*
X38667438Y15350D01*
X38667438Y15350D02*
X38715057Y62969D01*
X38715057Y62969D02*
X38810295Y110588D01*
X38810295Y110588D02*
X38905533Y110588D01*
X38905533Y110588D02*
X39000771Y62969D01*
X39000771Y62969D02*
X39048390Y15350D01*
X39048390Y15350D02*
X39096009Y-79887D01*
X39096009Y-79887D02*
X39096009Y-413220D01*
X38619819Y777255D02*
X38619819Y872493D01*
X38619819Y872493D02*
X38667438Y967731D01*
X38667438Y967731D02*
X38715057Y1015350D01*
X38715057Y1015350D02*
X38810295Y1062969D01*
X38810295Y1062969D02*
X39000771Y1110588D01*
X39000771Y1110588D02*
X39238866Y1110588D01*
X39238866Y1110588D02*
X39429342Y1062969D01*
X39429342Y1062969D02*
X39524580Y1015350D01*
X39524580Y1015350D02*
X39572200Y967731D01*
X39572200Y967731D02*
X39619819Y872493D01*
X39619819Y872493D02*
X39619819Y777255D01*
X39619819Y777255D02*
X39572200Y682017D01*
X39572200Y682017D02*
X39524580Y634398D01*
X39524580Y634398D02*
X39429342Y586779D01*
X39429342Y586779D02*
X39238866Y539160D01*
X39238866Y539160D02*
X39000771Y539160D01*
X39000771Y539160D02*
X38810295Y586779D01*
X38810295Y586779D02*
X38715057Y634398D01*
X38715057Y634398D02*
X38667438Y682017D01*
X38667438Y682017D02*
X38619819Y777255D01*
X47369819Y158207D02*
X46893628Y-175125D01*
X47369819Y-413220D02*
X46369819Y-413220D01*
X46369819Y-413220D02*
X46369819Y-32268D01*
X46369819Y-32268D02*
X46417438Y62969D01*
X46417438Y62969D02*
X46465057Y110588D01*
X46465057Y110588D02*
X46560295Y158207D01*
X46560295Y158207D02*
X46703152Y158207D01*
X46703152Y158207D02*
X46798390Y110588D01*
X46798390Y110588D02*
X46846009Y62969D01*
X46846009Y62969D02*
X46893628Y-32268D01*
X46893628Y-32268D02*
X46893628Y-413220D01*
X46369819Y491541D02*
X47369819Y1158207D01*
X46369819Y1158207D02*
X47369819Y491541D01*
X47369819Y2062969D02*
X47369819Y1491541D01*
X47369819Y1777255D02*
X46369819Y1777255D01*
X46369819Y1777255D02*
X46512676Y1682017D01*
X46512676Y1682017D02*
X46607914Y1586779D01*
X46607914Y1586779D02*
X46655533Y1491541D01*
X90336779Y-72119819D02*
X90336779Y-71119819D01*
X90336779Y-71119819D02*
X90574874Y-71119819D01*
X90574874Y-71119819D02*
X90717731Y-71167438D01*
X90717731Y-71167438D02*
X90812969Y-71262676D01*
X90812969Y-71262676D02*
X90860588Y-71357914D01*
X90860588Y-71357914D02*
X90908207Y-71548390D01*
X90908207Y-71548390D02*
X90908207Y-71691247D01*
X90908207Y-71691247D02*
X90860588Y-71881723D01*
X90860588Y-71881723D02*
X90812969Y-71976961D01*
X90812969Y-71976961D02*
X90717731Y-72072200D01*
X90717731Y-72072200D02*
X90574874Y-72119819D01*
X90574874Y-72119819D02*
X90336779Y-72119819D01*
X91336779Y-72119819D02*
X91336779Y-71119819D01*
X91336779Y-71119819D02*
X91717731Y-71119819D01*
X91717731Y-71119819D02*
X91812969Y-71167438D01*
X91812969Y-71167438D02*
X91860588Y-71215057D01*
X91860588Y-71215057D02*
X91908207Y-71310295D01*
X91908207Y-71310295D02*
X91908207Y-71453152D01*
X91908207Y-71453152D02*
X91860588Y-71548390D01*
X91860588Y-71548390D02*
X91812969Y-71596009D01*
X91812969Y-71596009D02*
X91717731Y-71643628D01*
X91717731Y-71643628D02*
X91336779Y-71643628D01*
X92098684Y-72215057D02*
X92860588Y-72215057D01*
X93527255Y-71453152D02*
X93527255Y-72119819D01*
X93289160Y-71072200D02*
X93051065Y-71786485D01*
X93051065Y-71786485D02*
X93670112Y-71786485D01*
X89869523Y-50407890D02*
X89793333Y-50369795D01*
X89793333Y-50369795D02*
X89679047Y-50369795D01*
X89679047Y-50369795D02*
X89564761Y-50407890D01*
X89564761Y-50407890D02*
X89488571Y-50484080D01*
X89488571Y-50484080D02*
X89450476Y-50560271D01*
X89450476Y-50560271D02*
X89412380Y-50712652D01*
X89412380Y-50712652D02*
X89412380Y-50826938D01*
X89412380Y-50826938D02*
X89450476Y-50979319D01*
X89450476Y-50979319D02*
X89488571Y-51055509D01*
X89488571Y-51055509D02*
X89564761Y-51131700D01*
X89564761Y-51131700D02*
X89679047Y-51169795D01*
X89679047Y-51169795D02*
X89755238Y-51169795D01*
X89755238Y-51169795D02*
X89869523Y-51131700D01*
X89869523Y-51131700D02*
X89907619Y-51093604D01*
X89907619Y-51093604D02*
X89907619Y-50826938D01*
X89907619Y-50826938D02*
X89755238Y-50826938D01*
X90250476Y-51169795D02*
X90250476Y-50369795D01*
X90250476Y-50369795D02*
X90707619Y-51169795D01*
X90707619Y-51169795D02*
X90707619Y-50369795D01*
X91088571Y-51169795D02*
X91088571Y-50369795D01*
X91088571Y-50369795D02*
X91279047Y-50369795D01*
X91279047Y-50369795D02*
X91393333Y-50407890D01*
X91393333Y-50407890D02*
X91469523Y-50484080D01*
X91469523Y-50484080D02*
X91507618Y-50560271D01*
X91507618Y-50560271D02*
X91545714Y-50712652D01*
X91545714Y-50712652D02*
X91545714Y-50826938D01*
X91545714Y-50826938D02*
X91507618Y-50979319D01*
X91507618Y-50979319D02*
X91469523Y-51055509D01*
X91469523Y-51055509D02*
X91393333Y-51131700D01*
X91393333Y-51131700D02*
X91279047Y-51169795D01*
X91279047Y-51169795D02*
X91088571Y-51169795D01*
X91882200Y-14960839D02*
X91929819Y-14817982D01*
X91929819Y-14817982D02*
X91929819Y-14579887D01*
X91929819Y-14579887D02*
X91882200Y-14484649D01*
X91882200Y-14484649D02*
X91834580Y-14437030D01*
X91834580Y-14437030D02*
X91739342Y-14389411D01*
X91739342Y-14389411D02*
X91644104Y-14389411D01*
X91644104Y-14389411D02*
X91548866Y-14437030D01*
X91548866Y-14437030D02*
X91501247Y-14484649D01*
X91501247Y-14484649D02*
X91453628Y-14579887D01*
X91453628Y-14579887D02*
X91406009Y-14770363D01*
X91406009Y-14770363D02*
X91358390Y-14865601D01*
X91358390Y-14865601D02*
X91310771Y-14913220D01*
X91310771Y-14913220D02*
X91215533Y-14960839D01*
X91215533Y-14960839D02*
X91120295Y-14960839D01*
X91120295Y-14960839D02*
X91025057Y-14913220D01*
X91025057Y-14913220D02*
X90977438Y-14865601D01*
X90977438Y-14865601D02*
X90929819Y-14770363D01*
X90929819Y-14770363D02*
X90929819Y-14532268D01*
X90929819Y-14532268D02*
X90977438Y-14389411D01*
X91929819Y-13960839D02*
X90929819Y-13960839D01*
X90929819Y-13960839D02*
X90929819Y-13722744D01*
X90929819Y-13722744D02*
X90977438Y-13579887D01*
X90977438Y-13579887D02*
X91072676Y-13484649D01*
X91072676Y-13484649D02*
X91167914Y-13437030D01*
X91167914Y-13437030D02*
X91358390Y-13389411D01*
X91358390Y-13389411D02*
X91501247Y-13389411D01*
X91501247Y-13389411D02*
X91691723Y-13437030D01*
X91691723Y-13437030D02*
X91786961Y-13484649D01*
X91786961Y-13484649D02*
X91882200Y-13579887D01*
X91882200Y-13579887D02*
X91929819Y-13722744D01*
X91929819Y-13722744D02*
X91929819Y-13960839D01*
X91644104Y-13008458D02*
X91644104Y-12532268D01*
X91929819Y-13103696D02*
X90929819Y-12770363D01*
X90929819Y-12770363D02*
X91929819Y-12437030D01*
X89450476Y-48669795D02*
X89450476Y-47869795D01*
X89450476Y-47869795D02*
X89640952Y-47869795D01*
X89640952Y-47869795D02*
X89755238Y-47907890D01*
X89755238Y-47907890D02*
X89831428Y-47984080D01*
X89831428Y-47984080D02*
X89869523Y-48060271D01*
X89869523Y-48060271D02*
X89907619Y-48212652D01*
X89907619Y-48212652D02*
X89907619Y-48326938D01*
X89907619Y-48326938D02*
X89869523Y-48479319D01*
X89869523Y-48479319D02*
X89831428Y-48555509D01*
X89831428Y-48555509D02*
X89755238Y-48631700D01*
X89755238Y-48631700D02*
X89640952Y-48669795D01*
X89640952Y-48669795D02*
X89450476Y-48669795D01*
X90250476Y-48250747D02*
X90517142Y-48250747D01*
X90631428Y-48669795D02*
X90250476Y-48669795D01*
X90250476Y-48669795D02*
X90250476Y-47869795D01*
X90250476Y-47869795D02*
X90631428Y-47869795D01*
X91355238Y-48669795D02*
X90974286Y-48669795D01*
X90974286Y-48669795D02*
X90974286Y-47869795D01*
X91583809Y-48441223D02*
X91964762Y-48441223D01*
X91507619Y-48669795D02*
X91774286Y-47869795D01*
X91774286Y-47869795D02*
X92040952Y-48669795D01*
X92460000Y-48288842D02*
X92460000Y-48669795D01*
X92193333Y-47869795D02*
X92460000Y-48288842D01*
X92460000Y-48288842D02*
X92726666Y-47869795D01*
X45491541Y-47619819D02*
X46110588Y-47619819D01*
X46110588Y-47619819D02*
X45777255Y-48000771D01*
X45777255Y-48000771D02*
X45920112Y-48000771D01*
X45920112Y-48000771D02*
X46015350Y-48048390D01*
X46015350Y-48048390D02*
X46062969Y-48096009D01*
X46062969Y-48096009D02*
X46110588Y-48191247D01*
X46110588Y-48191247D02*
X46110588Y-48429342D01*
X46110588Y-48429342D02*
X46062969Y-48524580D01*
X46062969Y-48524580D02*
X46015350Y-48572200D01*
X46015350Y-48572200D02*
X45920112Y-48619819D01*
X45920112Y-48619819D02*
X45634398Y-48619819D01*
X45634398Y-48619819D02*
X45539160Y-48572200D01*
X45539160Y-48572200D02*
X45491541Y-48524580D01*
X46396303Y-47619819D02*
X46729636Y-48619819D01*
X46729636Y-48619819D02*
X47062969Y-47619819D01*
X47301065Y-47619819D02*
X47920112Y-47619819D01*
X47920112Y-47619819D02*
X47586779Y-48000771D01*
X47586779Y-48000771D02*
X47729636Y-48000771D01*
X47729636Y-48000771D02*
X47824874Y-48048390D01*
X47824874Y-48048390D02*
X47872493Y-48096009D01*
X47872493Y-48096009D02*
X47920112Y-48191247D01*
X47920112Y-48191247D02*
X47920112Y-48429342D01*
X47920112Y-48429342D02*
X47872493Y-48524580D01*
X47872493Y-48524580D02*
X47824874Y-48572200D01*
X47824874Y-48572200D02*
X47729636Y-48619819D01*
X47729636Y-48619819D02*
X47443922Y-48619819D01*
X47443922Y-48619819D02*
X47348684Y-48572200D01*
X47348684Y-48572200D02*
X47301065Y-48524580D01*
X68610588Y-24417438D02*
X68515350Y-24369819D01*
X68515350Y-24369819D02*
X68372493Y-24369819D01*
X68372493Y-24369819D02*
X68229636Y-24417438D01*
X68229636Y-24417438D02*
X68134398Y-24512676D01*
X68134398Y-24512676D02*
X68086779Y-24607914D01*
X68086779Y-24607914D02*
X68039160Y-24798390D01*
X68039160Y-24798390D02*
X68039160Y-24941247D01*
X68039160Y-24941247D02*
X68086779Y-25131723D01*
X68086779Y-25131723D02*
X68134398Y-25226961D01*
X68134398Y-25226961D02*
X68229636Y-25322200D01*
X68229636Y-25322200D02*
X68372493Y-25369819D01*
X68372493Y-25369819D02*
X68467731Y-25369819D01*
X68467731Y-25369819D02*
X68610588Y-25322200D01*
X68610588Y-25322200D02*
X68658207Y-25274580D01*
X68658207Y-25274580D02*
X68658207Y-24941247D01*
X68658207Y-24941247D02*
X68467731Y-24941247D01*
X69086779Y-25369819D02*
X69086779Y-24369819D01*
X69086779Y-24369819D02*
X69658207Y-25369819D01*
X69658207Y-25369819D02*
X69658207Y-24369819D01*
X70134398Y-25369819D02*
X70134398Y-24369819D01*
X70134398Y-24369819D02*
X70372493Y-24369819D01*
X70372493Y-24369819D02*
X70515350Y-24417438D01*
X70515350Y-24417438D02*
X70610588Y-24512676D01*
X70610588Y-24512676D02*
X70658207Y-24607914D01*
X70658207Y-24607914D02*
X70705826Y-24798390D01*
X70705826Y-24798390D02*
X70705826Y-24941247D01*
X70705826Y-24941247D02*
X70658207Y-25131723D01*
X70658207Y-25131723D02*
X70610588Y-25226961D01*
X70610588Y-25226961D02*
X70515350Y-25322200D01*
X70515350Y-25322200D02*
X70372493Y-25369819D01*
X70372493Y-25369819D02*
X70134398Y-25369819D01*
X70738095Y-5954819D02*
X70738095Y-6764342D01*
X70738095Y-6764342D02*
X70785714Y-6859580D01*
X70785714Y-6859580D02*
X70833333Y-6907200D01*
X70833333Y-6907200D02*
X70928571Y-6954819D01*
X70928571Y-6954819D02*
X71119047Y-6954819D01*
X71119047Y-6954819D02*
X71214285Y-6907200D01*
X71214285Y-6907200D02*
X71261904Y-6859580D01*
X71261904Y-6859580D02*
X71309523Y-6764342D01*
X71309523Y-6764342D02*
X71309523Y-5954819D01*
X71738095Y-6050057D02*
X71785714Y-6002438D01*
X71785714Y-6002438D02*
X71880952Y-5954819D01*
X71880952Y-5954819D02*
X72119047Y-5954819D01*
X72119047Y-5954819D02*
X72214285Y-6002438D01*
X72214285Y-6002438D02*
X72261904Y-6050057D01*
X72261904Y-6050057D02*
X72309523Y-6145295D01*
X72309523Y-6145295D02*
X72309523Y-6240533D01*
X72309523Y-6240533D02*
X72261904Y-6383390D01*
X72261904Y-6383390D02*
X71690476Y-6954819D01*
X71690476Y-6954819D02*
X72309523Y-6954819D01*
X93534819Y-11309523D02*
X94249104Y-11309523D01*
X94249104Y-11309523D02*
X94391961Y-11357142D01*
X94391961Y-11357142D02*
X94487200Y-11452380D01*
X94487200Y-11452380D02*
X94534819Y-11595237D01*
X94534819Y-11595237D02*
X94534819Y-11690475D01*
X94534819Y-10309523D02*
X94534819Y-10880951D01*
X94534819Y-10595237D02*
X93534819Y-10595237D01*
X93534819Y-10595237D02*
X93677676Y-10690475D01*
X93677676Y-10690475D02*
X93772914Y-10785713D01*
X93772914Y-10785713D02*
X93820533Y-10880951D01*
X93534819Y-9690475D02*
X93534819Y-9595237D01*
X93534819Y-9595237D02*
X93582438Y-9499999D01*
X93582438Y-9499999D02*
X93630057Y-9452380D01*
X93630057Y-9452380D02*
X93725295Y-9404761D01*
X93725295Y-9404761D02*
X93915771Y-9357142D01*
X93915771Y-9357142D02*
X94153866Y-9357142D01*
X94153866Y-9357142D02*
X94344342Y-9404761D01*
X94344342Y-9404761D02*
X94439580Y-9452380D01*
X94439580Y-9452380D02*
X94487200Y-9499999D01*
X94487200Y-9499999D02*
X94534819Y-9595237D01*
X94534819Y-9595237D02*
X94534819Y-9690475D01*
X94534819Y-9690475D02*
X94487200Y-9785713D01*
X94487200Y-9785713D02*
X94439580Y-9833332D01*
X94439580Y-9833332D02*
X94344342Y-9880951D01*
X94344342Y-9880951D02*
X94153866Y-9928570D01*
X94153866Y-9928570D02*
X93915771Y-9928570D01*
X93915771Y-9928570D02*
X93725295Y-9880951D01*
X93725295Y-9880951D02*
X93630057Y-9833332D01*
X93630057Y-9833332D02*
X93582438Y-9785713D01*
X93582438Y-9785713D02*
X93534819Y-9690475D01*
X61822319Y-56702857D02*
X61346128Y-57036190D01*
X61822319Y-57274285D02*
X60822319Y-57274285D01*
X60822319Y-57274285D02*
X60822319Y-56893333D01*
X60822319Y-56893333D02*
X60869938Y-56798095D01*
X60869938Y-56798095D02*
X60917557Y-56750476D01*
X60917557Y-56750476D02*
X61012795Y-56702857D01*
X61012795Y-56702857D02*
X61155652Y-56702857D01*
X61155652Y-56702857D02*
X61250890Y-56750476D01*
X61250890Y-56750476D02*
X61298509Y-56798095D01*
X61298509Y-56798095D02*
X61346128Y-56893333D01*
X61346128Y-56893333D02*
X61346128Y-57274285D01*
X61822319Y-55750476D02*
X61822319Y-56321904D01*
X61822319Y-56036190D02*
X60822319Y-56036190D01*
X60822319Y-56036190D02*
X60965176Y-56131428D01*
X60965176Y-56131428D02*
X61060414Y-56226666D01*
X61060414Y-56226666D02*
X61108033Y-56321904D01*
X61822319Y-55274285D02*
X61822319Y-55083809D01*
X61822319Y-55083809D02*
X61774700Y-54988571D01*
X61774700Y-54988571D02*
X61727080Y-54940952D01*
X61727080Y-54940952D02*
X61584223Y-54845714D01*
X61584223Y-54845714D02*
X61393747Y-54798095D01*
X61393747Y-54798095D02*
X61012795Y-54798095D01*
X61012795Y-54798095D02*
X60917557Y-54845714D01*
X60917557Y-54845714D02*
X60869938Y-54893333D01*
X60869938Y-54893333D02*
X60822319Y-54988571D01*
X60822319Y-54988571D02*
X60822319Y-55179047D01*
X60822319Y-55179047D02*
X60869938Y-55274285D01*
X60869938Y-55274285D02*
X60917557Y-55321904D01*
X60917557Y-55321904D02*
X61012795Y-55369523D01*
X61012795Y-55369523D02*
X61250890Y-55369523D01*
X61250890Y-55369523D02*
X61346128Y-55321904D01*
X61346128Y-55321904D02*
X61393747Y-55274285D01*
X61393747Y-55274285D02*
X61441366Y-55179047D01*
X61441366Y-55179047D02*
X61441366Y-54988571D01*
X61441366Y-54988571D02*
X61393747Y-54893333D01*
X61393747Y-54893333D02*
X61346128Y-54845714D01*
X61346128Y-54845714D02*
X61250890Y-54798095D01*
X9561905Y-38454819D02*
X9561905Y-37454819D01*
X9561905Y-37454819D02*
X9800000Y-37454819D01*
X9800000Y-37454819D02*
X9942857Y-37502438D01*
X9942857Y-37502438D02*
X10038095Y-37597676D01*
X10038095Y-37597676D02*
X10085714Y-37692914D01*
X10085714Y-37692914D02*
X10133333Y-37883390D01*
X10133333Y-37883390D02*
X10133333Y-38026247D01*
X10133333Y-38026247D02*
X10085714Y-38216723D01*
X10085714Y-38216723D02*
X10038095Y-38311961D01*
X10038095Y-38311961D02*
X9942857Y-38407200D01*
X9942857Y-38407200D02*
X9800000Y-38454819D01*
X9800000Y-38454819D02*
X9561905Y-38454819D01*
X11085714Y-38454819D02*
X10514286Y-38454819D01*
X10800000Y-38454819D02*
X10800000Y-37454819D01*
X10800000Y-37454819D02*
X10704762Y-37597676D01*
X10704762Y-37597676D02*
X10609524Y-37692914D01*
X10609524Y-37692914D02*
X10514286Y-37740533D01*
X61704819Y-51666666D02*
X61228628Y-51999999D01*
X61704819Y-52238094D02*
X60704819Y-52238094D01*
X60704819Y-52238094D02*
X60704819Y-51857142D01*
X60704819Y-51857142D02*
X60752438Y-51761904D01*
X60752438Y-51761904D02*
X60800057Y-51714285D01*
X60800057Y-51714285D02*
X60895295Y-51666666D01*
X60895295Y-51666666D02*
X61038152Y-51666666D01*
X61038152Y-51666666D02*
X61133390Y-51714285D01*
X61133390Y-51714285D02*
X61181009Y-51761904D01*
X61181009Y-51761904D02*
X61228628Y-51857142D01*
X61228628Y-51857142D02*
X61228628Y-52238094D01*
X60704819Y-50809523D02*
X60704819Y-50999999D01*
X60704819Y-50999999D02*
X60752438Y-51095237D01*
X60752438Y-51095237D02*
X60800057Y-51142856D01*
X60800057Y-51142856D02*
X60942914Y-51238094D01*
X60942914Y-51238094D02*
X61133390Y-51285713D01*
X61133390Y-51285713D02*
X61514342Y-51285713D01*
X61514342Y-51285713D02*
X61609580Y-51238094D01*
X61609580Y-51238094D02*
X61657200Y-51190475D01*
X61657200Y-51190475D02*
X61704819Y-51095237D01*
X61704819Y-51095237D02*
X61704819Y-50904761D01*
X61704819Y-50904761D02*
X61657200Y-50809523D01*
X61657200Y-50809523D02*
X61609580Y-50761904D01*
X61609580Y-50761904D02*
X61514342Y-50714285D01*
X61514342Y-50714285D02*
X61276247Y-50714285D01*
X61276247Y-50714285D02*
X61181009Y-50761904D01*
X61181009Y-50761904D02*
X61133390Y-50809523D01*
X61133390Y-50809523D02*
X61085771Y-50904761D01*
X61085771Y-50904761D02*
X61085771Y-51095237D01*
X61085771Y-51095237D02*
X61133390Y-51190475D01*
X61133390Y-51190475D02*
X61181009Y-51238094D01*
X61181009Y-51238094D02*
X61276247Y-51285713D01*
X88166667Y-7407200D02*
X88309524Y-7454819D01*
X88309524Y-7454819D02*
X88547619Y-7454819D01*
X88547619Y-7454819D02*
X88642857Y-7407200D01*
X88642857Y-7407200D02*
X88690476Y-7359580D01*
X88690476Y-7359580D02*
X88738095Y-7264342D01*
X88738095Y-7264342D02*
X88738095Y-7169104D01*
X88738095Y-7169104D02*
X88690476Y-7073866D01*
X88690476Y-7073866D02*
X88642857Y-7026247D01*
X88642857Y-7026247D02*
X88547619Y-6978628D01*
X88547619Y-6978628D02*
X88357143Y-6931009D01*
X88357143Y-6931009D02*
X88261905Y-6883390D01*
X88261905Y-6883390D02*
X88214286Y-6835771D01*
X88214286Y-6835771D02*
X88166667Y-6740533D01*
X88166667Y-6740533D02*
X88166667Y-6645295D01*
X88166667Y-6645295D02*
X88214286Y-6550057D01*
X88214286Y-6550057D02*
X88261905Y-6502438D01*
X88261905Y-6502438D02*
X88357143Y-6454819D01*
X88357143Y-6454819D02*
X88595238Y-6454819D01*
X88595238Y-6454819D02*
X88738095Y-6502438D01*
X89071429Y-6454819D02*
X89309524Y-7454819D01*
X89309524Y-7454819D02*
X89500000Y-6740533D01*
X89500000Y-6740533D02*
X89690476Y-7454819D01*
X89690476Y-7454819D02*
X89928572Y-6454819D01*
X90833333Y-7454819D02*
X90261905Y-7454819D01*
X90547619Y-7454819D02*
X90547619Y-6454819D01*
X90547619Y-6454819D02*
X90452381Y-6597676D01*
X90452381Y-6597676D02*
X90357143Y-6692914D01*
X90357143Y-6692914D02*
X90261905Y-6740533D01*
X54607142Y-49454819D02*
X54273809Y-48978628D01*
X54035714Y-49454819D02*
X54035714Y-48454819D01*
X54035714Y-48454819D02*
X54416666Y-48454819D01*
X54416666Y-48454819D02*
X54511904Y-48502438D01*
X54511904Y-48502438D02*
X54559523Y-48550057D01*
X54559523Y-48550057D02*
X54607142Y-48645295D01*
X54607142Y-48645295D02*
X54607142Y-48788152D01*
X54607142Y-48788152D02*
X54559523Y-48883390D01*
X54559523Y-48883390D02*
X54511904Y-48931009D01*
X54511904Y-48931009D02*
X54416666Y-48978628D01*
X54416666Y-48978628D02*
X54035714Y-48978628D01*
X55559523Y-49454819D02*
X54988095Y-49454819D01*
X55273809Y-49454819D02*
X55273809Y-48454819D01*
X55273809Y-48454819D02*
X55178571Y-48597676D01*
X55178571Y-48597676D02*
X55083333Y-48692914D01*
X55083333Y-48692914D02*
X54988095Y-48740533D01*
X56416666Y-48788152D02*
X56416666Y-49454819D01*
X56178571Y-48407200D02*
X55940476Y-49121485D01*
X55940476Y-49121485D02*
X56559523Y-49121485D01*
X8733333Y-45159580D02*
X8685714Y-45207200D01*
X8685714Y-45207200D02*
X8542857Y-45254819D01*
X8542857Y-45254819D02*
X8447619Y-45254819D01*
X8447619Y-45254819D02*
X8304762Y-45207200D01*
X8304762Y-45207200D02*
X8209524Y-45111961D01*
X8209524Y-45111961D02*
X8161905Y-45016723D01*
X8161905Y-45016723D02*
X8114286Y-44826247D01*
X8114286Y-44826247D02*
X8114286Y-44683390D01*
X8114286Y-44683390D02*
X8161905Y-44492914D01*
X8161905Y-44492914D02*
X8209524Y-44397676D01*
X8209524Y-44397676D02*
X8304762Y-44302438D01*
X8304762Y-44302438D02*
X8447619Y-44254819D01*
X8447619Y-44254819D02*
X8542857Y-44254819D01*
X8542857Y-44254819D02*
X8685714Y-44302438D01*
X8685714Y-44302438D02*
X8733333Y-44350057D01*
X9114286Y-44350057D02*
X9161905Y-44302438D01*
X9161905Y-44302438D02*
X9257143Y-44254819D01*
X9257143Y-44254819D02*
X9495238Y-44254819D01*
X9495238Y-44254819D02*
X9590476Y-44302438D01*
X9590476Y-44302438D02*
X9638095Y-44350057D01*
X9638095Y-44350057D02*
X9685714Y-44445295D01*
X9685714Y-44445295D02*
X9685714Y-44540533D01*
X9685714Y-44540533D02*
X9638095Y-44683390D01*
X9638095Y-44683390D02*
X9066667Y-45254819D01*
X9066667Y-45254819D02*
X9685714Y-45254819D01*
X54874642Y-58714819D02*
X54541309Y-58238628D01*
X54303214Y-58714819D02*
X54303214Y-57714819D01*
X54303214Y-57714819D02*
X54684166Y-57714819D01*
X54684166Y-57714819D02*
X54779404Y-57762438D01*
X54779404Y-57762438D02*
X54827023Y-57810057D01*
X54827023Y-57810057D02*
X54874642Y-57905295D01*
X54874642Y-57905295D02*
X54874642Y-58048152D01*
X54874642Y-58048152D02*
X54827023Y-58143390D01*
X54827023Y-58143390D02*
X54779404Y-58191009D01*
X54779404Y-58191009D02*
X54684166Y-58238628D01*
X54684166Y-58238628D02*
X54303214Y-58238628D01*
X55255595Y-57810057D02*
X55303214Y-57762438D01*
X55303214Y-57762438D02*
X55398452Y-57714819D01*
X55398452Y-57714819D02*
X55636547Y-57714819D01*
X55636547Y-57714819D02*
X55731785Y-57762438D01*
X55731785Y-57762438D02*
X55779404Y-57810057D01*
X55779404Y-57810057D02*
X55827023Y-57905295D01*
X55827023Y-57905295D02*
X55827023Y-58000533D01*
X55827023Y-58000533D02*
X55779404Y-58143390D01*
X55779404Y-58143390D02*
X55207976Y-58714819D01*
X55207976Y-58714819D02*
X55827023Y-58714819D01*
X56446071Y-57714819D02*
X56541309Y-57714819D01*
X56541309Y-57714819D02*
X56636547Y-57762438D01*
X56636547Y-57762438D02*
X56684166Y-57810057D01*
X56684166Y-57810057D02*
X56731785Y-57905295D01*
X56731785Y-57905295D02*
X56779404Y-58095771D01*
X56779404Y-58095771D02*
X56779404Y-58333866D01*
X56779404Y-58333866D02*
X56731785Y-58524342D01*
X56731785Y-58524342D02*
X56684166Y-58619580D01*
X56684166Y-58619580D02*
X56636547Y-58667200D01*
X56636547Y-58667200D02*
X56541309Y-58714819D01*
X56541309Y-58714819D02*
X56446071Y-58714819D01*
X56446071Y-58714819D02*
X56350833Y-58667200D01*
X56350833Y-58667200D02*
X56303214Y-58619580D01*
X56303214Y-58619580D02*
X56255595Y-58524342D01*
X56255595Y-58524342D02*
X56207976Y-58333866D01*
X56207976Y-58333866D02*
X56207976Y-58095771D01*
X56207976Y-58095771D02*
X56255595Y-57905295D01*
X56255595Y-57905295D02*
X56303214Y-57810057D01*
X56303214Y-57810057D02*
X56350833Y-57762438D01*
X56350833Y-57762438D02*
X56446071Y-57714819D01*
X89357142Y-57454819D02*
X89023809Y-56978628D01*
X88785714Y-57454819D02*
X88785714Y-56454819D01*
X88785714Y-56454819D02*
X89166666Y-56454819D01*
X89166666Y-56454819D02*
X89261904Y-56502438D01*
X89261904Y-56502438D02*
X89309523Y-56550057D01*
X89309523Y-56550057D02*
X89357142Y-56645295D01*
X89357142Y-56645295D02*
X89357142Y-56788152D01*
X89357142Y-56788152D02*
X89309523Y-56883390D01*
X89309523Y-56883390D02*
X89261904Y-56931009D01*
X89261904Y-56931009D02*
X89166666Y-56978628D01*
X89166666Y-56978628D02*
X88785714Y-56978628D01*
X90309523Y-57454819D02*
X89738095Y-57454819D01*
X90023809Y-57454819D02*
X90023809Y-56454819D01*
X90023809Y-56454819D02*
X89928571Y-56597676D01*
X89928571Y-56597676D02*
X89833333Y-56692914D01*
X89833333Y-56692914D02*
X89738095Y-56740533D01*
X90642857Y-56454819D02*
X91309523Y-56454819D01*
X91309523Y-56454819D02*
X90880952Y-57454819D01*
X79704819Y-3166666D02*
X79228628Y-3499999D01*
X79704819Y-3738094D02*
X78704819Y-3738094D01*
X78704819Y-3738094D02*
X78704819Y-3357142D01*
X78704819Y-3357142D02*
X78752438Y-3261904D01*
X78752438Y-3261904D02*
X78800057Y-3214285D01*
X78800057Y-3214285D02*
X78895295Y-3166666D01*
X78895295Y-3166666D02*
X79038152Y-3166666D01*
X79038152Y-3166666D02*
X79133390Y-3214285D01*
X79133390Y-3214285D02*
X79181009Y-3261904D01*
X79181009Y-3261904D02*
X79228628Y-3357142D01*
X79228628Y-3357142D02*
X79228628Y-3738094D01*
X78704819Y-2833332D02*
X78704819Y-2214285D01*
X78704819Y-2214285D02*
X79085771Y-2547618D01*
X79085771Y-2547618D02*
X79085771Y-2404761D01*
X79085771Y-2404761D02*
X79133390Y-2309523D01*
X79133390Y-2309523D02*
X79181009Y-2261904D01*
X79181009Y-2261904D02*
X79276247Y-2214285D01*
X79276247Y-2214285D02*
X79514342Y-2214285D01*
X79514342Y-2214285D02*
X79609580Y-2261904D01*
X79609580Y-2261904D02*
X79657200Y-2309523D01*
X79657200Y-2309523D02*
X79704819Y-2404761D01*
X79704819Y-2404761D02*
X79704819Y-2690475D01*
X79704819Y-2690475D02*
X79657200Y-2785713D01*
X79657200Y-2785713D02*
X79609580Y-2833332D01*
X62204819Y-47642857D02*
X61728628Y-47976190D01*
X62204819Y-48214285D02*
X61204819Y-48214285D01*
X61204819Y-48214285D02*
X61204819Y-47833333D01*
X61204819Y-47833333D02*
X61252438Y-47738095D01*
X61252438Y-47738095D02*
X61300057Y-47690476D01*
X61300057Y-47690476D02*
X61395295Y-47642857D01*
X61395295Y-47642857D02*
X61538152Y-47642857D01*
X61538152Y-47642857D02*
X61633390Y-47690476D01*
X61633390Y-47690476D02*
X61681009Y-47738095D01*
X61681009Y-47738095D02*
X61728628Y-47833333D01*
X61728628Y-47833333D02*
X61728628Y-48214285D01*
X62204819Y-46690476D02*
X62204819Y-47261904D01*
X62204819Y-46976190D02*
X61204819Y-46976190D01*
X61204819Y-46976190D02*
X61347676Y-47071428D01*
X61347676Y-47071428D02*
X61442914Y-47166666D01*
X61442914Y-47166666D02*
X61490533Y-47261904D01*
X61204819Y-46357142D02*
X61204819Y-45738095D01*
X61204819Y-45738095D02*
X61585771Y-46071428D01*
X61585771Y-46071428D02*
X61585771Y-45928571D01*
X61585771Y-45928571D02*
X61633390Y-45833333D01*
X61633390Y-45833333D02*
X61681009Y-45785714D01*
X61681009Y-45785714D02*
X61776247Y-45738095D01*
X61776247Y-45738095D02*
X62014342Y-45738095D01*
X62014342Y-45738095D02*
X62109580Y-45785714D01*
X62109580Y-45785714D02*
X62157200Y-45833333D01*
X62157200Y-45833333D02*
X62204819Y-45928571D01*
X62204819Y-45928571D02*
X62204819Y-46214285D01*
X62204819Y-46214285D02*
X62157200Y-46309523D01*
X62157200Y-46309523D02*
X62109580Y-46357142D01*
X96289642Y-55504819D02*
X95956309Y-55028628D01*
X95718214Y-55504819D02*
X95718214Y-54504819D01*
X95718214Y-54504819D02*
X96099166Y-54504819D01*
X96099166Y-54504819D02*
X96194404Y-54552438D01*
X96194404Y-54552438D02*
X96242023Y-54600057D01*
X96242023Y-54600057D02*
X96289642Y-54695295D01*
X96289642Y-54695295D02*
X96289642Y-54838152D01*
X96289642Y-54838152D02*
X96242023Y-54933390D01*
X96242023Y-54933390D02*
X96194404Y-54981009D01*
X96194404Y-54981009D02*
X96099166Y-55028628D01*
X96099166Y-55028628D02*
X95718214Y-55028628D01*
X97242023Y-55504819D02*
X96670595Y-55504819D01*
X96956309Y-55504819D02*
X96956309Y-54504819D01*
X96956309Y-54504819D02*
X96861071Y-54647676D01*
X96861071Y-54647676D02*
X96765833Y-54742914D01*
X96765833Y-54742914D02*
X96670595Y-54790533D01*
X97813452Y-54933390D02*
X97718214Y-54885771D01*
X97718214Y-54885771D02*
X97670595Y-54838152D01*
X97670595Y-54838152D02*
X97622976Y-54742914D01*
X97622976Y-54742914D02*
X97622976Y-54695295D01*
X97622976Y-54695295D02*
X97670595Y-54600057D01*
X97670595Y-54600057D02*
X97718214Y-54552438D01*
X97718214Y-54552438D02*
X97813452Y-54504819D01*
X97813452Y-54504819D02*
X98003928Y-54504819D01*
X98003928Y-54504819D02*
X98099166Y-54552438D01*
X98099166Y-54552438D02*
X98146785Y-54600057D01*
X98146785Y-54600057D02*
X98194404Y-54695295D01*
X98194404Y-54695295D02*
X98194404Y-54742914D01*
X98194404Y-54742914D02*
X98146785Y-54838152D01*
X98146785Y-54838152D02*
X98099166Y-54885771D01*
X98099166Y-54885771D02*
X98003928Y-54933390D01*
X98003928Y-54933390D02*
X97813452Y-54933390D01*
X97813452Y-54933390D02*
X97718214Y-54981009D01*
X97718214Y-54981009D02*
X97670595Y-55028628D01*
X97670595Y-55028628D02*
X97622976Y-55123866D01*
X97622976Y-55123866D02*
X97622976Y-55314342D01*
X97622976Y-55314342D02*
X97670595Y-55409580D01*
X97670595Y-55409580D02*
X97718214Y-55457200D01*
X97718214Y-55457200D02*
X97813452Y-55504819D01*
X97813452Y-55504819D02*
X98003928Y-55504819D01*
X98003928Y-55504819D02*
X98099166Y-55457200D01*
X98099166Y-55457200D02*
X98146785Y-55409580D01*
X98146785Y-55409580D02*
X98194404Y-55314342D01*
X98194404Y-55314342D02*
X98194404Y-55123866D01*
X98194404Y-55123866D02*
X98146785Y-55028628D01*
X98146785Y-55028628D02*
X98099166Y-54981009D01*
X98099166Y-54981009D02*
X98003928Y-54933390D01*
X86776666Y-52974819D02*
X86776666Y-53689104D01*
X86776666Y-53689104D02*
X86729047Y-53831961D01*
X86729047Y-53831961D02*
X86633809Y-53927200D01*
X86633809Y-53927200D02*
X86490952Y-53974819D01*
X86490952Y-53974819D02*
X86395714Y-53974819D01*
X87157619Y-52974819D02*
X87776666Y-52974819D01*
X87776666Y-52974819D02*
X87443333Y-53355771D01*
X87443333Y-53355771D02*
X87586190Y-53355771D01*
X87586190Y-53355771D02*
X87681428Y-53403390D01*
X87681428Y-53403390D02*
X87729047Y-53451009D01*
X87729047Y-53451009D02*
X87776666Y-53546247D01*
X87776666Y-53546247D02*
X87776666Y-53784342D01*
X87776666Y-53784342D02*
X87729047Y-53879580D01*
X87729047Y-53879580D02*
X87681428Y-53927200D01*
X87681428Y-53927200D02*
X87586190Y-53974819D01*
X87586190Y-53974819D02*
X87300476Y-53974819D01*
X87300476Y-53974819D02*
X87205238Y-53927200D01*
X87205238Y-53927200D02*
X87157619Y-53879580D01*
X14933333Y-34054819D02*
X14600000Y-33578628D01*
X14361905Y-34054819D02*
X14361905Y-33054819D01*
X14361905Y-33054819D02*
X14742857Y-33054819D01*
X14742857Y-33054819D02*
X14838095Y-33102438D01*
X14838095Y-33102438D02*
X14885714Y-33150057D01*
X14885714Y-33150057D02*
X14933333Y-33245295D01*
X14933333Y-33245295D02*
X14933333Y-33388152D01*
X14933333Y-33388152D02*
X14885714Y-33483390D01*
X14885714Y-33483390D02*
X14838095Y-33531009D01*
X14838095Y-33531009D02*
X14742857Y-33578628D01*
X14742857Y-33578628D02*
X14361905Y-33578628D01*
X15266667Y-33054819D02*
X15933333Y-33054819D01*
X15933333Y-33054819D02*
X15504762Y-34054819D01*
X98454819Y-47916666D02*
X97978628Y-48249999D01*
X98454819Y-48488094D02*
X97454819Y-48488094D01*
X97454819Y-48488094D02*
X97454819Y-48107142D01*
X97454819Y-48107142D02*
X97502438Y-48011904D01*
X97502438Y-48011904D02*
X97550057Y-47964285D01*
X97550057Y-47964285D02*
X97645295Y-47916666D01*
X97645295Y-47916666D02*
X97788152Y-47916666D01*
X97788152Y-47916666D02*
X97883390Y-47964285D01*
X97883390Y-47964285D02*
X97931009Y-48011904D01*
X97931009Y-48011904D02*
X97978628Y-48107142D01*
X97978628Y-48107142D02*
X97978628Y-48488094D01*
X98454819Y-46964285D02*
X98454819Y-47535713D01*
X98454819Y-47249999D02*
X97454819Y-47249999D01*
X97454819Y-47249999D02*
X97597676Y-47345237D01*
X97597676Y-47345237D02*
X97692914Y-47440475D01*
X97692914Y-47440475D02*
X97740533Y-47535713D01*
X53267142Y-34779819D02*
X52933809Y-34303628D01*
X52695714Y-34779819D02*
X52695714Y-33779819D01*
X52695714Y-33779819D02*
X53076666Y-33779819D01*
X53076666Y-33779819D02*
X53171904Y-33827438D01*
X53171904Y-33827438D02*
X53219523Y-33875057D01*
X53219523Y-33875057D02*
X53267142Y-33970295D01*
X53267142Y-33970295D02*
X53267142Y-34113152D01*
X53267142Y-34113152D02*
X53219523Y-34208390D01*
X53219523Y-34208390D02*
X53171904Y-34256009D01*
X53171904Y-34256009D02*
X53076666Y-34303628D01*
X53076666Y-34303628D02*
X52695714Y-34303628D01*
X54219523Y-34779819D02*
X53648095Y-34779819D01*
X53933809Y-34779819D02*
X53933809Y-33779819D01*
X53933809Y-33779819D02*
X53838571Y-33922676D01*
X53838571Y-33922676D02*
X53743333Y-34017914D01*
X53743333Y-34017914D02*
X53648095Y-34065533D01*
X54600476Y-33875057D02*
X54648095Y-33827438D01*
X54648095Y-33827438D02*
X54743333Y-33779819D01*
X54743333Y-33779819D02*
X54981428Y-33779819D01*
X54981428Y-33779819D02*
X55076666Y-33827438D01*
X55076666Y-33827438D02*
X55124285Y-33875057D01*
X55124285Y-33875057D02*
X55171904Y-33970295D01*
X55171904Y-33970295D02*
X55171904Y-34065533D01*
X55171904Y-34065533D02*
X55124285Y-34208390D01*
X55124285Y-34208390D02*
X54552857Y-34779819D01*
X54552857Y-34779819D02*
X55171904Y-34779819D01*
X46737142Y-45204819D02*
X46403809Y-44728628D01*
X46165714Y-45204819D02*
X46165714Y-44204819D01*
X46165714Y-44204819D02*
X46546666Y-44204819D01*
X46546666Y-44204819D02*
X46641904Y-44252438D01*
X46641904Y-44252438D02*
X46689523Y-44300057D01*
X46689523Y-44300057D02*
X46737142Y-44395295D01*
X46737142Y-44395295D02*
X46737142Y-44538152D01*
X46737142Y-44538152D02*
X46689523Y-44633390D01*
X46689523Y-44633390D02*
X46641904Y-44681009D01*
X46641904Y-44681009D02*
X46546666Y-44728628D01*
X46546666Y-44728628D02*
X46165714Y-44728628D01*
X47689523Y-45204819D02*
X47118095Y-45204819D01*
X47403809Y-45204819D02*
X47403809Y-44204819D01*
X47403809Y-44204819D02*
X47308571Y-44347676D01*
X47308571Y-44347676D02*
X47213333Y-44442914D01*
X47213333Y-44442914D02*
X47118095Y-44490533D01*
X48546666Y-44204819D02*
X48356190Y-44204819D01*
X48356190Y-44204819D02*
X48260952Y-44252438D01*
X48260952Y-44252438D02*
X48213333Y-44300057D01*
X48213333Y-44300057D02*
X48118095Y-44442914D01*
X48118095Y-44442914D02*
X48070476Y-44633390D01*
X48070476Y-44633390D02*
X48070476Y-45014342D01*
X48070476Y-45014342D02*
X48118095Y-45109580D01*
X48118095Y-45109580D02*
X48165714Y-45157200D01*
X48165714Y-45157200D02*
X48260952Y-45204819D01*
X48260952Y-45204819D02*
X48451428Y-45204819D01*
X48451428Y-45204819D02*
X48546666Y-45157200D01*
X48546666Y-45157200D02*
X48594285Y-45109580D01*
X48594285Y-45109580D02*
X48641904Y-45014342D01*
X48641904Y-45014342D02*
X48641904Y-44776247D01*
X48641904Y-44776247D02*
X48594285Y-44681009D01*
X48594285Y-44681009D02*
X48546666Y-44633390D01*
X48546666Y-44633390D02*
X48451428Y-44585771D01*
X48451428Y-44585771D02*
X48260952Y-44585771D01*
X48260952Y-44585771D02*
X48165714Y-44633390D01*
X48165714Y-44633390D02*
X48118095Y-44681009D01*
X48118095Y-44681009D02*
X48070476Y-44776247D01*
X4649819Y-56798220D02*
X5459342Y-56798220D01*
X5459342Y-56798220D02*
X5554580Y-56750601D01*
X5554580Y-56750601D02*
X5602200Y-56702982D01*
X5602200Y-56702982D02*
X5649819Y-56607744D01*
X5649819Y-56607744D02*
X5649819Y-56417268D01*
X5649819Y-56417268D02*
X5602200Y-56322030D01*
X5602200Y-56322030D02*
X5554580Y-56274411D01*
X5554580Y-56274411D02*
X5459342Y-56226792D01*
X5459342Y-56226792D02*
X4649819Y-56226792D01*
X5602200Y-55798220D02*
X5649819Y-55655363D01*
X5649819Y-55655363D02*
X5649819Y-55417268D01*
X5649819Y-55417268D02*
X5602200Y-55322030D01*
X5602200Y-55322030D02*
X5554580Y-55274411D01*
X5554580Y-55274411D02*
X5459342Y-55226792D01*
X5459342Y-55226792D02*
X5364104Y-55226792D01*
X5364104Y-55226792D02*
X5268866Y-55274411D01*
X5268866Y-55274411D02*
X5221247Y-55322030D01*
X5221247Y-55322030D02*
X5173628Y-55417268D01*
X5173628Y-55417268D02*
X5126009Y-55607744D01*
X5126009Y-55607744D02*
X5078390Y-55702982D01*
X5078390Y-55702982D02*
X5030771Y-55750601D01*
X5030771Y-55750601D02*
X4935533Y-55798220D01*
X4935533Y-55798220D02*
X4840295Y-55798220D01*
X4840295Y-55798220D02*
X4745057Y-55750601D01*
X4745057Y-55750601D02*
X4697438Y-55702982D01*
X4697438Y-55702982D02*
X4649819Y-55607744D01*
X4649819Y-55607744D02*
X4649819Y-55369649D01*
X4649819Y-55369649D02*
X4697438Y-55226792D01*
X5126009Y-54464887D02*
X5173628Y-54322030D01*
X5173628Y-54322030D02*
X5221247Y-54274411D01*
X5221247Y-54274411D02*
X5316485Y-54226792D01*
X5316485Y-54226792D02*
X5459342Y-54226792D01*
X5459342Y-54226792D02*
X5554580Y-54274411D01*
X5554580Y-54274411D02*
X5602200Y-54322030D01*
X5602200Y-54322030D02*
X5649819Y-54417268D01*
X5649819Y-54417268D02*
X5649819Y-54798220D01*
X5649819Y-54798220D02*
X4649819Y-54798220D01*
X4649819Y-54798220D02*
X4649819Y-54464887D01*
X4649819Y-54464887D02*
X4697438Y-54369649D01*
X4697438Y-54369649D02*
X4745057Y-54322030D01*
X4745057Y-54322030D02*
X4840295Y-54274411D01*
X4840295Y-54274411D02*
X4935533Y-54274411D01*
X4935533Y-54274411D02*
X5030771Y-54322030D01*
X5030771Y-54322030D02*
X5078390Y-54369649D01*
X5078390Y-54369649D02*
X5126009Y-54464887D01*
X5126009Y-54464887D02*
X5126009Y-54798220D01*
X96454819Y-41206666D02*
X95978628Y-41539999D01*
X96454819Y-41778094D02*
X95454819Y-41778094D01*
X95454819Y-41778094D02*
X95454819Y-41397142D01*
X95454819Y-41397142D02*
X95502438Y-41301904D01*
X95502438Y-41301904D02*
X95550057Y-41254285D01*
X95550057Y-41254285D02*
X95645295Y-41206666D01*
X95645295Y-41206666D02*
X95788152Y-41206666D01*
X95788152Y-41206666D02*
X95883390Y-41254285D01*
X95883390Y-41254285D02*
X95931009Y-41301904D01*
X95931009Y-41301904D02*
X95978628Y-41397142D01*
X95978628Y-41397142D02*
X95978628Y-41778094D01*
X95550057Y-40825713D02*
X95502438Y-40778094D01*
X95502438Y-40778094D02*
X95454819Y-40682856D01*
X95454819Y-40682856D02*
X95454819Y-40444761D01*
X95454819Y-40444761D02*
X95502438Y-40349523D01*
X95502438Y-40349523D02*
X95550057Y-40301904D01*
X95550057Y-40301904D02*
X95645295Y-40254285D01*
X95645295Y-40254285D02*
X95740533Y-40254285D01*
X95740533Y-40254285D02*
X95883390Y-40301904D01*
X95883390Y-40301904D02*
X96454819Y-40873332D01*
X96454819Y-40873332D02*
X96454819Y-40254285D01*
X55203333Y-54204819D02*
X54870000Y-53728628D01*
X54631905Y-54204819D02*
X54631905Y-53204819D01*
X54631905Y-53204819D02*
X55012857Y-53204819D01*
X55012857Y-53204819D02*
X55108095Y-53252438D01*
X55108095Y-53252438D02*
X55155714Y-53300057D01*
X55155714Y-53300057D02*
X55203333Y-53395295D01*
X55203333Y-53395295D02*
X55203333Y-53538152D01*
X55203333Y-53538152D02*
X55155714Y-53633390D01*
X55155714Y-53633390D02*
X55108095Y-53681009D01*
X55108095Y-53681009D02*
X55012857Y-53728628D01*
X55012857Y-53728628D02*
X54631905Y-53728628D01*
X56108095Y-53204819D02*
X55631905Y-53204819D01*
X55631905Y-53204819D02*
X55584286Y-53681009D01*
X55584286Y-53681009D02*
X55631905Y-53633390D01*
X55631905Y-53633390D02*
X55727143Y-53585771D01*
X55727143Y-53585771D02*
X55965238Y-53585771D01*
X55965238Y-53585771D02*
X56060476Y-53633390D01*
X56060476Y-53633390D02*
X56108095Y-53681009D01*
X56108095Y-53681009D02*
X56155714Y-53776247D01*
X56155714Y-53776247D02*
X56155714Y-54014342D01*
X56155714Y-54014342D02*
X56108095Y-54109580D01*
X56108095Y-54109580D02*
X56060476Y-54157200D01*
X56060476Y-54157200D02*
X55965238Y-54204819D01*
X55965238Y-54204819D02*
X55727143Y-54204819D01*
X55727143Y-54204819D02*
X55631905Y-54157200D01*
X55631905Y-54157200D02*
X55584286Y-54109580D01*
X53213333Y-38954819D02*
X52880000Y-38478628D01*
X52641905Y-38954819D02*
X52641905Y-37954819D01*
X52641905Y-37954819D02*
X53022857Y-37954819D01*
X53022857Y-37954819D02*
X53118095Y-38002438D01*
X53118095Y-38002438D02*
X53165714Y-38050057D01*
X53165714Y-38050057D02*
X53213333Y-38145295D01*
X53213333Y-38145295D02*
X53213333Y-38288152D01*
X53213333Y-38288152D02*
X53165714Y-38383390D01*
X53165714Y-38383390D02*
X53118095Y-38431009D01*
X53118095Y-38431009D02*
X53022857Y-38478628D01*
X53022857Y-38478628D02*
X52641905Y-38478628D01*
X53689524Y-38954819D02*
X53880000Y-38954819D01*
X53880000Y-38954819D02*
X53975238Y-38907200D01*
X53975238Y-38907200D02*
X54022857Y-38859580D01*
X54022857Y-38859580D02*
X54118095Y-38716723D01*
X54118095Y-38716723D02*
X54165714Y-38526247D01*
X54165714Y-38526247D02*
X54165714Y-38145295D01*
X54165714Y-38145295D02*
X54118095Y-38050057D01*
X54118095Y-38050057D02*
X54070476Y-38002438D01*
X54070476Y-38002438D02*
X53975238Y-37954819D01*
X53975238Y-37954819D02*
X53784762Y-37954819D01*
X53784762Y-37954819D02*
X53689524Y-38002438D01*
X53689524Y-38002438D02*
X53641905Y-38050057D01*
X53641905Y-38050057D02*
X53594286Y-38145295D01*
X53594286Y-38145295D02*
X53594286Y-38383390D01*
X53594286Y-38383390D02*
X53641905Y-38478628D01*
X53641905Y-38478628D02*
X53689524Y-38526247D01*
X53689524Y-38526247D02*
X53784762Y-38573866D01*
X53784762Y-38573866D02*
X53975238Y-38573866D01*
X53975238Y-38573866D02*
X54070476Y-38526247D01*
X54070476Y-38526247D02*
X54118095Y-38478628D01*
X54118095Y-38478628D02*
X54165714Y-38383390D01*
X46867142Y-40954819D02*
X46533809Y-40478628D01*
X46295714Y-40954819D02*
X46295714Y-39954819D01*
X46295714Y-39954819D02*
X46676666Y-39954819D01*
X46676666Y-39954819D02*
X46771904Y-40002438D01*
X46771904Y-40002438D02*
X46819523Y-40050057D01*
X46819523Y-40050057D02*
X46867142Y-40145295D01*
X46867142Y-40145295D02*
X46867142Y-40288152D01*
X46867142Y-40288152D02*
X46819523Y-40383390D01*
X46819523Y-40383390D02*
X46771904Y-40431009D01*
X46771904Y-40431009D02*
X46676666Y-40478628D01*
X46676666Y-40478628D02*
X46295714Y-40478628D01*
X47819523Y-40954819D02*
X47248095Y-40954819D01*
X47533809Y-40954819D02*
X47533809Y-39954819D01*
X47533809Y-39954819D02*
X47438571Y-40097676D01*
X47438571Y-40097676D02*
X47343333Y-40192914D01*
X47343333Y-40192914D02*
X47248095Y-40240533D01*
X48438571Y-39954819D02*
X48533809Y-39954819D01*
X48533809Y-39954819D02*
X48629047Y-40002438D01*
X48629047Y-40002438D02*
X48676666Y-40050057D01*
X48676666Y-40050057D02*
X48724285Y-40145295D01*
X48724285Y-40145295D02*
X48771904Y-40335771D01*
X48771904Y-40335771D02*
X48771904Y-40573866D01*
X48771904Y-40573866D02*
X48724285Y-40764342D01*
X48724285Y-40764342D02*
X48676666Y-40859580D01*
X48676666Y-40859580D02*
X48629047Y-40907200D01*
X48629047Y-40907200D02*
X48533809Y-40954819D01*
X48533809Y-40954819D02*
X48438571Y-40954819D01*
X48438571Y-40954819D02*
X48343333Y-40907200D01*
X48343333Y-40907200D02*
X48295714Y-40859580D01*
X48295714Y-40859580D02*
X48248095Y-40764342D01*
X48248095Y-40764342D02*
X48200476Y-40573866D01*
X48200476Y-40573866D02*
X48200476Y-40335771D01*
X48200476Y-40335771D02*
X48248095Y-40145295D01*
X48248095Y-40145295D02*
X48295714Y-40050057D01*
X48295714Y-40050057D02*
X48343333Y-40002438D01*
X48343333Y-40002438D02*
X48438571Y-39954819D01*
X17754819Y-39244166D02*
X17278628Y-39577499D01*
X17754819Y-39815594D02*
X16754819Y-39815594D01*
X16754819Y-39815594D02*
X16754819Y-39434642D01*
X16754819Y-39434642D02*
X16802438Y-39339404D01*
X16802438Y-39339404D02*
X16850057Y-39291785D01*
X16850057Y-39291785D02*
X16945295Y-39244166D01*
X16945295Y-39244166D02*
X17088152Y-39244166D01*
X17088152Y-39244166D02*
X17183390Y-39291785D01*
X17183390Y-39291785D02*
X17231009Y-39339404D01*
X17231009Y-39339404D02*
X17278628Y-39434642D01*
X17278628Y-39434642D02*
X17278628Y-39815594D01*
X17183390Y-38672737D02*
X17135771Y-38767975D01*
X17135771Y-38767975D02*
X17088152Y-38815594D01*
X17088152Y-38815594D02*
X16992914Y-38863213D01*
X16992914Y-38863213D02*
X16945295Y-38863213D01*
X16945295Y-38863213D02*
X16850057Y-38815594D01*
X16850057Y-38815594D02*
X16802438Y-38767975D01*
X16802438Y-38767975D02*
X16754819Y-38672737D01*
X16754819Y-38672737D02*
X16754819Y-38482261D01*
X16754819Y-38482261D02*
X16802438Y-38387023D01*
X16802438Y-38387023D02*
X16850057Y-38339404D01*
X16850057Y-38339404D02*
X16945295Y-38291785D01*
X16945295Y-38291785D02*
X16992914Y-38291785D01*
X16992914Y-38291785D02*
X17088152Y-38339404D01*
X17088152Y-38339404D02*
X17135771Y-38387023D01*
X17135771Y-38387023D02*
X17183390Y-38482261D01*
X17183390Y-38482261D02*
X17183390Y-38672737D01*
X17183390Y-38672737D02*
X17231009Y-38767975D01*
X17231009Y-38767975D02*
X17278628Y-38815594D01*
X17278628Y-38815594D02*
X17373866Y-38863213D01*
X17373866Y-38863213D02*
X17564342Y-38863213D01*
X17564342Y-38863213D02*
X17659580Y-38815594D01*
X17659580Y-38815594D02*
X17707200Y-38767975D01*
X17707200Y-38767975D02*
X17754819Y-38672737D01*
X17754819Y-38672737D02*
X17754819Y-38482261D01*
X17754819Y-38482261D02*
X17707200Y-38387023D01*
X17707200Y-38387023D02*
X17659580Y-38339404D01*
X17659580Y-38339404D02*
X17564342Y-38291785D01*
X17564342Y-38291785D02*
X17373866Y-38291785D01*
X17373866Y-38291785D02*
X17278628Y-38339404D01*
X17278628Y-38339404D02*
X17231009Y-38387023D01*
X17231009Y-38387023D02*
X17183390Y-38482261D01*
X47022142Y-36704819D02*
X46688809Y-36228628D01*
X46450714Y-36704819D02*
X46450714Y-35704819D01*
X46450714Y-35704819D02*
X46831666Y-35704819D01*
X46831666Y-35704819D02*
X46926904Y-35752438D01*
X46926904Y-35752438D02*
X46974523Y-35800057D01*
X46974523Y-35800057D02*
X47022142Y-35895295D01*
X47022142Y-35895295D02*
X47022142Y-36038152D01*
X47022142Y-36038152D02*
X46974523Y-36133390D01*
X46974523Y-36133390D02*
X46926904Y-36181009D01*
X46926904Y-36181009D02*
X46831666Y-36228628D01*
X46831666Y-36228628D02*
X46450714Y-36228628D01*
X47974523Y-36704819D02*
X47403095Y-36704819D01*
X47688809Y-36704819D02*
X47688809Y-35704819D01*
X47688809Y-35704819D02*
X47593571Y-35847676D01*
X47593571Y-35847676D02*
X47498333Y-35942914D01*
X47498333Y-35942914D02*
X47403095Y-35990533D01*
X48926904Y-36704819D02*
X48355476Y-36704819D01*
X48641190Y-36704819D02*
X48641190Y-35704819D01*
X48641190Y-35704819D02*
X48545952Y-35847676D01*
X48545952Y-35847676D02*
X48450714Y-35942914D01*
X48450714Y-35942914D02*
X48355476Y-35990533D01*
X83833333Y-7454819D02*
X83500000Y-6978628D01*
X83261905Y-7454819D02*
X83261905Y-6454819D01*
X83261905Y-6454819D02*
X83642857Y-6454819D01*
X83642857Y-6454819D02*
X83738095Y-6502438D01*
X83738095Y-6502438D02*
X83785714Y-6550057D01*
X83785714Y-6550057D02*
X83833333Y-6645295D01*
X83833333Y-6645295D02*
X83833333Y-6788152D01*
X83833333Y-6788152D02*
X83785714Y-6883390D01*
X83785714Y-6883390D02*
X83738095Y-6931009D01*
X83738095Y-6931009D02*
X83642857Y-6978628D01*
X83642857Y-6978628D02*
X83261905Y-6978628D01*
X84690476Y-6788152D02*
X84690476Y-7454819D01*
X84452381Y-6407200D02*
X84214286Y-7121485D01*
X84214286Y-7121485D02*
X84833333Y-7121485D01*
X13124819Y-67733333D02*
X13839104Y-67733333D01*
X13839104Y-67733333D02*
X13981961Y-67780952D01*
X13981961Y-67780952D02*
X14077200Y-67876190D01*
X14077200Y-67876190D02*
X14124819Y-68019047D01*
X14124819Y-68019047D02*
X14124819Y-68114285D01*
X13124819Y-66780952D02*
X13124819Y-67257142D01*
X13124819Y-67257142D02*
X13601009Y-67304761D01*
X13601009Y-67304761D02*
X13553390Y-67257142D01*
X13553390Y-67257142D02*
X13505771Y-67161904D01*
X13505771Y-67161904D02*
X13505771Y-66923809D01*
X13505771Y-66923809D02*
X13553390Y-66828571D01*
X13553390Y-66828571D02*
X13601009Y-66780952D01*
X13601009Y-66780952D02*
X13696247Y-66733333D01*
X13696247Y-66733333D02*
X13934342Y-66733333D01*
X13934342Y-66733333D02*
X14029580Y-66780952D01*
X14029580Y-66780952D02*
X14077200Y-66828571D01*
X14077200Y-66828571D02*
X14124819Y-66923809D01*
X14124819Y-66923809D02*
X14124819Y-67161904D01*
X14124819Y-67161904D02*
X14077200Y-67257142D01*
X14077200Y-67257142D02*
X14029580Y-67304761D01*
X53237142Y-43454819D02*
X52903809Y-42978628D01*
X52665714Y-43454819D02*
X52665714Y-42454819D01*
X52665714Y-42454819D02*
X53046666Y-42454819D01*
X53046666Y-42454819D02*
X53141904Y-42502438D01*
X53141904Y-42502438D02*
X53189523Y-42550057D01*
X53189523Y-42550057D02*
X53237142Y-42645295D01*
X53237142Y-42645295D02*
X53237142Y-42788152D01*
X53237142Y-42788152D02*
X53189523Y-42883390D01*
X53189523Y-42883390D02*
X53141904Y-42931009D01*
X53141904Y-42931009D02*
X53046666Y-42978628D01*
X53046666Y-42978628D02*
X52665714Y-42978628D01*
X54189523Y-43454819D02*
X53618095Y-43454819D01*
X53903809Y-43454819D02*
X53903809Y-42454819D01*
X53903809Y-42454819D02*
X53808571Y-42597676D01*
X53808571Y-42597676D02*
X53713333Y-42692914D01*
X53713333Y-42692914D02*
X53618095Y-42740533D01*
X55094285Y-42454819D02*
X54618095Y-42454819D01*
X54618095Y-42454819D02*
X54570476Y-42931009D01*
X54570476Y-42931009D02*
X54618095Y-42883390D01*
X54618095Y-42883390D02*
X54713333Y-42835771D01*
X54713333Y-42835771D02*
X54951428Y-42835771D01*
X54951428Y-42835771D02*
X55046666Y-42883390D01*
X55046666Y-42883390D02*
X55094285Y-42931009D01*
X55094285Y-42931009D02*
X55141904Y-43026247D01*
X55141904Y-43026247D02*
X55141904Y-43264342D01*
X55141904Y-43264342D02*
X55094285Y-43359580D01*
X55094285Y-43359580D02*
X55046666Y-43407200D01*
X55046666Y-43407200D02*
X54951428Y-43454819D01*
X54951428Y-43454819D02*
X54713333Y-43454819D01*
X54713333Y-43454819D02*
X54618095Y-43407200D01*
X54618095Y-43407200D02*
X54570476Y-43359580D01*
D13*
%TO.C,J2*%
X42800000Y-69560000D02*
X42800000Y-70300000D01*
X42800000Y-70300000D02*
X43300000Y-70300000D01*
X43040000Y-60139000D02*
X43040000Y-70060000D01*
X43040000Y-60139000D02*
X53160000Y-60139000D01*
X43040000Y-63099000D02*
X53160000Y-63099000D01*
X43040000Y-68000000D02*
X53160000Y-68000000D01*
X43040000Y-69500000D02*
X53160000Y-69500000D01*
X43040000Y-70060000D02*
X53160000Y-70060000D01*
X49373000Y-66423000D02*
X49326000Y-66469000D01*
X49566000Y-66639000D02*
X49531000Y-66674000D01*
X51670000Y-64125000D02*
X51635000Y-64161000D01*
X51875000Y-64331000D02*
X51828000Y-64377000D01*
X53160000Y-60139000D02*
X53160000Y-70060000D01*
X44064573Y-66083042D02*
G75*
G02*
X44065000Y-64716000I1535420J683041D01*
G01*
X44916958Y-63864573D02*
G75*
G02*
X46284000Y-63865000I683041J-1535420D01*
G01*
X45628805Y-67080253D02*
G75*
G02*
X44916000Y-66935000I-28806J1680254D01*
G01*
X46283318Y-66934756D02*
G75*
G02*
X45600000Y-67080000I-683318J1534756D01*
G01*
X47135427Y-64716958D02*
G75*
G02*
X47135000Y-66084000I-1535427J-683042D01*
G01*
X52280000Y-65400000D02*
G75*
G02*
X48920000Y-65400000I-1680000J0D01*
G01*
X48920000Y-65400000D02*
G75*
G02*
X52280000Y-65400000I1680000J0D01*
G01*
%TO.C,U2*%
X66440000Y-7180000D02*
X68030000Y-7180000D01*
X68030000Y-7180000D02*
X68030000Y-5700000D01*
X74850000Y-7180000D02*
X74850000Y-5700000D01*
X76440000Y-7180000D02*
X74850000Y-7180000D01*
X68030000Y-5700000D02*
X74850000Y-5700000D01*
X69500000Y-4060000D02*
X75560000Y-4060000D01*
X69500000Y-4060000D02*
X69500000Y-1940000D01*
X75560000Y-4060000D02*
X75560000Y-1940000D01*
X67440000Y-3000000D02*
X67440000Y-1940000D01*
X67440000Y-1940000D02*
X68500000Y-1940000D01*
X69500000Y-1940000D02*
X75560000Y-1940000D01*
X66440000Y-590000D02*
X66440000Y-7180000D01*
X66440000Y-590000D02*
X76440000Y-590000D01*
X76440000Y-590000D02*
X76440000Y-7180000D01*
%TO.C,J10*%
X71625000Y-8595000D02*
X71625000Y-37170000D01*
X71625000Y-37170000D02*
X99565000Y-37170000D01*
X81785000Y-8595000D02*
X71625000Y-8595000D01*
X81785000Y-8595000D02*
X99565000Y-8595000D01*
X82360000Y-9170000D02*
X82360000Y-11830000D01*
X90040000Y-9170000D02*
X82360000Y-9170000D01*
X90040000Y-9170000D02*
X90040000Y-11830000D01*
X90040000Y-11830000D02*
X82360000Y-11830000D01*
X92640000Y-10500000D02*
X92640000Y-11830000D01*
X92640000Y-11830000D02*
X91310000Y-11830000D01*
X93215000Y-8595000D02*
X103375000Y-8595000D01*
X103375000Y-8595000D02*
X103375000Y-37170000D01*
X103375000Y-37170000D02*
X99565000Y-37170000D01*
%TO.C,U1*%
X79720000Y-51530000D02*
X79720000Y-41310000D01*
X79720000Y-54130000D02*
X79720000Y-52800000D01*
X81050000Y-54130000D02*
X79720000Y-54130000D01*
X82380000Y-41310000D02*
X79720000Y-41310000D01*
X82380000Y-51530000D02*
X79720000Y-51530000D01*
X82380000Y-51530000D02*
X82380000Y-41310000D01*
X83650000Y-56800000D02*
X64350000Y-56800000D01*
X64350000Y-38800000D01*
X83650000Y-38800000D01*
X83650000Y-56800000D01*
%TO.C,R19*%
X52440000Y-56250000D02*
X53390000Y-56250000D01*
X53390000Y-55330000D02*
X53390000Y-57170000D01*
X53390000Y-57170000D02*
X57230000Y-57170000D01*
X57230000Y-55330000D02*
X53390000Y-55330000D01*
X57230000Y-57170000D02*
X57230000Y-55330000D01*
X58180000Y-56250000D02*
X57230000Y-56250000D01*
%TO.C,D1*%
X4210000Y-33455000D02*
X4210000Y-36545000D01*
X4210000Y-33455170D02*
G75*
G02*
X9760000Y-35000462I2560000J-1544830D01*
G01*
X9760000Y-34999538D02*
G75*
G02*
X4210000Y-36544830I-2990000J-462D01*
G01*
X9270000Y-35000000D02*
G75*
G02*
X4270000Y-35000000I-2500000J0D01*
G01*
X4270000Y-35000000D02*
G75*
G02*
X9270000Y-35000000I2500000J0D01*
G01*
%TO.C,R6*%
X52440000Y-51500000D02*
X53390000Y-51500000D01*
X53390000Y-50580000D02*
X53390000Y-52420000D01*
X53390000Y-52420000D02*
X57230000Y-52420000D01*
X57230000Y-50580000D02*
X53390000Y-50580000D01*
X57230000Y-52420000D02*
X57230000Y-50580000D01*
X58180000Y-51500000D02*
X57230000Y-51500000D01*
%TO.C,SW1*%
X86500000Y-1250000D02*
X86500000Y-2750000D01*
X87750000Y-5250000D02*
X92250000Y-5250000D01*
X92250000Y1250000D02*
X87750000Y1250000D01*
X93500000Y-2750000D02*
X93500000Y-1250000D01*
%TO.C,R14*%
X55564724Y-46527500D02*
X55055276Y-46527500D01*
X55564724Y-47572500D02*
X55055276Y-47572500D01*
%TO.C,J1*%
X56200000Y-69410000D02*
X56200000Y-70150000D01*
X56200000Y-70150000D02*
X56700000Y-70150000D01*
X56440000Y-59989000D02*
X56440000Y-69910000D01*
X56440000Y-59989000D02*
X71560000Y-59989000D01*
X56440000Y-62949000D02*
X71560000Y-62949000D01*
X56440000Y-67850000D02*
X71560000Y-67850000D01*
X56440000Y-69350000D02*
X71560000Y-69350000D01*
X56440000Y-69910000D02*
X71560000Y-69910000D01*
X62773000Y-66273000D02*
X62726000Y-66319000D01*
X62966000Y-66489000D02*
X62931000Y-66524000D01*
X65070000Y-63975000D02*
X65035000Y-64011000D01*
X65275000Y-64181000D02*
X65228000Y-64227000D01*
X67773000Y-66273000D02*
X67726000Y-66319000D01*
X67966000Y-66489000D02*
X67931000Y-66524000D01*
X70070000Y-63975000D02*
X70035000Y-64011000D01*
X70275000Y-64181000D02*
X70228000Y-64227000D01*
X71560000Y-59989000D02*
X71560000Y-69910000D01*
X57464573Y-65933042D02*
G75*
G02*
X57465000Y-64566000I1535420J683041D01*
G01*
X58316958Y-63714573D02*
G75*
G02*
X59684000Y-63715000I683041J-1535420D01*
G01*
X59028805Y-66930253D02*
G75*
G02*
X58316000Y-66785000I-28806J1680254D01*
G01*
X59683318Y-66784756D02*
G75*
G02*
X59000000Y-66930000I-683318J1534756D01*
G01*
X60535427Y-64566958D02*
G75*
G02*
X60535000Y-65934000I-1535427J-683042D01*
G01*
X65680000Y-65250000D02*
G75*
G02*
X62320000Y-65250000I-1680000J0D01*
G01*
X62320000Y-65250000D02*
G75*
G02*
X65680000Y-65250000I1680000J0D01*
G01*
X70680000Y-65250000D02*
G75*
G02*
X67320000Y-65250000I-1680000J0D01*
G01*
X67320000Y-65250000D02*
G75*
G02*
X70680000Y-65250000I1680000J0D01*
G01*
%TO.C,C2*%
X5425000Y-44604775D02*
X5425000Y-44104775D01*
X5175000Y-44354775D02*
X5675000Y-44354775D01*
X4320000Y-41800000D02*
X5860000Y-41800000D01*
X7940000Y-41800000D02*
X9480000Y-41800000D01*
X4320000Y-41760000D02*
X5860000Y-41760000D01*
X7940000Y-41760000D02*
X9480000Y-41760000D01*
X4321000Y-41720000D02*
X5860000Y-41720000D01*
X7940000Y-41720000D02*
X9479000Y-41720000D01*
X4322000Y-41680000D02*
X5860000Y-41680000D01*
X7940000Y-41680000D02*
X9478000Y-41680000D01*
X4324000Y-41640000D02*
X5860000Y-41640000D01*
X7940000Y-41640000D02*
X9476000Y-41640000D01*
X4327000Y-41600000D02*
X5860000Y-41600000D01*
X7940000Y-41600000D02*
X9473000Y-41600000D01*
X4331000Y-41560000D02*
X5860000Y-41560000D01*
X7940000Y-41560000D02*
X9469000Y-41560000D01*
X4335000Y-41520000D02*
X5860000Y-41520000D01*
X7940000Y-41520000D02*
X9465000Y-41520000D01*
X4339000Y-41480000D02*
X5860000Y-41480000D01*
X7940000Y-41480000D02*
X9461000Y-41480000D01*
X4344000Y-41440000D02*
X5860000Y-41440000D01*
X7940000Y-41440000D02*
X9456000Y-41440000D01*
X4350000Y-41400000D02*
X5860000Y-41400000D01*
X7940000Y-41400000D02*
X9450000Y-41400000D01*
X4357000Y-41360000D02*
X5860000Y-41360000D01*
X7940000Y-41360000D02*
X9443000Y-41360000D01*
X4364000Y-41320000D02*
X5860000Y-41320000D01*
X7940000Y-41320000D02*
X9436000Y-41320000D01*
X4372000Y-41280000D02*
X5860000Y-41280000D01*
X7940000Y-41280000D02*
X9428000Y-41280000D01*
X4380000Y-41240000D02*
X5860000Y-41240000D01*
X7940000Y-41240000D02*
X9420000Y-41240000D01*
X4389000Y-41200000D02*
X5860000Y-41200000D01*
X7940000Y-41200000D02*
X9411000Y-41200000D01*
X4399000Y-41160000D02*
X5860000Y-41160000D01*
X7940000Y-41160000D02*
X9401000Y-41160000D01*
X4409000Y-41120000D02*
X5860000Y-41120000D01*
X7940000Y-41120000D02*
X9391000Y-41120000D01*
X4420000Y-41079000D02*
X5860000Y-41079000D01*
X7940000Y-41079000D02*
X9380000Y-41079000D01*
X4432000Y-41039000D02*
X5860000Y-41039000D01*
X7940000Y-41039000D02*
X9368000Y-41039000D01*
X4445000Y-40999000D02*
X5860000Y-40999000D01*
X7940000Y-40999000D02*
X9355000Y-40999000D01*
X4458000Y-40959000D02*
X5860000Y-40959000D01*
X7940000Y-40959000D02*
X9342000Y-40959000D01*
X4472000Y-40919000D02*
X5860000Y-40919000D01*
X7940000Y-40919000D02*
X9328000Y-40919000D01*
X4486000Y-40879000D02*
X5860000Y-40879000D01*
X7940000Y-40879000D02*
X9314000Y-40879000D01*
X4502000Y-40839000D02*
X5860000Y-40839000D01*
X7940000Y-40839000D02*
X9298000Y-40839000D01*
X4518000Y-40799000D02*
X5860000Y-40799000D01*
X7940000Y-40799000D02*
X9282000Y-40799000D01*
X4535000Y-40759000D02*
X5860000Y-40759000D01*
X7940000Y-40759000D02*
X9265000Y-40759000D01*
X4552000Y-40719000D02*
X5860000Y-40719000D01*
X7940000Y-40719000D02*
X9248000Y-40719000D01*
X4571000Y-40679000D02*
X5860000Y-40679000D01*
X7940000Y-40679000D02*
X9229000Y-40679000D01*
X4590000Y-40639000D02*
X5860000Y-40639000D01*
X7940000Y-40639000D02*
X9210000Y-40639000D01*
X4610000Y-40599000D02*
X5860000Y-40599000D01*
X7940000Y-40599000D02*
X9190000Y-40599000D01*
X4632000Y-40559000D02*
X5860000Y-40559000D01*
X7940000Y-40559000D02*
X9168000Y-40559000D01*
X4653000Y-40519000D02*
X5860000Y-40519000D01*
X7940000Y-40519000D02*
X9147000Y-40519000D01*
X4676000Y-40479000D02*
X5860000Y-40479000D01*
X7940000Y-40479000D02*
X9124000Y-40479000D01*
X4700000Y-40439000D02*
X5860000Y-40439000D01*
X7940000Y-40439000D02*
X9100000Y-40439000D01*
X4725000Y-40399000D02*
X5860000Y-40399000D01*
X7940000Y-40399000D02*
X9075000Y-40399000D01*
X4751000Y-40359000D02*
X5860000Y-40359000D01*
X7940000Y-40359000D02*
X9049000Y-40359000D01*
X4778000Y-40319000D02*
X5860000Y-40319000D01*
X7940000Y-40319000D02*
X9022000Y-40319000D01*
X4805000Y-40279000D02*
X5860000Y-40279000D01*
X7940000Y-40279000D02*
X8995000Y-40279000D01*
X4835000Y-40239000D02*
X5860000Y-40239000D01*
X7940000Y-40239000D02*
X8965000Y-40239000D01*
X4865000Y-40199000D02*
X5860000Y-40199000D01*
X7940000Y-40199000D02*
X8935000Y-40199000D01*
X4896000Y-40159000D02*
X5860000Y-40159000D01*
X7940000Y-40159000D02*
X8904000Y-40159000D01*
X4929000Y-40119000D02*
X5860000Y-40119000D01*
X7940000Y-40119000D02*
X8871000Y-40119000D01*
X4963000Y-40079000D02*
X5860000Y-40079000D01*
X7940000Y-40079000D02*
X8837000Y-40079000D01*
X4999000Y-40039000D02*
X5860000Y-40039000D01*
X7940000Y-40039000D02*
X8801000Y-40039000D01*
X5036000Y-39999000D02*
X5860000Y-39999000D01*
X7940000Y-39999000D02*
X8764000Y-39999000D01*
X5074000Y-39959000D02*
X5860000Y-39959000D01*
X7940000Y-39959000D02*
X8726000Y-39959000D01*
X5115000Y-39919000D02*
X5860000Y-39919000D01*
X7940000Y-39919000D02*
X8685000Y-39919000D01*
X5157000Y-39879000D02*
X5860000Y-39879000D01*
X7940000Y-39879000D02*
X8643000Y-39879000D01*
X5201000Y-39839000D02*
X5860000Y-39839000D01*
X7940000Y-39839000D02*
X8599000Y-39839000D01*
X5247000Y-39799000D02*
X5860000Y-39799000D01*
X7940000Y-39799000D02*
X8553000Y-39799000D01*
X5295000Y-39759000D02*
X8505000Y-39759000D01*
X5346000Y-39719000D02*
X8454000Y-39719000D01*
X5400000Y-39679000D02*
X8400000Y-39679000D01*
X5457000Y-39639000D02*
X8343000Y-39639000D01*
X5517000Y-39599000D02*
X8283000Y-39599000D01*
X5581000Y-39559000D02*
X8219000Y-39559000D01*
X5649000Y-39519000D02*
X8151000Y-39519000D01*
X5722000Y-39479000D02*
X8078000Y-39479000D01*
X5802000Y-39439000D02*
X7998000Y-39439000D01*
X5889000Y-39399000D02*
X7911000Y-39399000D01*
X5985000Y-39359000D02*
X7815000Y-39359000D01*
X6095000Y-39319000D02*
X7705000Y-39319000D01*
X6223000Y-39279000D02*
X7577000Y-39279000D01*
X6382000Y-39239000D02*
X7418000Y-39239000D01*
X6616000Y-39199000D02*
X7184000Y-39199000D01*
X9520000Y-41800000D02*
G75*
G02*
X4280000Y-41800000I-2620000J0D01*
G01*
X4280000Y-41800000D02*
G75*
G02*
X9520000Y-41800000I2620000J0D01*
G01*
%TO.C,R20*%
X55524724Y-55727500D02*
X55015276Y-55727500D01*
X55524724Y-56772500D02*
X55015276Y-56772500D01*
%TO.C,R17*%
X99680000Y-57000000D02*
X98730000Y-57000000D01*
X98730000Y-57920000D02*
X98730000Y-56080000D01*
X98730000Y-56080000D02*
X94890000Y-56080000D01*
X94890000Y-57920000D02*
X98730000Y-57920000D01*
X94890000Y-56080000D02*
X94890000Y-57920000D01*
X93940000Y-57000000D02*
X94890000Y-57000000D01*
%TO.C,R3*%
X80977500Y-3254724D02*
X80977500Y-2745276D01*
X82022500Y-3254724D02*
X82022500Y-2745276D01*
%TO.C,R13*%
X52440000Y-47000000D02*
X53390000Y-47000000D01*
X53390000Y-46080000D02*
X53390000Y-47920000D01*
X53390000Y-47920000D02*
X57230000Y-47920000D01*
X57230000Y-46080000D02*
X53390000Y-46080000D01*
X57230000Y-47920000D02*
X57230000Y-46080000D01*
X58180000Y-47000000D02*
X57230000Y-47000000D01*
%TO.C,R18*%
X96407776Y-57522500D02*
X96917224Y-57522500D01*
X96407776Y-56477500D02*
X96917224Y-56477500D01*
%TO.C,J6*%
X100420000Y-47230000D02*
X100420000Y-49830000D01*
X100420000Y-47230000D02*
X103080000Y-47230000D01*
X100420000Y-49830000D02*
X103080000Y-49830000D01*
X101750000Y-44630000D02*
X103080000Y-44630000D01*
X103080000Y-44630000D02*
X103080000Y-45960000D01*
X103080000Y-47230000D02*
X103080000Y-49830000D01*
%TO.C,J3*%
X88440000Y-49480000D02*
X88440000Y-41800000D01*
X88440000Y-49480000D02*
X85780000Y-49480000D01*
X88440000Y-41800000D02*
X85780000Y-41800000D01*
X87110000Y-52080000D02*
X85780000Y-52080000D01*
X85780000Y-52080000D02*
X85780000Y-50750000D01*
X85780000Y-49480000D02*
X85780000Y-41800000D01*
%TO.C,J8*%
X42170000Y-46800000D02*
X43500000Y-46800000D01*
X42170000Y-48130000D02*
X42170000Y-46800000D01*
X42170000Y-49400000D02*
X42170000Y-57080000D01*
X42170000Y-49400000D02*
X44830000Y-49400000D01*
X42170000Y-57080000D02*
X44830000Y-57080000D01*
X44830000Y-49400000D02*
X44830000Y-57080000D01*
%TO.C,R7*%
X16220000Y-41310000D02*
X16220000Y-37470000D01*
X16220000Y-37470000D02*
X14380000Y-37470000D01*
X15300000Y-42260000D02*
X15300000Y-41310000D01*
X15300000Y-36520000D02*
X15300000Y-37470000D01*
X14380000Y-41310000D02*
X16220000Y-41310000D01*
X14380000Y-37470000D02*
X14380000Y-41310000D01*
%TO.C,R1*%
X95227500Y-47305276D02*
X95227500Y-47814724D01*
X96272500Y-47305276D02*
X96272500Y-47814724D01*
%TO.C,R12*%
X44605000Y-34250000D02*
X45555000Y-34250000D01*
X45555000Y-33330000D02*
X45555000Y-35170000D01*
X45555000Y-35170000D02*
X49395000Y-35170000D01*
X49395000Y-33330000D02*
X45555000Y-33330000D01*
X49395000Y-35170000D02*
X49395000Y-33330000D01*
X50345000Y-34250000D02*
X49395000Y-34250000D01*
%TO.C,R16*%
X47075276Y-42277500D02*
X47584724Y-42277500D01*
X47075276Y-43322500D02*
X47584724Y-43322500D01*
%TO.C,A2*%
X4150000Y-61705000D02*
X5480000Y-61705000D01*
X4150000Y-63035000D02*
X4150000Y-61705000D01*
X4180000Y-46670000D02*
X5510000Y-46670000D01*
X4180000Y-48000000D02*
X4180000Y-46670000D01*
X6750000Y-61705000D02*
X39830000Y-61705000D01*
X6750000Y-64365000D02*
X6750000Y-61705000D01*
X6750000Y-64365000D02*
X39830000Y-64365000D01*
X6780000Y-46670000D02*
X39860000Y-46670000D01*
X6780000Y-49330000D02*
X6780000Y-46670000D01*
X6780000Y-49330000D02*
X39860000Y-49330000D01*
X39830000Y-64365000D02*
X39830000Y-61705000D01*
X39860000Y-49330000D02*
X39860000Y-46670000D01*
X3570000Y-64935000D02*
X40370000Y-64935000D01*
X40370000Y-46185000D01*
X3570000Y-46185000D01*
X3570000Y-64935000D01*
X4080000Y-58335000D02*
X6380000Y-58335000D01*
X6380000Y-52935000D01*
X4080000Y-52935000D01*
X4080000Y-58335000D01*
%TO.C,R2*%
X94830000Y-45640000D02*
X94830000Y-49480000D01*
X94830000Y-49480000D02*
X96670000Y-49480000D01*
X95750000Y-44690000D02*
X95750000Y-45640000D01*
X95750000Y-50430000D02*
X95750000Y-49480000D01*
X96670000Y-45640000D02*
X94830000Y-45640000D01*
X96670000Y-49480000D02*
X96670000Y-45640000D01*
%TO.C,R5*%
X55055276Y-50977500D02*
X55564724Y-50977500D01*
X55055276Y-52022500D02*
X55564724Y-52022500D01*
%TO.C,J7*%
X73950000Y-69410000D02*
X73950000Y-70150000D01*
X73950000Y-70150000D02*
X74450000Y-70150000D01*
X74190000Y-59989000D02*
X74190000Y-69910000D01*
X74190000Y-59989000D02*
X94311000Y-59989000D01*
X74190000Y-62949000D02*
X94311000Y-62949000D01*
X74190000Y-67850000D02*
X94311000Y-67850000D01*
X74190000Y-69350000D02*
X94311000Y-69350000D01*
X74190000Y-69910000D02*
X94311000Y-69910000D01*
X80523000Y-66273000D02*
X80476000Y-66319000D01*
X80716000Y-66489000D02*
X80681000Y-66524000D01*
X82820000Y-63975000D02*
X82785000Y-64011000D01*
X83025000Y-64181000D02*
X82978000Y-64227000D01*
X85523000Y-66273000D02*
X85476000Y-66319000D01*
X85716000Y-66489000D02*
X85681000Y-66524000D01*
X87820000Y-63975000D02*
X87785000Y-64011000D01*
X88025000Y-64181000D02*
X87978000Y-64227000D01*
X90523000Y-66273000D02*
X90476000Y-66319000D01*
X90716000Y-66489000D02*
X90681000Y-66524000D01*
X92820000Y-63975000D02*
X92785000Y-64011000D01*
X93025000Y-64181000D02*
X92978000Y-64227000D01*
X94311000Y-59989000D02*
X94311000Y-69910000D01*
X75214573Y-65933042D02*
G75*
G02*
X75215000Y-64566000I1535420J683041D01*
G01*
X76066958Y-63714573D02*
G75*
G02*
X77434000Y-63715000I683041J-1535420D01*
G01*
X76778805Y-66930253D02*
G75*
G02*
X76066000Y-66785000I-28806J1680254D01*
G01*
X77433318Y-66784756D02*
G75*
G02*
X76750000Y-66930000I-683318J1534756D01*
G01*
X78285427Y-64566958D02*
G75*
G02*
X78285000Y-65934000I-1535427J-683042D01*
G01*
X83430000Y-65250000D02*
G75*
G02*
X80070000Y-65250000I-1680000J0D01*
G01*
X80070000Y-65250000D02*
G75*
G02*
X83430000Y-65250000I1680000J0D01*
G01*
X88430000Y-65250000D02*
G75*
G02*
X85070000Y-65250000I-1680000J0D01*
G01*
X85070000Y-65250000D02*
G75*
G02*
X88430000Y-65250000I1680000J0D01*
G01*
X93430000Y-65250000D02*
G75*
G02*
X90070000Y-65250000I-1680000J0D01*
G01*
X90070000Y-65250000D02*
G75*
G02*
X93430000Y-65250000I1680000J0D01*
G01*
%TO.C,R9*%
X44580000Y-38500000D02*
X45530000Y-38500000D01*
X45530000Y-37580000D02*
X45530000Y-39420000D01*
X45530000Y-39420000D02*
X49370000Y-39420000D01*
X49370000Y-37580000D02*
X45530000Y-37580000D01*
X49370000Y-39420000D02*
X49370000Y-37580000D01*
X50320000Y-38500000D02*
X49370000Y-38500000D01*
%TO.C,R10*%
X47195276Y-37977500D02*
X47704724Y-37977500D01*
X47195276Y-39022500D02*
X47704724Y-39022500D01*
D14*
%TO.C,U3*%
X3000000Y-1250000D02*
X3000000Y-5250000D01*
X3000000Y-1250000D02*
X3000000Y-31250000D01*
X3000000Y-31250000D02*
X3000000Y-27250000D01*
D13*
X37890000Y-1220000D02*
X37890000Y-3880000D01*
X55730000Y-1220000D02*
X37890000Y-1220000D01*
X55730000Y-1220000D02*
X55730000Y-3880000D01*
X55730000Y-3880000D02*
X37890000Y-3880000D01*
D14*
X58300000Y-1250000D02*
X63000000Y-1250000D01*
D13*
X58330000Y-2550000D02*
X58330000Y-3880000D01*
X58330000Y-3880000D02*
X57000000Y-3880000D01*
D14*
X63000000Y-1250000D02*
X3000000Y-1250000D01*
X63000000Y-1250000D02*
X63000000Y-31250000D01*
X63000000Y-31250000D02*
X3000000Y-31250000D01*
X63000000Y-31250000D02*
X63000000Y-27250000D01*
D13*
%TO.C,J4*%
X64670000Y-15670000D02*
X66000000Y-15670000D01*
X64670000Y-17000000D02*
X64670000Y-15670000D01*
X64670000Y-18270000D02*
X64670000Y-25950000D01*
X64670000Y-18270000D02*
X67330000Y-18270000D01*
X64670000Y-25950000D02*
X67330000Y-25950000D01*
X67330000Y-18270000D02*
X67330000Y-25950000D01*
%TO.C,R8*%
X15822500Y-39542224D02*
X15822500Y-39032776D01*
X14777500Y-39542224D02*
X14777500Y-39032776D01*
%TO.C,R11*%
X47255276Y-33727500D02*
X47764724Y-33727500D01*
X47255276Y-34772500D02*
X47764724Y-34772500D01*
%TO.C,R4*%
X81500000Y-5870000D02*
X81500000Y-4920000D01*
X80580000Y-4920000D02*
X82420000Y-4920000D01*
X82420000Y-4920000D02*
X82420000Y-1080000D01*
X80580000Y-1080000D02*
X80580000Y-4920000D01*
X82420000Y-1080000D02*
X80580000Y-1080000D01*
X81500000Y-130000D02*
X81500000Y-1080000D01*
%TO.C,J5*%
X14670000Y-68730000D02*
X14670000Y-67400000D01*
X16000000Y-68730000D02*
X14670000Y-68730000D01*
X17270000Y-66070000D02*
X30030000Y-66070000D01*
X17270000Y-68730000D02*
X17270000Y-66070000D01*
X17270000Y-68730000D02*
X30030000Y-68730000D01*
X30030000Y-68730000D02*
X30030000Y-66070000D01*
%TO.C,J9*%
X19640000Y-44795000D02*
X19640000Y-43465000D01*
X20970000Y-44795000D02*
X19640000Y-44795000D01*
X22240000Y-42135000D02*
X40080000Y-42135000D01*
X22240000Y-44795000D02*
X22240000Y-42135000D01*
X22240000Y-44795000D02*
X40080000Y-44795000D01*
X40080000Y-44795000D02*
X40080000Y-42135000D01*
%TO.C,R15*%
X44570000Y-42750000D02*
X45520000Y-42750000D01*
X45520000Y-41830000D02*
X45520000Y-43670000D01*
X45520000Y-43670000D02*
X49360000Y-43670000D01*
X49360000Y-41830000D02*
X45520000Y-41830000D01*
X49360000Y-43670000D02*
X49360000Y-41830000D01*
X50310000Y-42750000D02*
X49360000Y-42750000D01*
%TD*%
M02*
