%TF.GenerationSoftware,KiCad,Pcbnew,8.0.6-8.0.6-0~ubuntu24.04.1*%
%TF.CreationDate,2025-03-25T09:16:12-04:00*%
%TF.ProjectId,mesh-depth,6d657368-2d64-4657-9074-682e6b696361,rev?*%
%TF.SameCoordinates,Original*%
%TF.FileFunction,Copper,L2,Bot*%
%TF.FilePolarity,Positive*%
%FSLAX46Y46*%
G04 Gerber Fmt 4.6, Leading zero omitted, Abs format (unit mm)*
G04 Created by KiCad (PCBNEW 8.0.6-8.0.6-0~ubuntu24.04.1) date 2025-03-25 09:16:12*
%MOMM*%
%LPD*%
G01*
G04 APERTURE LIST*
%TA.AperFunction,ComponentPad*%
%ADD10R,2.600000X2.600000*%
%TD*%
%TA.AperFunction,ComponentPad*%
%ADD11C,2.600000*%
%TD*%
%TA.AperFunction,ComponentPad*%
%ADD12O,1.350000X1.350000*%
%TD*%
%TA.AperFunction,ComponentPad*%
%ADD13R,1.350000X1.350000*%
%TD*%
%TA.AperFunction,ComponentPad*%
%ADD14O,1.700000X1.700000*%
%TD*%
%TA.AperFunction,ComponentPad*%
%ADD15R,1.700000X1.700000*%
%TD*%
%TA.AperFunction,ComponentPad*%
%ADD16C,1.400000*%
%TD*%
%TA.AperFunction,ComponentPad*%
%ADD17O,1.400000X1.400000*%
%TD*%
%TA.AperFunction,ComponentPad*%
%ADD18R,1.800000X1.800000*%
%TD*%
%TA.AperFunction,ComponentPad*%
%ADD19C,1.800000*%
%TD*%
%TA.AperFunction,ComponentPad*%
%ADD20C,2.000000*%
%TD*%
%TA.AperFunction,ComponentPad*%
%ADD21R,1.600000X1.600000*%
%TD*%
%TA.AperFunction,ComponentPad*%
%ADD22C,1.600000*%
%TD*%
%TA.AperFunction,ComponentPad*%
%ADD23C,5.000000*%
%TD*%
%TA.AperFunction,SMDPad,CuDef*%
%ADD24R,1.500000X1.000000*%
%TD*%
%TA.AperFunction,ViaPad*%
%ADD25C,0.800000*%
%TD*%
%TA.AperFunction,Conductor*%
%ADD26C,0.400000*%
%TD*%
%TA.AperFunction,Conductor*%
%ADD27C,0.700000*%
%TD*%
G04 APERTURE END LIST*
D10*
%TO.P,J2,1,Pin_1*%
%TO.N,MESH_BAT*%
X45600000Y-65400000D03*
D11*
%TO.P,J2,2,Pin_2*%
%TO.N,GND*%
X50600000Y-65400000D03*
%TD*%
D12*
%TO.P,U2,1,GND*%
%TO.N,GND*%
X74500000Y-3000000D03*
%TO.P,U2,2,VCC*%
%TO.N,+3V3*%
X72500000Y-3000000D03*
%TO.P,U2,3,SDA*%
%TO.N,SDA*%
X70500000Y-3000000D03*
D13*
%TO.P,U2,4,SCL*%
%TO.N,SCL*%
X68500000Y-3000000D03*
%TD*%
D14*
%TO.P,J10,1,Pin_1*%
%TO.N,+3V3*%
X83690000Y-10500000D03*
%TO.P,J10,2,Pin_2*%
%TO.N,GND*%
X86230000Y-10500000D03*
%TO.P,J10,3,Pin_3*%
%TO.N,SCL*%
X88770000Y-10500000D03*
D15*
%TO.P,J10,4,Pin_4*%
%TO.N,SDA*%
X91310000Y-10500000D03*
%TD*%
%TO.P,U1,1,VDD*%
%TO.N,MESH_BAT*%
X81050000Y-52800000D03*
D14*
%TO.P,U1,2,GND*%
%TO.N,GND*%
X81050000Y-50260000D03*
%TO.P,U1,3,DELAY*%
%TO.N,Net-(J3-Pin_2)*%
X81050000Y-47720000D03*
%TO.P,U1,4,DRIVE*%
%TO.N,V_TIMER*%
X81050000Y-45180000D03*
%TO.P,U1,5,DONE*%
%TO.N,DONE*%
X81050000Y-42640000D03*
%TD*%
D16*
%TO.P,R19,1*%
%TO.N,DONE*%
X59120000Y-56250000D03*
D17*
%TO.P,R19,2*%
%TO.N,GND*%
X51500000Y-56250000D03*
%TD*%
D18*
%TO.P,D1,1,K*%
%TO.N,GND*%
X5500000Y-35000000D03*
D19*
%TO.P,D1,2,A*%
%TO.N,Net-(D1-A)*%
X8040000Y-35000000D03*
%TD*%
D16*
%TO.P,R6,1*%
%TO.N,+3V3*%
X51500000Y-51500000D03*
D17*
%TO.P,R6,2*%
%TO.N,ONEWIRE*%
X59120000Y-51500000D03*
%TD*%
D20*
%TO.P,SW1,1,1*%
%TO.N,BUTTON*%
X86750000Y250000D03*
X93250000Y250000D03*
%TO.P,SW1,2,2*%
%TO.N,GND*%
X86750000Y-4250000D03*
X93250000Y-4250000D03*
%TD*%
D10*
%TO.P,J1,1,Pin_1*%
%TO.N,+3V3*%
X59000000Y-65250000D03*
D11*
%TO.P,J1,2,Pin_2*%
%TO.N,ONEWIRE*%
X64000000Y-65250000D03*
%TO.P,J1,3,Pin_3*%
%TO.N,GND*%
X69000000Y-65250000D03*
%TD*%
D21*
%TO.P,C2,1*%
%TO.N,V_TIMER*%
X6900000Y-42800000D03*
D22*
%TO.P,C2,2*%
%TO.N,GND*%
X6900000Y-40800000D03*
%TD*%
D17*
%TO.P,R17,2*%
%TO.N,GND*%
X100620000Y-57000000D03*
D16*
%TO.P,R17,1*%
%TO.N,DEPTH_PULL*%
X93000000Y-57000000D03*
%TD*%
%TO.P,R13,1*%
%TO.N,MESH_BAT*%
X59120000Y-47000000D03*
D17*
%TO.P,R13,2*%
%TO.N,BATT_MEASURE*%
X51500000Y-47000000D03*
%TD*%
D15*
%TO.P,J6,1,Pin_1*%
%TO.N,Net-(J3-Pin_2)*%
X101750000Y-45960000D03*
D14*
%TO.P,J6,2,Pin_2*%
%TO.N,GND*%
X101750000Y-48500000D03*
%TD*%
%TO.P,J3,4,Pin_4*%
%TO.N,DONE*%
X87110000Y-43130000D03*
%TO.P,J3,3,Pin_3*%
%TO.N,+3V3*%
X87110000Y-45670000D03*
%TO.P,J3,2,Pin_2*%
%TO.N,Net-(J3-Pin_2)*%
X87110000Y-48210000D03*
D15*
%TO.P,J3,1,Pin_1*%
%TO.N,GND*%
X87110000Y-50750000D03*
%TD*%
%TO.P,J8,1,Pin_1*%
%TO.N,+3V3*%
X43500000Y-48130000D03*
D14*
%TO.P,J8,2,Pin_2*%
%TO.N,SCL*%
X43500000Y-50670000D03*
%TO.P,J8,3,Pin_3*%
%TO.N,SDA*%
X43500000Y-53210000D03*
%TO.P,J8,4,Pin_4*%
%TO.N,GND*%
X43500000Y-55750000D03*
%TD*%
D16*
%TO.P,R7,1*%
%TO.N,LED*%
X15300000Y-43200000D03*
D17*
%TO.P,R7,2*%
%TO.N,Net-(D1-A)*%
X15300000Y-35580000D03*
%TD*%
D16*
%TO.P,R12,1*%
%TO.N,+3V3*%
X43665000Y-34250000D03*
D17*
%TO.P,R12,2*%
%TO.N,SCL*%
X51285000Y-34250000D03*
%TD*%
D15*
%TO.P,A2,1,RESET*%
%TO.N,unconnected-(A2-RESET-Pad1)*%
X5480000Y-63035000D03*
D14*
%TO.P,A2,2,3V*%
%TO.N,+3V3*%
X8020000Y-63035000D03*
%TO.P,A2,3,EN*%
%TO.N,unconnected-(A2-EN-Pad3)*%
X10560000Y-63035000D03*
%TO.P,A2,4,VHI*%
%TO.N,VHI*%
X13100000Y-63035000D03*
%TO.P,A2,5,A0*%
%TO.N,A0*%
X15640000Y-63035000D03*
%TO.P,A2,6,A1*%
%TO.N,A1*%
X18180000Y-63035000D03*
%TO.P,A2,7,A2*%
%TO.N,A2*%
X20720000Y-63035000D03*
%TO.P,A2,8,A3*%
%TO.N,DEPTH_TX*%
X23260000Y-63035000D03*
%TO.P,A2,9,A4*%
%TO.N,BATT_MEASURE*%
X25800000Y-63035000D03*
%TO.P,A2,10,A5*%
%TO.N,BUTTON*%
X28340000Y-63035000D03*
%TO.P,A2,11,SCK*%
%TO.N,SCK*%
X30880000Y-63035000D03*
%TO.P,A2,12,M0*%
%TO.N,MOSI*%
X33420000Y-63035000D03*
%TO.P,A2,13,MI*%
%TO.N,MISO*%
X35960000Y-63035000D03*
%TO.P,A2,14,D2*%
%TO.N,D2*%
X38500000Y-63035000D03*
%TO.P,A2,15,RX*%
%TO.N,MESH_RX*%
X38530000Y-48000000D03*
%TO.P,A2,16,TX*%
%TO.N,MESH_TX*%
X35990000Y-48000000D03*
%TO.P,A2,17,SDA*%
%TO.N,SDA*%
X33450000Y-48000000D03*
%TO.P,A2,18,SCL*%
%TO.N,SCL*%
X30910000Y-48000000D03*
%TO.P,A2,19,5!*%
%TO.N,unconnected-(A2-5!-Pad19)*%
X28370000Y-48000000D03*
%TO.P,A2,20,7*%
%TO.N,DONE*%
X25830000Y-48000000D03*
%TO.P,A2,21,9*%
%TO.N,D9*%
X23290000Y-48000000D03*
%TO.P,A2,22,10*%
%TO.N,DEPTH_PULL*%
X20750000Y-48000000D03*
%TO.P,A2,23,11*%
%TO.N,ONEWIRE*%
X18210000Y-48000000D03*
%TO.P,A2,24,12*%
%TO.N,D12*%
X15670000Y-48000000D03*
%TO.P,A2,25,13*%
%TO.N,LED*%
X13130000Y-48000000D03*
%TO.P,A2,26,USB*%
%TO.N,unconnected-(A2-USB-Pad26)*%
X10590000Y-48000000D03*
%TO.P,A2,27,GND*%
%TO.N,GND*%
X8050000Y-48000000D03*
D15*
%TO.P,A2,28,BAT*%
%TO.N,V_TIMER*%
X5510000Y-48000000D03*
%TD*%
D16*
%TO.P,R2,1*%
%TO.N,Net-(J3-Pin_2)*%
X95750000Y-43750000D03*
D17*
%TO.P,R2,2*%
%TO.N,GND*%
X95750000Y-51370000D03*
%TD*%
D10*
%TO.P,J7,1,Pin_1*%
%TO.N,GND*%
X76750000Y-65250000D03*
D11*
%TO.P,J7,2,Pin_2*%
%TO.N,+3V3*%
X81750000Y-65250000D03*
%TO.P,J7,3,Pin_3*%
%TO.N,DEPTH_TX*%
X86750000Y-65250000D03*
%TO.P,J7,4,Pin_4*%
%TO.N,DEPTH_PULL*%
X91750000Y-65250000D03*
%TD*%
D16*
%TO.P,R9,1*%
%TO.N,+3V3*%
X43640000Y-38500000D03*
D17*
%TO.P,R9,2*%
%TO.N,SDA*%
X51260000Y-38500000D03*
%TD*%
D15*
%TO.P,U3,1,BAT*%
%TO.N,MESH_BAT*%
X57000000Y-2550000D03*
D14*
%TO.P,U3,2,IO2*%
%TO.N,IO2*%
X54460000Y-2550000D03*
%TO.P,U3,3,IO1*%
%TO.N,IO1*%
X51920000Y-2550000D03*
%TO.P,U3,4,AIN1*%
%TO.N,AIN1*%
X49380000Y-2550000D03*
%TO.P,U3,5,RX1*%
%TO.N,MESH_TX*%
X46840000Y-2550000D03*
%TO.P,U3,6,TX1*%
%TO.N,MESH_RX*%
X44300000Y-2550000D03*
%TO.P,U3,7,GND*%
%TO.N,GND*%
X41760000Y-2550000D03*
%TO.P,U3,8,BOOT0*%
%TO.N,unconnected-(U3-BOOT0-Pad8)*%
X39220000Y-2550000D03*
D23*
%TO.P,U3,9*%
%TO.N,N/C*%
X61000000Y-3250000D03*
X7000000Y-5250000D03*
X59000000Y-27250000D03*
X7000000Y-27250000D03*
%TD*%
D15*
%TO.P,J4,1,Pin_1*%
%TO.N,IO2*%
X66000000Y-17000000D03*
D14*
%TO.P,J4,2,Pin_2*%
%TO.N,IO1*%
X66000000Y-19540000D03*
%TO.P,J4,3,Pin_3*%
%TO.N,AIN1*%
X66000000Y-22080000D03*
%TO.P,J4,4,Pin_4*%
%TO.N,GND*%
X66000000Y-24620000D03*
%TD*%
D16*
%TO.P,R4,1*%
%TO.N,+3V3*%
X81500000Y-6810000D03*
D17*
%TO.P,R4,2*%
%TO.N,BUTTON*%
X81500000Y810000D03*
%TD*%
D15*
%TO.P,J5,1,Pin_1*%
%TO.N,A0*%
X16000000Y-67400000D03*
D14*
%TO.P,J5,2,Pin_2*%
%TO.N,A1*%
X18540000Y-67400000D03*
%TO.P,J5,3,Pin_3*%
%TO.N,A2*%
X21080000Y-67400000D03*
%TO.P,J5,4,Pin_4*%
%TO.N,DEPTH_TX*%
X23620000Y-67400000D03*
%TO.P,J5,5,Pin_5*%
%TO.N,BUTTON*%
X26160000Y-67400000D03*
%TO.P,J5,6,Pin_6*%
%TO.N,D2*%
X28700000Y-67400000D03*
%TD*%
D15*
%TO.P,J9,1,Pin_1*%
%TO.N,V_TIMER*%
X20970000Y-43465000D03*
D14*
%TO.P,J9,2,Pin_2*%
%TO.N,D12*%
X23510000Y-43465000D03*
%TO.P,J9,3,Pin_3*%
%TO.N,D9*%
X26050000Y-43465000D03*
%TO.P,J9,4,Pin_4*%
%TO.N,DONE*%
X28590000Y-43465000D03*
%TO.P,J9,5,Pin_5*%
%TO.N,MESH_TX*%
X31130000Y-43465000D03*
%TO.P,J9,6,Pin_6*%
%TO.N,MESH_RX*%
X33670000Y-43465000D03*
%TO.P,J9,7,Pin_7*%
%TO.N,+3V3*%
X36210000Y-43465000D03*
%TO.P,J9,8,Pin_8*%
%TO.N,GND*%
X38750000Y-43465000D03*
%TD*%
D16*
%TO.P,R15,1*%
%TO.N,BATT_MEASURE*%
X43630000Y-42750000D03*
D17*
%TO.P,R15,2*%
%TO.N,GND*%
X51250000Y-42750000D03*
%TD*%
D24*
%TO.P,JP1,1,A*%
%TO.N,MESH_BAT*%
X74000000Y-47800000D03*
%TO.P,JP1,2,B*%
%TO.N,V_TIMER*%
X74000000Y-46500000D03*
%TD*%
D25*
%TO.N,BATT_MEASURE*%
X53800000Y-45600000D03*
%TO.N,SCL*%
X86600000Y-17600000D03*
X68400000Y-13100000D03*
%TO.N,GND*%
X8300000Y-54700000D03*
%TO.N,SDA*%
X89600000Y-16300000D03*
X70500000Y-12500000D03*
%TO.N,SCL*%
X68400000Y-32200000D03*
%TO.N,IO2*%
X54700000Y-15900000D03*
%TO.N,IO1*%
X52700000Y-19200000D03*
%TO.N,AIN1*%
X50100000Y-22300000D03*
%TO.N,ONEWIRE*%
X18300000Y-53100000D03*
%TO.N,BATT_MEASURE*%
X28800000Y-52100000D03*
%TO.N,ONEWIRE*%
X57600000Y-54400000D03*
%TO.N,MESH_TX*%
X31400000Y-45900000D03*
%TO.N,SDA*%
X32400000Y-41200000D03*
%TO.N,SCL*%
X29900000Y-37200000D03*
X47500000Y-33300000D03*
%TO.N,ONEWIRE*%
X63800000Y-52600000D03*
%TO.N,+3V3*%
X49700000Y-62700000D03*
%TO.N,Net-(J3-Pin_2)*%
X94100000Y-46700000D03*
%TO.N,+3V3*%
X84600000Y-46400000D03*
%TO.N,DEPTH_TX*%
X87000000Y-68500000D03*
X25000000Y-72000000D03*
%TO.N,D2*%
X38500000Y-66900000D03*
%TO.N,BUTTON*%
X11300000Y-3100000D03*
X12900000Y-70700000D03*
%TO.N,BATT_MEASURE*%
X48000000Y-49500000D03*
X47900000Y-47000000D03*
%TO.N,MESH_BAT*%
X55000000Y-36400000D03*
X58300000Y-37500000D03*
%TO.N,GND*%
X52800000Y-44500000D03*
X50200000Y-49500000D03*
X52800000Y-49400000D03*
%TO.N,SDA*%
X68700000Y-39400000D03*
%TO.N,MESH_RX*%
X34600000Y-27900000D03*
X44100000Y-26000000D03*
%TO.N,MESH_TX*%
X46700000Y-5000000D03*
X33100000Y-5700000D03*
%TO.N,DEPTH_PULL*%
X21100000Y-56800000D03*
%TO.N,DONE*%
X59000000Y-58300000D03*
X26900000Y-58800000D03*
X60900000Y-54000000D03*
X61100000Y-43900000D03*
%TO.N,V_TIMER*%
X20600000Y-33000000D03*
X62200000Y-32000000D03*
X63300000Y-46300000D03*
%TO.N,SDA*%
X34300000Y-53000000D03*
%TO.N,SCL*%
X32300000Y-50600000D03*
%TO.N,GND*%
X42100000Y-41500000D03*
%TO.N,+3V3*%
X40800000Y-48100000D03*
X40800000Y-38500000D03*
%TO.N,D12*%
X15800000Y-45900000D03*
X22900000Y-45200000D03*
%TO.N,LED*%
X13100000Y-43300000D03*
%TO.N,+3V3*%
X49200000Y-60000000D03*
X8200000Y-60000000D03*
X49200000Y-51600000D03*
X49200000Y-48100000D03*
%TO.N,GND*%
X8400000Y-40800000D03*
X78100000Y-24300000D03*
X77900000Y-8300000D03*
X41760000Y-8300000D03*
X77900000Y-4250000D03*
%TO.N,+3V3*%
X81500000Y-10500000D03*
X72900000Y-10700000D03*
%TO.N,GND*%
X38700000Y-41500000D03*
%TO.N,+3V3*%
X36300000Y-38400000D03*
%TO.N,GND*%
X102000000Y-51300000D03*
%TO.N,+3V3*%
X81800000Y-68200000D03*
X59100000Y-68200000D03*
%TO.N,GND*%
X76100000Y-50100000D03*
X69100000Y-61500000D03*
X54400000Y-61500000D03*
%TO.N,MESH_BAT*%
X66750000Y-53800000D03*
X45400000Y-70000000D03*
X66300000Y-69800000D03*
X66750000Y-47800000D03*
%TD*%
D26*
%TO.N,BATT_MEASURE*%
X53800000Y-45600000D02*
X52900000Y-45600000D01*
X52900000Y-45600000D02*
X51500000Y-47000000D01*
%TO.N,SCL*%
X72900000Y-17600000D02*
X68400000Y-13100000D01*
X86600000Y-17600000D02*
X72900000Y-17600000D01*
%TO.N,BUTTON*%
X86750000Y250000D02*
X93250000Y250000D01*
X81500000Y810000D02*
X86190000Y810000D01*
X86190000Y810000D02*
X86750000Y250000D01*
D27*
%TO.N,GND*%
X9350000Y-55750000D02*
X8300000Y-54700000D01*
X43500000Y-55750000D02*
X9350000Y-55750000D01*
D26*
%TO.N,SDA*%
X89600000Y-16300000D02*
X74300000Y-16300000D01*
X74300000Y-16300000D02*
X70500000Y-12500000D01*
%TO.N,SCL*%
X66350000Y-34250000D02*
X68400000Y-32200000D01*
X51285000Y-34250000D02*
X66350000Y-34250000D01*
%TO.N,IO2*%
X55800000Y-17000000D02*
X54700000Y-15900000D01*
X66000000Y-17000000D02*
X55800000Y-17000000D01*
%TO.N,IO1*%
X52700000Y-19200000D02*
X53040000Y-19540000D01*
X53040000Y-19540000D02*
X66000000Y-19540000D01*
%TO.N,AIN1*%
X50100000Y-22300000D02*
X50320000Y-22080000D01*
X50320000Y-22080000D02*
X66000000Y-22080000D01*
%TO.N,ONEWIRE*%
X19700000Y-54500000D02*
X18300000Y-53100000D01*
X35500000Y-54500000D02*
X19700000Y-54500000D01*
%TO.N,BATT_MEASURE*%
X28800000Y-52100000D02*
X32700000Y-52100000D01*
X32700000Y-52100000D02*
X32840000Y-51960000D01*
%TO.N,ONEWIRE*%
X57600000Y-54400000D02*
X57500000Y-54500000D01*
X57500000Y-54500000D02*
X35500000Y-54500000D01*
%TO.N,MESH_TX*%
X31400000Y-45900000D02*
X33890000Y-45900000D01*
X33890000Y-45900000D02*
X35990000Y-48000000D01*
%TO.N,SDA*%
X33500000Y-40100000D02*
X50600000Y-40100000D01*
X50600000Y-40100000D02*
X51300000Y-39400000D01*
X51300000Y-39400000D02*
X51260000Y-39360000D01*
X32400000Y-41200000D02*
X33500000Y-40100000D01*
X51260000Y-39360000D02*
X51260000Y-38500000D01*
%TO.N,SCL*%
X31500000Y-33100000D02*
X47300000Y-33100000D01*
X29900000Y-37200000D02*
X29900000Y-34700000D01*
X29900000Y-34700000D02*
X31500000Y-33100000D01*
X47300000Y-33100000D02*
X47500000Y-33300000D01*
%TO.N,ONEWIRE*%
X62700000Y-51500000D02*
X63800000Y-52600000D01*
X59120000Y-51500000D02*
X62700000Y-51500000D01*
D27*
%TO.N,+3V3*%
X56450000Y-62700000D02*
X59000000Y-65250000D01*
X49700000Y-62700000D02*
X56450000Y-62700000D01*
D26*
%TO.N,Net-(J3-Pin_2)*%
X92590000Y-48210000D02*
X94100000Y-46700000D01*
X87110000Y-48210000D02*
X92590000Y-48210000D01*
X81050000Y-47720000D02*
X86620000Y-47720000D01*
X86620000Y-47720000D02*
X87110000Y-48210000D01*
%TO.N,DONE*%
X87110000Y-43130000D02*
X81540000Y-43130000D01*
X81540000Y-43130000D02*
X81050000Y-42640000D01*
D27*
%TO.N,+3V3*%
X85330000Y-45670000D02*
X84600000Y-46400000D01*
X87110000Y-45670000D02*
X85330000Y-45670000D01*
D26*
%TO.N,DEPTH_TX*%
X25000000Y-72000000D02*
X83500000Y-72000000D01*
X83500000Y-72000000D02*
X87000000Y-68500000D01*
%TO.N,D2*%
X38000000Y-67400000D02*
X38500000Y-66900000D01*
X28700000Y-67400000D02*
X38000000Y-67400000D01*
%TO.N,BUTTON*%
X25000000Y-70700000D02*
X26300000Y-69400000D01*
X12900000Y-70700000D02*
X25000000Y-70700000D01*
X15210000Y810000D02*
X11300000Y-3100000D01*
X81500000Y810000D02*
X15210000Y810000D01*
X26160000Y-69260000D02*
X26160000Y-67400000D01*
X26300000Y-69400000D02*
X26160000Y-69260000D01*
%TO.N,BATT_MEASURE*%
X32840000Y-51960000D02*
X45540000Y-51960000D01*
X45540000Y-51960000D02*
X48000000Y-49500000D01*
D27*
%TO.N,MESH_BAT*%
X56100000Y-37500000D02*
X55000000Y-36400000D01*
X58300000Y-37500000D02*
X56100000Y-37500000D01*
%TO.N,GND*%
X50300000Y-49400000D02*
X50200000Y-49500000D01*
X51250000Y-42950000D02*
X52800000Y-44500000D01*
X52800000Y-49400000D02*
X50300000Y-49400000D01*
X51250000Y-42750000D02*
X51250000Y-42950000D01*
D26*
%TO.N,BATT_MEASURE*%
X47900000Y-47000000D02*
X51500000Y-47000000D01*
%TO.N,SDA*%
X68700000Y-39400000D02*
X52160000Y-39400000D01*
X52160000Y-39400000D02*
X51260000Y-38500000D01*
%TO.N,MESH_RX*%
X42200000Y-27900000D02*
X34600000Y-27900000D01*
X44100000Y-26000000D02*
X42200000Y-27900000D01*
%TO.N,MESH_TX*%
X46000000Y-5700000D02*
X46700000Y-5000000D01*
X33100000Y-5700000D02*
X46000000Y-5700000D01*
%TO.N,DEPTH_PULL*%
X21650000Y-57350000D02*
X21100000Y-56800000D01*
X92650000Y-57350000D02*
X21650000Y-57350000D01*
X93000000Y-57000000D02*
X92650000Y-57350000D01*
%TO.N,DONE*%
X58500000Y-58800000D02*
X59000000Y-58300000D01*
X26900000Y-58800000D02*
X58500000Y-58800000D01*
X81050000Y-42640000D02*
X62360000Y-42640000D01*
X62360000Y-42640000D02*
X61100000Y-43900000D01*
X60900000Y-54000000D02*
X60900000Y-54470000D01*
X60900000Y-54470000D02*
X59120000Y-56250000D01*
D27*
%TO.N,V_TIMER*%
X74000000Y-46500000D02*
X63500000Y-46500000D01*
X63500000Y-46500000D02*
X63300000Y-46300000D01*
X62200000Y-32000000D02*
X21600000Y-32000000D01*
X21600000Y-32000000D02*
X20600000Y-33000000D01*
D26*
%TO.N,SDA*%
X34300000Y-53000000D02*
X34510000Y-53210000D01*
X34510000Y-53210000D02*
X43500000Y-53210000D01*
%TO.N,SCL*%
X32300000Y-50600000D02*
X32370000Y-50670000D01*
X32370000Y-50670000D02*
X43500000Y-50670000D01*
D27*
%TO.N,GND*%
X38700000Y-41500000D02*
X50000000Y-41500000D01*
X50000000Y-41500000D02*
X51250000Y-42750000D01*
%TO.N,+3V3*%
X40830000Y-48130000D02*
X40800000Y-48100000D01*
X36400000Y-38500000D02*
X40800000Y-38500000D01*
X43500000Y-48130000D02*
X40830000Y-48130000D01*
X40800000Y-38500000D02*
X43640000Y-38500000D01*
D26*
%TO.N,D12*%
X16500000Y-45200000D02*
X15800000Y-45900000D01*
X22900000Y-45200000D02*
X16500000Y-45200000D01*
%TO.N,Net-(D1-A)*%
X15300000Y-35580000D02*
X8620000Y-35580000D01*
X8620000Y-35580000D02*
X8040000Y-35000000D01*
%TO.N,LED*%
X13100000Y-43300000D02*
X15200000Y-43300000D01*
X15200000Y-43300000D02*
X15300000Y-43200000D01*
D27*
%TO.N,+3V3*%
X8200000Y-60000000D02*
X49200000Y-60000000D01*
%TO.N,V_TIMER*%
X81050000Y-45180000D02*
X75320000Y-45180000D01*
X75320000Y-45180000D02*
X74000000Y-46500000D01*
%TO.N,+3V3*%
X43500000Y-48130000D02*
X49170000Y-48130000D01*
X49170000Y-48130000D02*
X49200000Y-48100000D01*
X49200000Y-51600000D02*
X51400000Y-51600000D01*
X51400000Y-51600000D02*
X51500000Y-51500000D01*
%TO.N,GND*%
X8400000Y-40800000D02*
X6900000Y-40800000D01*
%TO.N,V_TIMER*%
X20970000Y-43465000D02*
X20970000Y-43070000D01*
X20970000Y-43070000D02*
X20100000Y-42200000D01*
X19300000Y-41900000D02*
X7800000Y-41900000D01*
X20100000Y-42200000D02*
X19600000Y-42200000D01*
X19600000Y-42200000D02*
X19300000Y-41900000D01*
X7800000Y-41900000D02*
X6900000Y-42800000D01*
%TO.N,GND*%
X77780000Y-24620000D02*
X78100000Y-24300000D01*
X66000000Y-24620000D02*
X77780000Y-24620000D01*
X77900000Y-8300000D02*
X41760000Y-8300000D01*
X74500000Y-3000000D02*
X75750000Y-4250000D01*
X75750000Y-4250000D02*
X86750000Y-4250000D01*
X86750000Y-4250000D02*
X93250000Y-4250000D01*
%TO.N,+3V3*%
X73100000Y-10500000D02*
X81500000Y-10500000D01*
X81500000Y-10500000D02*
X83690000Y-10500000D01*
X72900000Y-10700000D02*
X73100000Y-10500000D01*
X43665000Y-34250000D02*
X43665000Y-38475000D01*
X43665000Y-38475000D02*
X43640000Y-38500000D01*
X36300000Y-38400000D02*
X36400000Y-38500000D01*
%TO.N,GND*%
X43500000Y-55750000D02*
X51000000Y-55750000D01*
X51000000Y-55750000D02*
X51500000Y-56250000D01*
X101930000Y-51370000D02*
X102000000Y-51300000D01*
X95750000Y-51370000D02*
X101930000Y-51370000D01*
X87110000Y-50750000D02*
X95130000Y-50750000D01*
X95130000Y-50750000D02*
X95750000Y-51370000D01*
%TO.N,+3V3*%
X59100000Y-68200000D02*
X81800000Y-68200000D01*
%TO.N,GND*%
X81050000Y-50260000D02*
X86620000Y-50260000D01*
X86620000Y-50260000D02*
X87110000Y-50750000D01*
X76260000Y-50260000D02*
X76100000Y-50100000D01*
X81050000Y-50260000D02*
X76260000Y-50260000D01*
X69000000Y-65250000D02*
X76750000Y-65250000D01*
X54400000Y-61500000D02*
X69100000Y-61500000D01*
%TO.N,MESH_BAT*%
X66750000Y-53800000D02*
X67750000Y-52800000D01*
X67750000Y-52800000D02*
X81050000Y-52800000D01*
X45600000Y-69800000D02*
X45400000Y-70000000D01*
X66300000Y-69800000D02*
X45600000Y-69800000D01*
X66750000Y-47800000D02*
X74000000Y-47800000D01*
X59120000Y-47000000D02*
X59920000Y-47800000D01*
X59920000Y-47800000D02*
X66750000Y-47800000D01*
%TD*%
M02*
