%TF.GenerationSoftware,KiCad,Pcbnew,8.0.6-8.0.6-0~ubuntu24.04.1*%
%TF.CreationDate,2025-03-25T09:16:13-04:00*%
%TF.ProjectId,mesh-depth,6d657368-2d64-4657-9074-682e6b696361,rev?*%
%TF.SameCoordinates,Original*%
%TF.FileFunction,Legend,Bot*%
%TF.FilePolarity,Positive*%
%FSLAX46Y46*%
G04 Gerber Fmt 4.6, Leading zero omitted, Abs format (unit mm)*
G04 Created by KiCad (PCBNEW 8.0.6-8.0.6-0~ubuntu24.04.1) date 2025-03-25 09:16:13*
%MOMM*%
%LPD*%
G01*
G04 APERTURE LIST*
%ADD10C,0.300000*%
%ADD11C,0.150000*%
%ADD12C,0.120000*%
G04 APERTURE END LIST*
D10*
X72800828Y-36740225D02*
X74300828Y-37240225D01*
X74300828Y-37240225D02*
X72800828Y-37740225D01*
X74443685Y-37883082D02*
X74443685Y-39025939D01*
X73300828Y-39168796D02*
X73300828Y-39740224D01*
X72800828Y-39383081D02*
X74086542Y-39383081D01*
X74086542Y-39383081D02*
X74229400Y-39454510D01*
X74229400Y-39454510D02*
X74300828Y-39597367D01*
X74300828Y-39597367D02*
X74300828Y-39740224D01*
X74300828Y-40240224D02*
X73300828Y-40240224D01*
X72800828Y-40240224D02*
X72872257Y-40168796D01*
X72872257Y-40168796D02*
X72943685Y-40240224D01*
X72943685Y-40240224D02*
X72872257Y-40311653D01*
X72872257Y-40311653D02*
X72800828Y-40240224D01*
X72800828Y-40240224D02*
X72943685Y-40240224D01*
X74300828Y-40954510D02*
X73300828Y-40954510D01*
X73443685Y-40954510D02*
X73372257Y-41025939D01*
X73372257Y-41025939D02*
X73300828Y-41168796D01*
X73300828Y-41168796D02*
X73300828Y-41383082D01*
X73300828Y-41383082D02*
X73372257Y-41525939D01*
X73372257Y-41525939D02*
X73515114Y-41597368D01*
X73515114Y-41597368D02*
X74300828Y-41597368D01*
X73515114Y-41597368D02*
X73372257Y-41668796D01*
X73372257Y-41668796D02*
X73300828Y-41811653D01*
X73300828Y-41811653D02*
X73300828Y-42025939D01*
X73300828Y-42025939D02*
X73372257Y-42168796D01*
X73372257Y-42168796D02*
X73515114Y-42240225D01*
X73515114Y-42240225D02*
X74300828Y-42240225D01*
X74229400Y-43525939D02*
X74300828Y-43383082D01*
X74300828Y-43383082D02*
X74300828Y-43097368D01*
X74300828Y-43097368D02*
X74229400Y-42954510D01*
X74229400Y-42954510D02*
X74086542Y-42883082D01*
X74086542Y-42883082D02*
X73515114Y-42883082D01*
X73515114Y-42883082D02*
X73372257Y-42954510D01*
X73372257Y-42954510D02*
X73300828Y-43097368D01*
X73300828Y-43097368D02*
X73300828Y-43383082D01*
X73300828Y-43383082D02*
X73372257Y-43525939D01*
X73372257Y-43525939D02*
X73515114Y-43597368D01*
X73515114Y-43597368D02*
X73657971Y-43597368D01*
X73657971Y-43597368D02*
X73800828Y-42883082D01*
X74300828Y-44240224D02*
X73300828Y-44240224D01*
X73586542Y-44240224D02*
X73443685Y-44311653D01*
X73443685Y-44311653D02*
X73372257Y-44383082D01*
X73372257Y-44383082D02*
X73300828Y-44525939D01*
X73300828Y-44525939D02*
X73300828Y-44668796D01*
X74400828Y-49454510D02*
X73400828Y-49454510D01*
X73543685Y-49454510D02*
X73472257Y-49525939D01*
X73472257Y-49525939D02*
X73400828Y-49668796D01*
X73400828Y-49668796D02*
X73400828Y-49883082D01*
X73400828Y-49883082D02*
X73472257Y-50025939D01*
X73472257Y-50025939D02*
X73615114Y-50097368D01*
X73615114Y-50097368D02*
X74400828Y-50097368D01*
X73615114Y-50097368D02*
X73472257Y-50168796D01*
X73472257Y-50168796D02*
X73400828Y-50311653D01*
X73400828Y-50311653D02*
X73400828Y-50525939D01*
X73400828Y-50525939D02*
X73472257Y-50668796D01*
X73472257Y-50668796D02*
X73615114Y-50740225D01*
X73615114Y-50740225D02*
X74400828Y-50740225D01*
X74329400Y-52025939D02*
X74400828Y-51883082D01*
X74400828Y-51883082D02*
X74400828Y-51597368D01*
X74400828Y-51597368D02*
X74329400Y-51454510D01*
X74329400Y-51454510D02*
X74186542Y-51383082D01*
X74186542Y-51383082D02*
X73615114Y-51383082D01*
X73615114Y-51383082D02*
X73472257Y-51454510D01*
X73472257Y-51454510D02*
X73400828Y-51597368D01*
X73400828Y-51597368D02*
X73400828Y-51883082D01*
X73400828Y-51883082D02*
X73472257Y-52025939D01*
X73472257Y-52025939D02*
X73615114Y-52097368D01*
X73615114Y-52097368D02*
X73757971Y-52097368D01*
X73757971Y-52097368D02*
X73900828Y-51383082D01*
X74329400Y-52668796D02*
X74400828Y-52811653D01*
X74400828Y-52811653D02*
X74400828Y-53097367D01*
X74400828Y-53097367D02*
X74329400Y-53240224D01*
X74329400Y-53240224D02*
X74186542Y-53311653D01*
X74186542Y-53311653D02*
X74115114Y-53311653D01*
X74115114Y-53311653D02*
X73972257Y-53240224D01*
X73972257Y-53240224D02*
X73900828Y-53097367D01*
X73900828Y-53097367D02*
X73900828Y-52883082D01*
X73900828Y-52883082D02*
X73829400Y-52740224D01*
X73829400Y-52740224D02*
X73686542Y-52668796D01*
X73686542Y-52668796D02*
X73615114Y-52668796D01*
X73615114Y-52668796D02*
X73472257Y-52740224D01*
X73472257Y-52740224D02*
X73400828Y-52883082D01*
X73400828Y-52883082D02*
X73400828Y-53097367D01*
X73400828Y-53097367D02*
X73472257Y-53240224D01*
X74400828Y-53954510D02*
X72900828Y-53954510D01*
X74400828Y-54597368D02*
X73615114Y-54597368D01*
X73615114Y-54597368D02*
X73472257Y-54525939D01*
X73472257Y-54525939D02*
X73400828Y-54383082D01*
X73400828Y-54383082D02*
X73400828Y-54168796D01*
X73400828Y-54168796D02*
X73472257Y-54025939D01*
X73472257Y-54025939D02*
X73543685Y-53954510D01*
X74543685Y-54954511D02*
X74543685Y-56097368D01*
X74400828Y-56454510D02*
X72900828Y-56454510D01*
X73472257Y-56454510D02*
X73400828Y-56597368D01*
X73400828Y-56597368D02*
X73400828Y-56883082D01*
X73400828Y-56883082D02*
X73472257Y-57025939D01*
X73472257Y-57025939D02*
X73543685Y-57097368D01*
X73543685Y-57097368D02*
X73686542Y-57168796D01*
X73686542Y-57168796D02*
X74115114Y-57168796D01*
X74115114Y-57168796D02*
X74257971Y-57097368D01*
X74257971Y-57097368D02*
X74329400Y-57025939D01*
X74329400Y-57025939D02*
X74400828Y-56883082D01*
X74400828Y-56883082D02*
X74400828Y-56597368D01*
X74400828Y-56597368D02*
X74329400Y-56454510D01*
X74400828Y-58454511D02*
X73615114Y-58454511D01*
X73615114Y-58454511D02*
X73472257Y-58383082D01*
X73472257Y-58383082D02*
X73400828Y-58240225D01*
X73400828Y-58240225D02*
X73400828Y-57954511D01*
X73400828Y-57954511D02*
X73472257Y-57811653D01*
X74329400Y-58454511D02*
X74400828Y-58311653D01*
X74400828Y-58311653D02*
X74400828Y-57954511D01*
X74400828Y-57954511D02*
X74329400Y-57811653D01*
X74329400Y-57811653D02*
X74186542Y-57740225D01*
X74186542Y-57740225D02*
X74043685Y-57740225D01*
X74043685Y-57740225D02*
X73900828Y-57811653D01*
X73900828Y-57811653D02*
X73829400Y-57954511D01*
X73829400Y-57954511D02*
X73829400Y-58311653D01*
X73829400Y-58311653D02*
X73757971Y-58454511D01*
X73400828Y-58954511D02*
X73400828Y-59525939D01*
X72900828Y-59168796D02*
X74186542Y-59168796D01*
X74186542Y-59168796D02*
X74329400Y-59240225D01*
X74329400Y-59240225D02*
X74400828Y-59383082D01*
X74400828Y-59383082D02*
X74400828Y-59525939D01*
D11*
X75254819Y-46316666D02*
X75969104Y-46316666D01*
X75969104Y-46316666D02*
X76111961Y-46269047D01*
X76111961Y-46269047D02*
X76207200Y-46173809D01*
X76207200Y-46173809D02*
X76254819Y-46030952D01*
X76254819Y-46030952D02*
X76254819Y-45935714D01*
X76254819Y-46792857D02*
X75254819Y-46792857D01*
X75254819Y-46792857D02*
X75254819Y-47173809D01*
X75254819Y-47173809D02*
X75302438Y-47269047D01*
X75302438Y-47269047D02*
X75350057Y-47316666D01*
X75350057Y-47316666D02*
X75445295Y-47364285D01*
X75445295Y-47364285D02*
X75588152Y-47364285D01*
X75588152Y-47364285D02*
X75683390Y-47316666D01*
X75683390Y-47316666D02*
X75731009Y-47269047D01*
X75731009Y-47269047D02*
X75778628Y-47173809D01*
X75778628Y-47173809D02*
X75778628Y-46792857D01*
X76254819Y-48316666D02*
X76254819Y-47745238D01*
X76254819Y-48030952D02*
X75254819Y-48030952D01*
X75254819Y-48030952D02*
X75397676Y-47935714D01*
X75397676Y-47935714D02*
X75492914Y-47840476D01*
X75492914Y-47840476D02*
X75540533Y-47745238D01*
D12*
%TO.C,JP1*%
X73000000Y-45750000D02*
X75000000Y-45750000D01*
X73000000Y-48550000D02*
X73000000Y-45750000D01*
X75000000Y-45750000D02*
X75000000Y-48550000D01*
X75000000Y-48550000D02*
X73000000Y-48550000D01*
%TD*%
M02*
