M48
; DRILL file {KiCad 8.0.6-8.0.6-0~ubuntu24.04.1} date 2025-03-25T09:16:15-0400
; FORMAT={-:-/ absolute / inch / decimal}
; #@! TF.CreationDate,2025-03-25T09:16:15-04:00
; #@! TF.GenerationSoftware,Kicad,Pcbnew,8.0.6-8.0.6-0~ubuntu24.04.1
; #@! TF.FileFunction,Plated,1,2,PTH
FMAT,2
INCH
; #@! TA.AperFunction,Plated,PTH,ViaDrill
T1C0.0157
; #@! TA.AperFunction,Plated,PTH,ComponentDrill
T2C0.0276
; #@! TA.AperFunction,Plated,PTH,ComponentDrill
T3C0.0315
; #@! TA.AperFunction,Plated,PTH,ComponentDrill
T4C0.0354
; #@! TA.AperFunction,Plated,PTH,ComponentDrill
T5C0.0394
; #@! TA.AperFunction,Plated,PTH,ComponentDrill
T6C0.0433
; #@! TA.AperFunction,Plated,PTH,ComponentDrill
T7C0.0512
; #@! TA.AperFunction,Plated,PTH,ComponentDrill
T8C0.1063
%
G90
G05
T1
X0.3228Y-2.3622
X0.3268Y-2.1535
X0.3307Y-1.6063
X0.4449Y-0.122
X0.5079Y-2.7835
X0.5157Y-1.7047
X0.622Y-1.8071
X0.7205Y-2.0906
X0.811Y-1.2992
X0.8307Y-2.2362
X0.9016Y-1.7795
X0.9843Y-2.8346
X1.0591Y-2.315
X1.1339Y-2.0512
X1.1772Y-1.4646
X1.2362Y-1.8071
X1.2717Y-1.9921
X1.2756Y-1.622
X1.3031Y-0.2244
X1.3504Y-2.0866
X1.3622Y-1.0984
X1.4291Y-1.5118
X1.5157Y-2.6339
X1.5236Y-1.6339
X1.6063Y-1.5157
X1.6063Y-1.8937
X1.6441Y-0.3268
X1.6575Y-1.6339
X1.7362Y-1.0236
X1.7874Y-2.7559
X1.8386Y-0.1969
X1.8701Y-1.311
X1.8858Y-1.8504
X1.8898Y-1.9488
X1.937Y-1.8937
X1.937Y-2.0315
X1.937Y-2.3622
X1.9567Y-2.4685
X1.9724Y-0.878
X1.9764Y-1.9488
X2.0748Y-0.7559
X2.0787Y-1.752
X2.0787Y-1.9449
X2.1181Y-1.7953
X2.1417Y-2.4213
X2.1535Y-0.626
X2.1654Y-1.4331
X2.2677Y-2.1417
X2.2953Y-1.4764
X2.3228Y-2.2953
X2.3268Y-2.685
X2.3976Y-2.126
X2.4055Y-1.7283
X2.4488Y-1.2598
X2.4921Y-1.8228
X2.5118Y-2.0709
X2.6102Y-2.748
X2.628Y-1.8819
X2.628Y-2.1181
X2.6929Y-0.5157
X2.6929Y-1.2677
X2.7047Y-1.5512
X2.7205Y-2.4213
X2.7756Y-0.4921
X2.8701Y-0.4213
X2.9961Y-1.9724
X3.0669Y-0.1673
X3.0669Y-0.3268
X3.0748Y-0.9567
X3.2087Y-0.4134
X3.2205Y-2.685
X3.3307Y-1.8268
X3.4094Y-0.6929
X3.4252Y-2.6969
X3.5276Y-0.6417
X3.7047Y-1.8386
X4.0157Y-2.0197
T2
X0.6024Y-1.4008
X0.6024Y-1.7008
X1.7177Y-1.6831
X1.7181Y-1.5157
X1.7191Y-1.3484
X2.0177Y-1.6831
X2.0181Y-1.5157
X2.0191Y-1.3484
X2.0276Y-1.8504
X2.0276Y-2.0276
X2.0276Y-2.2146
X2.3276Y-1.8504
X2.3276Y-2.0276
X2.3276Y-2.2146
X3.2087Y0.0319
X3.2087Y-0.2681
X3.6614Y-2.2441
X3.7697Y-1.7224
X3.7697Y-2.0224
X3.9614Y-2.2441
T3
X0.2717Y-1.6063
X0.2717Y-1.685
X2.6969Y-0.1181
X2.7756Y-0.1181
X2.8543Y-0.1181
X2.9331Y-0.1181
T4
X0.2165Y-1.378
X0.3165Y-1.378
T5
X0.2157Y-2.4817
X0.2169Y-1.8898
X0.3157Y-2.4817
X0.3169Y-1.8898
X0.4157Y-2.4817
X0.4169Y-1.8898
X0.5157Y-2.4817
X0.5169Y-1.8898
X0.6157Y-2.4817
X0.6169Y-1.8898
X0.6299Y-2.6535
X0.7157Y-2.4817
X0.7169Y-1.8898
X0.7299Y-2.6535
X0.8157Y-2.4817
X0.8169Y-1.8898
X0.8256Y-1.7112
X0.8299Y-2.6535
X0.9157Y-2.4817
X0.9169Y-1.8898
X0.9256Y-1.7112
X0.9299Y-2.6535
X1.0157Y-2.4817
X1.0169Y-1.8898
X1.0256Y-1.7112
X1.0299Y-2.6535
X1.1157Y-2.4817
X1.1169Y-1.8898
X1.1256Y-1.7112
X1.1299Y-2.6535
X1.2157Y-2.4817
X1.2169Y-1.8898
X1.2256Y-1.7112
X1.3157Y-2.4817
X1.3169Y-1.8898
X1.3256Y-1.7112
X1.4157Y-2.4817
X1.4169Y-1.8898
X1.4256Y-1.7112
X1.5157Y-2.4817
X1.5169Y-1.8898
X1.5256Y-1.7112
X1.5441Y-0.1004
X1.6441Y-0.1004
X1.7126Y-1.8949
X1.7126Y-1.9949
X1.7126Y-2.0949
X1.7126Y-2.1949
X1.7441Y-0.1004
X1.8441Y-0.1004
X1.9441Y-0.1004
X2.0441Y-0.1004
X2.1441Y-0.1004
X2.2441Y-0.1004
X2.5984Y-0.6693
X2.5984Y-0.7693
X2.5984Y-0.8693
X2.5984Y-0.9693
X3.1909Y-1.6787
X3.1909Y-1.7787
X3.1909Y-1.8787
X3.1909Y-1.9787
X3.1909Y-2.0787
X3.2949Y-0.4134
X3.3949Y-0.4134
X3.4295Y-1.698
X3.4295Y-1.798
X3.4295Y-1.898
X3.4295Y-1.998
X3.4949Y-0.4134
X3.5949Y-0.4134
X4.0059Y-1.8094
X4.0059Y-1.9094
T6
X3.4154Y0.0098
X3.4154Y-0.1673
X3.6713Y0.0098
X3.6713Y-0.1673
T7
X1.7953Y-2.5748
X1.9921Y-2.5748
X2.3228Y-2.5689
X2.5197Y-2.5689
X2.7165Y-2.5689
X3.0217Y-2.5689
X3.2185Y-2.5689
X3.4154Y-2.5689
X3.6122Y-2.5689
T8
X0.2756Y-0.2067
X0.2756Y-1.0728
X2.3228Y-1.0728
X2.4016Y-0.128
M30
